# This file uses centimeters as units for non-parametric coordinates.

mtllib Hook.mtl
g default
v -5.713941 5.120957 3.117173
v -5.713941 5.120957 3.099090
v -5.713941 5.136853 3.117173
v -5.713941 5.136853 3.099090
v -6.088100 5.128905 3.108132
v -5.696087 5.114876 3.122650
v -5.669608 5.112049 3.123140
v -5.647406 5.111984 3.123140
v -5.626556 5.115160 3.123140
v -5.607648 5.122738 3.123140
v -5.591782 5.134671 3.123140
v -5.579850 5.150262 3.123140
v -5.572548 5.168779 3.123140
v -5.570466 5.189342 3.123140
v -5.573305 5.210276 3.123140
v -5.580111 5.229977 3.123140
v -5.590104 5.247127 3.123140
v -5.602750 5.260404 3.123140
v -5.617504 5.269002 3.123140
v -5.633360 5.272764 3.123140
v -5.649273 5.271934 3.123140
v -5.664304 5.266953 3.123140
v -5.677441 5.258631 3.123140
v -5.687660 5.248149 3.123140
v -5.694061 5.236308 3.123140
v -5.695228 5.223386 3.123140
v -5.688737 5.212026 3.122977
v -5.678393 5.201968 3.123101
v -5.670489 5.193863 3.123218
v -5.648439 5.188517 3.121754
v -5.691539 5.114218 3.105160
v -5.669588 5.112264 3.105058
v -5.647405 5.112200 3.105058
v -5.626589 5.115374 3.105058
v -5.607728 5.122938 3.105058
v -5.591912 5.134843 3.105058
v -5.580022 5.150393 3.105058
v -5.572748 5.168857 3.105058
v -5.570680 5.189364 3.105058
v -5.573518 5.210247 3.105058
v -5.580314 5.229908 3.105058
v -5.590290 5.247020 3.105058
v -5.602905 5.260256 3.105058
v -5.617612 5.268816 3.105058
v -5.633410 5.272556 3.105058
v -5.649262 5.271720 3.105058
v -5.664237 5.266749 3.105058
v -5.677326 5.258450 3.105058
v -5.687506 5.248000 3.105058
v -5.693872 5.236209 3.105058
v -5.695013 5.223376 3.105058
v -5.688467 5.211980 3.104895
v -5.678170 5.201983 3.105019
v -5.670293 5.193899 3.105136
v -5.648301 5.188644 3.103672
v -5.687101 5.129471 3.105739
v -5.668122 5.128092 3.105248
v -5.647381 5.128095 3.105248
v -5.629056 5.131077 3.105248
v -5.613803 5.137628 3.105248
v -5.601648 5.147408 3.105248
v -5.592791 5.159859 3.105248
v -5.587625 5.174458 3.105248
v -5.586516 5.190734 3.105248
v -5.589247 5.207949 3.105248
v -5.595300 5.224606 3.105248
v -5.603962 5.238910 3.105248
v -5.614279 5.249150 3.105248
v -5.625342 5.254926 3.105248
v -5.636741 5.257012 3.105248
v -5.648110 5.255866 3.105248
v -5.658965 5.251753 3.105248
v -5.668616 5.245153 3.105248
v -5.675956 5.237077 3.105248
v -5.679708 5.228993 3.105248
v -5.679125 5.222893 3.105248
v -5.674366 5.219315 3.105088
v -5.667495 5.213761 3.105162
v -5.661718 5.207285 3.105257
v -5.648335 5.204541 3.103785
v -5.691649 5.130130 3.123229
v -5.668142 5.127877 3.123330
v -5.647381 5.127880 3.123330
v -5.629022 5.130864 3.123330
v -5.613720 5.137428 3.123330
v -5.601517 5.147236 3.123330
v -5.592618 5.159729 3.123330
v -5.587422 5.174382 3.123330
v -5.586301 5.190715 3.123330
v -5.589034 5.207980 3.123330
v -5.595097 5.224678 3.123330
v -5.603776 5.239020 3.123330
v -5.614124 5.249301 3.123330
v -5.625238 5.255114 3.123330
v -5.636698 5.257223 3.123330
v -5.648127 5.256080 3.123330
v -5.659037 5.251956 3.123330
v -5.668735 5.245332 3.123330
v -5.676114 5.237224 3.123330
v -5.679900 5.229089 3.123330
v -5.679341 5.222898 3.123330
v -5.674634 5.219356 3.123170
v -5.667715 5.213743 3.123244
v -5.661910 5.207244 3.123340
v -5.648469 5.204412 3.121867
v -6.046527 5.136853 3.117173
v -6.046527 5.120957 3.117173
v -6.046527 5.120957 3.099090
v -6.046527 5.136853 3.099090
v -6.004954 5.136853 3.117173
v -6.004954 5.120957 3.117173
v -6.004954 5.120957 3.099090
v -6.004954 5.136853 3.099090
v -5.963380 5.136853 3.117173
v -5.963380 5.120957 3.117173
v -5.963380 5.120957 3.099090
v -5.963380 5.136853 3.099090
v -5.921807 5.136853 3.117173
v -5.921807 5.120957 3.117173
v -5.921807 5.120957 3.099090
v -5.921807 5.136853 3.099090
v -5.880234 5.136853 3.117173
v -5.880234 5.120957 3.117173
v -5.880234 5.120957 3.099090
v -5.880234 5.136853 3.099090
v -5.838661 5.136853 3.117173
v -5.838661 5.120957 3.117173
v -5.838661 5.120957 3.099090
v -5.838661 5.136853 3.099090
v -5.797088 5.136853 3.117173
v -5.797088 5.120957 3.117173
v -5.797088 5.120957 3.099090
v -5.797088 5.136853 3.099090
v -5.755514 5.136853 3.117173
v -5.755514 5.120957 3.117173
v -5.755514 5.120957 3.099090
v -5.755514 5.136853 3.099090
vt 0.375000 0.000000
vt 0.625000 0.000000
vt 0.375000 0.250000
vt 0.625000 0.250000
vt 0.500000 0.625000
vt 0.375000 1.000000
vt 0.625000 1.000000
vt 0.875000 0.125000
vt 0.125000 0.125000
vt 0.375000 0.000000
vt 0.375000 0.000000
vt 0.375000 0.000000
vt 0.375000 0.000000
vt 0.375000 0.000000
vt 0.375000 0.000000
vt 0.375000 0.000000
vt 0.375000 0.000000
vt 0.375000 0.000000
vt 0.375000 0.000000
vt 0.375000 0.000000
vt 0.375000 0.000000
vt 0.375000 0.000000
vt 0.375000 0.000000
vt 0.375000 0.000000
vt 0.375000 0.000000
vt 0.375000 0.000000
vt 0.375000 0.000000
vt 0.375000 0.000000
vt 0.375000 0.000000
vt 0.375000 0.000000
vt 0.375000 0.000000
vt 0.375000 0.000000
vt 0.375000 0.000000
vt 0.375000 0.000000
vt 0.625000 0.000000
vt 0.625000 0.000000
vt 0.625000 0.000000
vt 0.625000 0.000000
vt 0.625000 0.000000
vt 0.625000 0.000000
vt 0.625000 0.000000
vt 0.625000 0.000000
vt 0.625000 0.000000
vt 0.625000 0.000000
vt 0.625000 0.000000
vt 0.625000 0.000000
vt 0.625000 0.000000
vt 0.625000 0.000000
vt 0.625000 0.000000
vt 0.625000 0.000000
vt 0.625000 0.000000
vt 0.625000 0.000000
vt 0.625000 0.000000
vt 0.625000 0.000000
vt 0.625000 0.000000
vt 0.625000 0.000000
vt 0.625000 0.000000
vt 0.625000 0.000000
vt 0.625000 0.000000
vt 0.625000 0.250000
vt 0.625000 0.250000
vt 0.625000 0.250000
vt 0.625000 0.250000
vt 0.625000 0.250000
vt 0.625000 0.250000
vt 0.625000 0.250000
vt 0.625000 0.250000
vt 0.625000 0.250000
vt 0.625000 0.250000
vt 0.625000 0.250000
vt 0.625000 0.250000
vt 0.625000 0.250000
vt 0.625000 0.250000
vt 0.625000 0.250000
vt 0.625000 0.250000
vt 0.625000 0.250000
vt 0.625000 0.250000
vt 0.625000 0.250000
vt 0.625000 0.250000
vt 0.625000 0.250000
vt 0.625000 0.250000
vt 0.625000 0.250000
vt 0.625000 0.250000
vt 0.625000 0.250000
vt 0.375000 0.250000
vt 0.375000 0.250000
vt 0.375000 0.250000
vt 0.375000 0.250000
vt 0.375000 0.250000
vt 0.375000 0.250000
vt 0.375000 0.250000
vt 0.375000 0.250000
vt 0.375000 0.250000
vt 0.375000 0.250000
vt 0.375000 0.250000
vt 0.375000 0.250000
vt 0.375000 0.250000
vt 0.375000 0.250000
vt 0.375000 0.250000
vt 0.375000 0.250000
vt 0.375000 0.250000
vt 0.375000 0.250000
vt 0.375000 0.250000
vt 0.375000 0.250000
vt 0.375000 0.250000
vt 0.375000 0.250000
vt 0.375000 0.250000
vt 0.375000 0.250000
vt 0.375000 0.250000
vt 0.152778 0.250000
vt 0.375000 0.472222
vt 0.152778 0.000000
vt 0.375000 0.777778
vt 0.625000 0.777778
vt 0.847222 0.000000
vt 0.625000 0.472222
vt 0.847222 0.250000
vt 0.180556 0.250000
vt 0.375000 0.444444
vt 0.180556 0.000000
vt 0.375000 0.805556
vt 0.625000 0.805556
vt 0.819444 0.000000
vt 0.625000 0.444444
vt 0.819444 0.250000
vt 0.208333 0.250000
vt 0.375000 0.416667
vt 0.208333 0.000000
vt 0.375000 0.833333
vt 0.625000 0.833333
vt 0.791667 0.000000
vt 0.625000 0.416667
vt 0.791667 0.250000
vt 0.236111 0.250000
vt 0.375000 0.388889
vt 0.236111 0.000000
vt 0.375000 0.861111
vt 0.625000 0.861111
vt 0.763889 0.000000
vt 0.625000 0.388889
vt 0.763889 0.250000
vt 0.263889 0.250000
vt 0.375000 0.361111
vt 0.263889 0.000000
vt 0.375000 0.888889
vt 0.625000 0.888889
vt 0.736111 0.000000
vt 0.625000 0.361111
vt 0.736111 0.250000
vt 0.291667 0.250000
vt 0.375000 0.333333
vt 0.291667 0.000000
vt 0.375000 0.916667
vt 0.625000 0.916667
vt 0.708333 0.000000
vt 0.625000 0.333333
vt 0.708333 0.250000
vt 0.319444 0.250000
vt 0.375000 0.305556
vt 0.319444 0.000000
vt 0.375000 0.944444
vt 0.625000 0.944444
vt 0.680556 0.000000
vt 0.625000 0.305556
vt 0.680556 0.250000
vt 0.347222 0.250000
vt 0.375000 0.277778
vt 0.347222 0.000000
vt 0.375000 0.972222
vt 0.625000 0.972222
vt 0.652778 0.000000
vt 0.625000 0.277778
vt 0.652778 0.250000
vn 0.999970 0.001962 0.007531
vn 0.999970 0.001962 0.007531
vn 0.999970 0.001962 0.007531
vn 0.999970 0.001962 0.007531
vn 0.115342 0.993300 0.007186
vn 0.095098 0.995450 0.005925
vn 0.000000 1.000000 0.000000
vn 0.000000 1.000000 0.000000
vn 0.000000 -1.000000 0.000000
vn 0.000000 -1.000000 0.000000
vn -0.091045 -0.995827 -0.006248
vn -0.114205 -0.993426 -0.007838
vn 0.104803 -0.007239 -0.994467
vn 0.000000 0.000000 -1.000000
vn 0.000000 0.000000 -1.000000
vn 0.084529 -0.005838 -0.996404
vn 0.000000 0.000000 1.000000
vn -0.103901 0.007915 0.994556
vn -0.080628 0.006142 0.996725
vn 0.000000 0.000000 1.000000
vn -0.186100 -0.982489 -0.009078
vn -0.201073 -0.979519 -0.010592
vn -0.052364 -0.998611 -0.005889
vn -0.052185 -0.998620 -0.005911
vn 0.072157 -0.997322 -0.011966
vn 0.072065 -0.997328 -0.011966
vn 0.261249 -0.965198 -0.011934
vn 0.261060 -0.965249 -0.011934
vn 0.489507 -0.871919 -0.011865
vn 0.489279 -0.872047 -0.011865
vn 0.703792 -0.710307 -0.011835
vn 0.703598 -0.710500 -0.011835
vn 0.871152 -0.490870 -0.011815
vn 0.871012 -0.491119 -0.011815
vn 0.972369 -0.233150 -0.011771
vn 0.972305 -0.233420 -0.011771
vn 0.999759 0.018523 -0.011756
vn 0.999763 0.018317 -0.011755
vn 0.972854 0.231118 -0.011787
vn 0.972889 0.230973 -0.011787
vn 0.909780 0.414922 -0.011812
vn 0.909842 0.414786 -0.011812
vn 0.802101 0.597072 -0.011807
vn 0.802227 0.596902 -0.011807
vn 0.623606 0.781650 -0.011791
vn 0.623840 0.781463 -0.011791
vn 0.374012 0.927349 -0.011767
vn 0.374313 0.927228 -0.011767
vn 0.091482 0.995738 -0.011731
vn 0.091790 0.995709 -0.011731
vn -0.184956 0.982677 -0.011716
vn -0.184691 0.982727 -0.011716
vn -0.427318 0.904025 -0.011739
vn -0.427115 0.904121 -0.011739
vn -0.627303 0.778687 -0.011766
vn -0.627142 0.778816 -0.011766
vn -0.802254 0.596867 -0.011773
vn -0.802081 0.597099 -0.011773
vn -0.956451 0.291656 -0.011753
vn -0.956281 0.292212 -0.011753
vn -0.995943 0.089261 -0.011395
vn -0.995943 0.089261 -0.011395
vn -0.867713 -0.496948 -0.010851
vn -0.867713 -0.496948 -0.010851
vn -0.785197 -0.619166 -0.009901
vn -0.786632 -0.617342 -0.009918
vn -0.705260 -0.708891 -0.009050
vn -0.705276 -0.708875 -0.009050
vn -0.403975 -0.914737 -0.007705
vn -0.414351 -0.910084 -0.007770
vn -0.234439 -0.972109 -0.006563
vn -0.234439 -0.972109 -0.006563
vn 0.124309 0.003960 -0.992236
vn 0.141668 0.000988 -0.989914
vn -0.005747 0.019066 -0.999802
vn -0.006147 0.019558 -0.999790
vn -0.000934 0.011934 -0.999928
vn -0.000839 0.011939 -0.999928
vn -0.003303 0.011533 -0.999928
vn -0.003094 0.011585 -0.999928
vn -0.006139 0.010362 -0.999927
vn -0.005896 0.010498 -0.999928
vn -0.008722 0.008339 -0.999927
vn -0.008516 0.008548 -0.999927
vn -0.010681 0.005627 -0.999927
vn -0.010536 0.005892 -0.999927
vn -0.011816 0.002487 -0.999927
vn -0.011752 0.002773 -0.999927
vn -0.012058 -0.000494 -0.999927
vn -0.012069 -0.000285 -0.999927
vn -0.011665 -0.002966 -0.999928
vn -0.011704 -0.002823 -0.999928
vn -0.010863 -0.005133 -0.999928
vn -0.010925 -0.004999 -0.999928
vn -0.009510 -0.007342 -0.999928
vn -0.009640 -0.007166 -0.999928
vn -0.007252 -0.009617 -0.999927
vn -0.007506 -0.009412 -0.999928
vn -0.004125 -0.011359 -0.999927
vn -0.004450 -0.011236 -0.999927
vn -0.000680 -0.012071 -0.999927
vn -0.000998 -0.012051 -0.999927
vn 0.002613 -0.011792 -0.999927
vn 0.002341 -0.011851 -0.999927
vn 0.005451 -0.010760 -0.999927
vn 0.005247 -0.010865 -0.999927
vn 0.007781 -0.009194 -0.999927
vn 0.007619 -0.009331 -0.999927
vn 0.009873 -0.006892 -0.999928
vn 0.009681 -0.007150 -0.999928
vn 0.011775 -0.002774 -0.999927
vn 0.011528 -0.003532 -0.999927
vn 0.008945 0.016250 -0.999828
vn 0.010315 0.009942 -0.999897
vn 0.010860 0.008744 -0.999903
vn 0.009723 0.013621 -0.999860
vn 0.013595 0.000330 -0.999908
vn 0.013645 0.000283 -0.999907
vn -0.044308 0.019370 -0.998830
vn -0.041569 0.018436 -0.998966
vn -0.075927 0.030144 -0.996658
vn -0.075927 0.030144 -0.996658
vn 0.197307 0.980295 0.009538
vn 0.181005 0.983450 0.007929
vn 0.042699 0.999074 0.005202
vn 0.042371 0.999088 0.005253
vn -0.076103 0.997029 0.011935
vn -0.076201 0.997021 0.011935
vn -0.272858 0.961981 0.011910
vn -0.273086 0.961916 0.011910
vn -0.511503 0.859200 0.011854
vn -0.511770 0.859040 0.011854
vn -0.726407 0.687163 0.011815
vn -0.726639 0.686917 0.011815
vn -0.887504 0.460648 0.011801
vn -0.887664 0.460341 0.011801
vn -0.979803 0.199616 0.011805
vn -0.979867 0.199302 0.011805
vn -0.998776 -0.048026 0.011810
vn -0.998765 -0.048254 0.011810
vn -0.967973 -0.250773 0.011839
vn -0.967934 -0.250926 0.011839
vn -0.903203 -0.429049 0.011867
vn -0.903136 -0.429190 0.011867
vn -0.791195 -0.611449 0.011873
vn -0.791046 -0.611641 0.011872
vn -0.599863 -0.800016 0.011832
vn -0.599567 -0.800237 0.011832
vn -0.330930 -0.943582 0.011752
vn -0.330560 -0.943712 0.011752
vn -0.041862 -0.999054 0.011728
vn -0.041518 -0.999069 0.011728
vn 0.229731 -0.973183 0.011750
vn 0.230025 -0.973114 0.011750
vn 0.462589 -0.886494 0.011781
vn 0.462812 -0.886378 0.011781
vn 0.653301 -0.757007 0.011799
vn 0.653473 -0.756858 0.011799
vn 0.824110 -0.566307 0.011791
vn 0.824319 -0.566003 0.011790
vn 0.906779 -0.421447 0.011585
vn 0.906779 -0.421447 0.011585
vn 0.995655 0.092474 0.010966
vn 0.995655 0.092474 0.010966
vn 0.995655 0.092474 0.010966
vn 0.995655 0.092474 0.010966
vn 0.601207 0.799063 0.007012
vn 0.601207 0.799063 0.007012
vn 0.617926 0.786200 0.007609
vn 0.618310 0.785898 0.007623
vn 0.689294 0.724428 0.008835
vn 0.689176 0.724540 0.008833
vn 0.445790 0.895101 0.008117
vn 0.425882 0.904743 0.007991
vn 0.204216 0.978905 0.006435
vn 0.204216 0.978905 0.006435
vn -0.139673 -0.001353 0.990197
vn -0.126136 -0.003605 0.992006
vn -0.007751 -0.017527 0.999816
vn -0.007384 -0.017264 0.999824
vn 0.000838 -0.011938 0.999928
vn 0.000933 -0.011934 0.999928
vn 0.003092 -0.011585 0.999928
vn 0.003301 -0.011534 0.999928
vn 0.005893 -0.010500 0.999928
vn 0.006135 -0.010364 0.999927
vn 0.008512 -0.008551 0.999927
vn 0.008717 -0.008343 0.999927
vn 0.010533 -0.005897 0.999927
vn 0.010678 -0.005632 0.999927
vn 0.011751 -0.002779 0.999927
vn 0.011815 -0.002493 0.999927
vn 0.012070 0.000281 0.999927
vn 0.012059 0.000489 0.999927
vn 0.011705 0.002820 0.999928
vn 0.011667 0.002962 0.999928
vn 0.010927 0.004997 0.999928
vn 0.010865 0.005130 0.999928
vn 0.009643 0.007164 0.999928
vn 0.009513 0.007340 0.999928
vn 0.007511 0.009410 0.999928
vn 0.007257 0.009613 0.999927
vn 0.004457 0.011233 0.999927
vn 0.004133 0.011356 0.999927
vn 0.001006 0.012050 0.999927
vn 0.000688 0.012070 0.999927
vn -0.002334 0.011853 0.999927
vn -0.002605 0.011794 0.999927
vn -0.005241 0.010868 0.999927
vn -0.005445 0.010764 0.999927
vn -0.007615 0.009335 0.999927
vn -0.007777 0.009198 0.999927
vn -0.009678 0.007155 0.999928
vn -0.009869 0.006898 0.999928
vn -0.011525 0.003542 0.999927
vn -0.011770 0.002791 0.999927
vn -0.010319 -0.009904 0.999898
vn -0.008952 -0.016218 0.999828
vn -0.009735 -0.013607 0.999860
vn -0.010872 -0.008725 0.999903
vn -0.013643 -0.000283 0.999907
vn -0.013593 -0.000330 0.999908
vn 0.041389 -0.018406 0.998973
vn 0.044034 -0.019309 0.998843
vn 0.075543 -0.030061 0.996689
vn 0.075543 -0.030061 0.996689
vn -0.212520 0.000000 0.977157
vn -0.066435 0.000000 0.997791
vn -0.066435 0.000000 0.997791
vn -0.187785 -0.982210 0.000000
vn -0.057674 -0.998335 0.000000
vn -0.057674 -0.998335 0.000000
vn -0.066435 0.000000 -0.997791
vn -0.066435 0.000000 -0.997791
vn -0.212520 0.000000 -0.977157
vn -0.057674 0.998335 -0.000000
vn -0.057674 0.998335 -0.000000
vn -0.187785 0.982210 -0.000000
vn 0.000000 0.000000 1.000000
vn 0.000000 0.000000 1.000000
vn 0.000000 -1.000000 0.000000
vn 0.000000 -1.000000 0.000000
vn 0.000000 0.000000 -1.000000
vn 0.000000 0.000000 -1.000000
vn 0.000000 1.000000 0.000000
vn 0.000000 1.000000 0.000000
vn 0.000000 0.000000 1.000000
vn 0.000000 0.000000 1.000000
vn 0.000000 -1.000000 0.000000
vn 0.000000 -1.000000 0.000000
vn 0.000000 0.000000 -1.000000
vn 0.000000 0.000000 -1.000000
vn 0.000000 1.000000 0.000000
vn 0.000000 1.000000 0.000000
vn 0.000000 0.000000 1.000000
vn 0.000000 0.000000 1.000000
vn 0.000000 -1.000000 0.000000
vn 0.000000 -1.000000 0.000000
vn 0.000000 0.000000 -1.000000
vn 0.000000 0.000000 -1.000000
vn 0.000000 1.000000 0.000000
vn 0.000000 1.000000 0.000000
vn 0.000000 0.000000 1.000000
vn 0.000000 0.000000 1.000000
vn 0.000000 -1.000000 0.000000
vn 0.000000 -1.000000 0.000000
vn 0.000000 0.000000 -1.000000
vn 0.000000 0.000000 -1.000000
vn 0.000000 1.000000 0.000000
vn 0.000000 1.000000 0.000000
vn 0.000000 0.000000 1.000000
vn 0.000000 0.000000 1.000000
vn 0.000000 -1.000000 0.000000
vn 0.000000 -1.000000 0.000000
vn 0.000000 0.000000 -1.000000
vn 0.000000 0.000000 -1.000000
vn 0.000000 1.000000 0.000000
vn 0.000000 1.000000 0.000000
vn 0.000000 0.000000 1.000000
vn 0.000000 0.000000 1.000000
vn 0.000000 -1.000000 0.000000
vn 0.000000 -1.000000 0.000000
vn 0.000000 0.000000 -1.000000
vn 0.000000 0.000000 -1.000000
vn 0.000000 1.000000 0.000000
vn 0.000000 1.000000 0.000000
s off
g Hook5
usemtl initialShadingGroup
f 30/34/1 55/59/2 80/84/3 105/109/4
s 1
f 3/3/5 4/4/6 137/172/7 134/167/8
s 2
f 135/169/9 136/170/10 2/7/11 1/6/12
s 3
f 2/2/13 136/171/14 137/173/15 4/4/16
s 4
f 135/168/17 1/1/18 3/3/19 134/166/20
s 2
f 1/1/12 2/2/11 31/35/21 6/10/22
f 6/10/22 31/35/21 32/36/23 7/11/24
f 7/11/24 32/36/23 33/37/25 8/12/26
f 8/12/26 33/37/25 34/38/27 9/13/28
f 9/13/28 34/38/27 35/39/29 10/14/30
f 10/14/30 35/39/29 36/40/31 11/15/32
f 11/15/32 36/40/31 37/41/33 12/16/34
f 12/16/34 37/41/33 38/42/35 13/17/36
f 13/17/36 38/42/35 39/43/37 14/18/38
f 14/18/38 39/43/37 40/44/39 15/19/40
f 15/19/40 40/44/39 41/45/41 16/20/42
f 16/20/42 41/45/41 42/46/43 17/21/44
f 17/21/44 42/46/43 43/47/45 18/22/46
f 18/22/46 43/47/45 44/48/47 19/23/48
f 19/23/48 44/48/47 45/49/49 20/24/50
f 20/24/50 45/49/49 46/50/51 21/25/52
f 21/25/52 46/50/51 47/51/53 22/26/54
f 22/26/54 47/51/53 48/52/55 23/27/56
f 23/27/56 48/52/55 49/53/57 24/28/58
f 24/28/58 49/53/57 50/54/59 25/29/60
f 25/29/60 50/54/59 51/55/61 26/30/62
s 5
f 26/30/63 51/55/64 52/56/65 27/31/66
f 27/31/66 52/56/65 53/57/67 28/32/68
f 28/32/68 53/57/67 54/58/69 29/33/70
f 29/33/70 54/58/69 55/59/71 30/34/72
s 3
f 2/2/13 4/4/16 56/60/73 31/35/74
f 31/35/74 56/60/73 57/61/75 32/36/76
f 32/36/76 57/61/75 58/62/77 33/37/78
f 33/37/78 58/62/77 59/63/79 34/38/80
f 34/38/80 59/63/79 60/64/81 35/39/82
f 35/39/82 60/64/81 61/65/83 36/40/84
f 36/40/84 61/65/83 62/66/85 37/41/86
f 37/41/86 62/66/85 63/67/87 38/42/88
f 38/42/88 63/67/87 64/68/89 39/43/90
f 39/43/90 64/68/89 65/69/91 40/44/92
f 40/44/92 65/69/91 66/70/93 41/45/94
f 41/45/94 66/70/93 67/71/95 42/46/96
f 42/46/96 67/71/95 68/72/97 43/47/98
f 43/47/98 68/72/97 69/73/99 44/48/100
f 44/48/100 69/73/99 70/74/101 45/49/102
f 45/49/102 70/74/101 71/75/103 46/50/104
f 46/50/104 71/75/103 72/76/105 47/51/106
f 47/51/106 72/76/105 73/77/107 48/52/108
f 48/52/108 73/77/107 74/78/109 49/53/110
f 49/53/110 74/78/109 75/79/111 50/54/112
f 50/54/112 75/79/111 76/80/113 51/55/114
f 51/55/114 76/80/113 77/81/115 52/56/116
f 52/56/116 77/81/115 78/82/117 53/57/118
f 53/57/118 78/82/117 79/83/119 54/58/120
f 54/58/120 79/83/119 80/84/121 55/59/122
s 1
f 4/4/6 3/3/5 81/85/123 56/60/124
f 56/60/124 81/85/123 82/86/125 57/61/126
f 57/61/126 82/86/125 83/87/127 58/62/128
f 58/62/128 83/87/127 84/88/129 59/63/130
f 59/63/130 84/88/129 85/89/131 60/64/132
f 60/64/132 85/89/131 86/90/133 61/65/134
f 61/65/134 86/90/133 87/91/135 62/66/136
f 62/66/136 87/91/135 88/92/137 63/67/138
f 63/67/138 88/92/137 89/93/139 64/68/140
f 64/68/140 89/93/139 90/94/141 65/69/142
f 65/69/142 90/94/141 91/95/143 66/70/144
f 66/70/144 91/95/143 92/96/145 67/71/146
f 67/71/146 92/96/145 93/97/147 68/72/148
f 68/72/148 93/97/147 94/98/149 69/73/150
f 69/73/150 94/98/149 95/99/151 70/74/152
f 70/74/152 95/99/151 96/100/153 71/75/154
f 71/75/154 96/100/153 97/101/155 72/76/156
f 72/76/156 97/101/155 98/102/157 73/77/158
f 73/77/158 98/102/157 99/103/159 74/78/160
f 74/78/160 99/103/159 100/104/161 75/79/162
s off
f 75/79/163 100/104/164 101/105/165 76/80/166
s 6
f 76/80/167 101/105/168 102/106/169 77/81/170
f 77/81/170 102/106/169 103/107/171 78/82/172
f 78/82/172 103/107/171 104/108/173 79/83/174
f 79/83/174 104/108/173 105/109/175 80/84/176
s 4
f 3/3/19 1/1/18 6/10/177 81/85/178
f 81/85/178 6/10/177 7/11/179 82/86/180
f 82/86/180 7/11/179 8/12/181 83/87/182
f 83/87/182 8/12/181 9/13/183 84/88/184
f 84/88/184 9/13/183 10/14/185 85/89/186
f 85/89/186 10/14/185 11/15/187 86/90/188
f 86/90/188 11/15/187 12/16/189 87/91/190
f 87/91/190 12/16/189 13/17/191 88/92/192
f 88/92/192 13/17/191 14/18/193 89/93/194
f 89/93/194 14/18/193 15/19/195 90/94/196
f 90/94/196 15/19/195 16/20/197 91/95/198
f 91/95/198 16/20/197 17/21/199 92/96/200
f 92/96/200 17/21/199 18/22/201 93/97/202
f 93/97/202 18/22/201 19/23/203 94/98/204
f 94/98/204 19/23/203 20/24/205 95/99/206
f 95/99/206 20/24/205 21/25/207 96/100/208
f 96/100/208 21/25/207 22/26/209 97/101/210
f 97/101/210 22/26/209 23/27/211 98/102/212
f 98/102/212 23/27/211 24/28/213 99/103/214
f 99/103/214 24/28/213 25/29/215 100/104/216
f 100/104/216 25/29/215 26/30/217 101/105/218
f 101/105/218 26/30/217 27/31/219 102/106/220
f 102/106/220 27/31/219 28/32/221 103/107/222
f 103/107/222 28/32/221 29/33/223 104/108/224
f 104/108/224 29/33/223 30/34/225 105/109/226
f 5/9/227 107/112/228 106/110/229
s 2
f 5/5/230 108/114/231 107/113/232
s 3
f 109/117/233 108/115/234 5/8/235
s 1
f 106/111/236 109/116/237 5/5/238
s 4
f 107/112/228 111/120/239 110/118/240 106/110/229
s 2
f 107/113/232 108/114/231 112/122/241 111/121/242
s 3
f 113/125/243 112/123/244 108/115/234 109/117/233
s 1
f 110/119/245 113/124/246 109/116/237 106/111/236
s 4
f 111/120/239 115/128/247 114/126/248 110/118/240
s 2
f 111/121/242 112/122/241 116/130/249 115/129/250
s 3
f 117/133/251 116/131/252 112/123/244 113/125/243
s 1
f 114/127/253 117/132/254 113/124/246 110/119/245
s 4
f 115/128/247 119/136/255 118/134/256 114/126/248
s 2
f 115/129/250 116/130/249 120/138/257 119/137/258
s 3
f 121/141/259 120/139/260 116/131/252 117/133/251
s 1
f 118/135/261 121/140/262 117/132/254 114/127/253
s 4
f 119/136/255 123/144/263 122/142/264 118/134/256
s 2
f 119/137/258 120/138/257 124/146/265 123/145/266
s 3
f 125/149/267 124/147/268 120/139/260 121/141/259
s 1
f 122/143/269 125/148/270 121/140/262 118/135/261
s 4
f 123/144/263 127/152/271 126/150/272 122/142/264
s 2
f 123/145/266 124/146/265 128/154/273 127/153/274
s 3
f 129/157/275 128/155/276 124/147/268 125/149/267
s 1
f 126/151/277 129/156/278 125/148/270 122/143/269
s 4
f 127/152/271 131/160/279 130/158/280 126/150/272
s 2
f 127/153/274 128/154/273 132/162/281 131/161/282
s 3
f 133/165/283 132/163/284 128/155/276 129/157/275
s 1
f 130/159/285 133/164/286 129/156/278 126/151/277
s 4
f 131/160/279 135/168/17 134/166/20 130/158/280
s 2
f 131/161/282 132/162/281 136/170/10 135/169/9
s 3
f 137/173/15 136/171/14 132/163/284 133/165/283
s 1
f 134/167/8 137/172/7 133/164/286 130/159/285
