# This file uses centimeters as units for non-parametric coordinates.

mtllib Chair.mtl
g default
v -1.015462 1.656550 1.015462
v 1.015462 1.656550 1.015462
v -1.015462 1.835215 1.015462
v 1.015462 1.835215 1.015462
v -1.015462 1.835215 -1.015462
v 1.015462 1.835215 -1.015462
v -1.015462 1.656550 -1.015462
v 1.015462 1.656550 -1.015462
v 0.812370 1.656550 1.015462
v 0.812370 1.835215 1.015462
v 0.812370 1.835215 -1.015462
v 0.812370 1.656550 -1.015462
v -0.832679 1.656550 1.015462
v -0.832679 1.835215 1.015462
v -0.832679 1.835215 -1.015462
v -0.832679 1.656550 -1.015462
v -1.015462 1.835215 0.812370
v -1.015462 1.656550 0.812370
v -0.832679 1.656550 0.812370
v 0.812370 1.656550 0.812370
v 1.015462 1.656550 0.812370
v 1.015462 1.835215 0.812370
v 0.812370 1.835215 0.812370
v -0.832679 1.835215 0.812370
v -1.015462 1.656550 -0.832679
v -1.015462 1.835215 -0.832679
v -0.832679 1.835215 -0.832679
v 0.812370 1.835215 -0.832679
v 1.015462 1.835215 -0.832679
v 1.015462 1.656550 -0.832679
v 0.812370 1.656550 -0.832679
v -0.832679 1.656550 -0.832679
v -1.015462 -0.043900 0.812370
v -0.832679 -0.043900 0.812370
v -0.832679 -0.043900 1.015462
v -1.015462 -0.043900 1.015462
v 0.812370 -0.043900 0.812370
v 0.812370 -0.043900 1.015462
v 1.015462 -0.043900 0.812370
v 1.015462 -0.043900 1.015462
v -1.015462 -0.043900 -1.015462
v -0.832679 -0.043900 -1.015462
v -0.832679 -0.043900 -0.832679
v -1.015462 -0.043900 -0.832679
v 1.015462 -0.043900 -0.832676
v 0.812370 -0.043900 -0.832676
v 0.812370 -0.043900 -1.015459
v 1.015462 -0.043900 -1.015459
v -1.015462 3.933861 -1.057679
v -1.015462 3.933861 -1.240462
v -0.832679 3.933861 -1.240462
v -0.832679 3.933861 -1.057679
v 0.821615 3.933861 -1.240462
v 0.821615 3.933861 -1.057679
v 0.577363 1.835215 -1.015462
v 0.577363 1.656550 -1.015462
v 0.577363 1.656550 -0.832679
v 0.577363 1.656550 0.812370
v 0.577363 1.656550 1.015462
v 0.577363 1.835215 1.015462
v 0.577363 1.835215 0.812370
v 0.577363 1.835215 -0.832679
v 0.342356 1.835215 -1.015462
v 0.342356 1.656550 -1.015462
v 0.342356 1.656550 -0.832679
v 0.342356 1.656550 0.812370
v 0.342356 1.656550 1.015462
v 0.342356 1.835215 1.015462
v 0.342356 1.835215 0.812370
v 0.342356 1.835215 -0.832679
v 0.107349 1.835215 -1.015462
v 0.107349 1.656550 -1.015462
v 0.107349 1.656550 -0.832679
v 0.107349 1.656550 0.812370
v 0.107349 1.656550 1.015462
v 0.107349 1.835215 1.015462
v 0.107349 1.835215 0.812370
v 0.107349 1.835215 -0.832679
v -0.127658 1.835215 -1.015462
v -0.127658 1.656550 -1.015462
v -0.127658 1.656550 -0.832679
v -0.127658 1.656550 0.812370
v -0.127658 1.656550 1.015462
v -0.127658 1.835215 1.015462
v -0.127658 1.835215 0.812370
v -0.127658 1.835215 -0.832679
v -0.362665 1.835215 -1.015462
v -0.362665 1.656550 -1.015462
v -0.362665 1.656550 -0.832679
v -0.362665 1.656550 0.812370
v -0.362665 1.656550 1.015462
v -0.362665 1.835215 1.015462
v -0.362665 1.835215 0.812370
v -0.362665 1.835215 -0.832679
v -0.597672 1.835215 -1.015462
v -0.597672 1.656550 -1.015462
v -0.597672 1.656550 -0.832679
v -0.597672 1.656550 0.812370
v -0.597672 1.656550 1.015462
v -0.597672 1.835215 1.015462
v -0.597672 1.835215 0.812370
v -0.597672 1.835215 -0.832679
v 0.342356 4.001053 -1.057130
v 0.342356 4.001053 -1.239913
v 0.577363 4.001053 -1.057130
v 0.577363 4.001053 -1.239913
v -0.127658 4.001053 -1.057127
v -0.127658 4.001053 -1.239910
v 0.107349 4.001053 -1.057127
v 0.107349 4.001053 -1.239910
v -0.597672 4.001053 -1.057130
v -0.597672 4.001053 -1.239913
v -0.362665 4.001053 -1.057130
v -0.362665 4.001053 -1.239913
v -0.722002 1.993340 -0.722002
v -0.800262 1.960923 -0.800262
v -0.832679 1.882663 -0.832679
v -0.597672 1.882663 -0.832679
v -0.597672 1.960923 -0.800262
v -0.597672 1.993340 -0.722002
v -0.722002 1.993340 0.701693
v -0.800262 1.960923 0.779953
v -0.832679 1.882663 0.812370
v -0.597672 1.993340 0.701693
v -0.597672 1.960923 0.779953
v -0.597672 1.882663 0.812370
v 0.577363 1.993340 -0.722002
v 0.577363 1.960923 -0.800262
v 0.577363 1.882663 -0.832679
v 0.812370 1.882663 -0.832679
v 0.779953 1.960923 -0.800262
v 0.701693 1.993340 -0.722002
v 0.577363 1.882663 0.812370
v 0.577363 1.960923 0.779953
v 0.577363 1.993340 0.701693
v 0.701693 1.993340 0.701693
v 0.779953 1.960923 0.779953
v 0.812370 1.882663 0.812370
v 0.342356 1.993340 -0.722002
v 0.342356 1.960923 -0.800262
v 0.342356 1.882663 -0.832679
v 0.342356 1.882663 0.812370
v 0.342356 1.960923 0.779953
v 0.342356 1.993340 0.701693
v 0.107349 1.993340 -0.722002
v 0.107349 1.960923 -0.800262
v 0.107349 1.882663 -0.832679
v 0.107349 1.882663 0.812370
v 0.107349 1.960923 0.779953
v 0.107349 1.993340 0.701693
v -0.127658 1.993340 -0.722002
v -0.127658 1.960923 -0.800262
v -0.127658 1.882663 -0.832679
v -0.127658 1.882663 0.812370
v -0.127658 1.960923 0.779953
v -0.127658 1.993340 0.701693
v -0.362665 1.993340 -0.722002
v -0.362665 1.960923 -0.800262
v -0.362665 1.882663 -0.832679
v -0.362665 1.882663 0.812370
v -0.362665 1.960923 0.779953
v -0.362665 1.993340 0.701693
v 0.812370 4.145976 -1.101612
v 0.812370 4.167044 -1.156580
v 0.812370 4.093567 -1.074805
v 0.937503 4.167044 -1.160641
v 0.992995 4.145287 -1.102817
v 1.015462 4.091548 -1.074589
v 0.933218 4.167044 -1.183222
v 0.990953 4.143310 -1.238412
v 1.015462 4.087399 -1.256927
v 0.812370 4.142535 -1.238190
v 0.812370 4.085268 -1.256698
v 0.812370 4.167044 -1.183222
v -0.941564 4.167044 -1.156577
v -0.994160 4.145281 -1.101648
v -1.015462 4.091548 -1.074585
v -0.832679 4.167044 -1.156577
v -0.832679 4.145976 -1.101609
v -0.832679 4.093567 -1.074801
v -0.832679 4.085268 -1.256695
v -0.832679 4.142535 -1.238186
v -0.832679 4.167044 -1.183218
v -0.937503 4.167044 -1.187504
v -0.992238 4.143317 -1.239695
v -1.015462 4.087399 -1.256923
v 0.821615 4.167044 -1.183218
v 0.821615 4.085268 -1.256695
v 0.821615 4.142535 -1.238186
v 0.821615 4.093567 -1.074801
v 0.821615 4.167044 -1.156577
v 0.821615 4.145976 -1.101609
vt 0.375000 0.000000
vt 0.625000 0.000000
vt 0.375000 0.250000
vt 0.625000 0.250000
vt 0.375000 0.500000
vt 0.375000 0.750000
vt 0.625000 0.750000
vt 0.375000 1.000000
vt 0.625000 1.000000
vt 0.875000 0.000000
vt 0.875000 0.250000
vt 0.125000 0.000000
vt 0.125000 0.250000
vt 0.600000 0.000000
vt 0.600000 1.000000
vt 0.600000 0.250000
vt 0.600000 0.500000
vt 0.600000 0.750000
vt 0.397500 0.000000
vt 0.397500 1.000000
vt 0.397500 0.250000
vt 0.397500 0.500000
vt 0.397500 0.750000
vt 0.350000 0.250000
vt 0.375000 0.275000
vt 0.350000 0.000000
vt 0.375000 0.975000
vt 0.397500 0.975000
vt 0.600000 0.975000
vt 0.625000 0.975000
vt 0.650000 0.000000
vt 0.625000 0.275000
vt 0.650000 0.250000
vt 0.147500 0.000000
vt 0.375000 0.772500
vt 0.147500 0.250000
vt 0.375000 0.477500
vt 0.852500 0.250000
vt 0.625000 0.772500
vt 0.852500 0.000000
vt 0.600000 0.772500
vt 0.397500 0.772500
vt 0.375000 0.975000
vt 0.397500 0.975000
vt 0.397500 1.000000
vt 0.375000 1.000000
vt 0.600000 1.000000
vt 0.600000 0.975000
vt 0.625000 0.975000
vt 0.625000 1.000000
vt 0.375000 0.750000
vt 0.397500 0.750000
vt 0.397500 0.772500
vt 0.375000 0.772500
vt 0.625000 0.772500
vt 0.600000 0.772500
vt 0.600000 0.750000
vt 0.625000 0.750000
vt 0.571071 0.500000
vt 0.571071 0.750000
vt 0.571071 0.772500
vt 0.571071 0.975000
vt 0.571071 0.000000
vt 0.571071 1.000000
vt 0.571071 0.250000
vt 0.542143 0.500000
vt 0.542143 0.750000
vt 0.542143 0.772500
vt 0.542143 0.975000
vt 0.542143 0.000000
vt 0.542143 1.000000
vt 0.542143 0.250000
vt 0.513214 0.500000
vt 0.513214 0.750000
vt 0.513214 0.772500
vt 0.513214 0.975000
vt 0.513214 0.000000
vt 0.513214 1.000000
vt 0.513214 0.250000
vt 0.484286 0.500000
vt 0.484286 0.750000
vt 0.484286 0.772500
vt 0.484286 0.975000
vt 0.484286 0.000000
vt 0.484286 1.000000
vt 0.484286 0.250000
vt 0.455357 0.500000
vt 0.455357 0.750000
vt 0.455357 0.772500
vt 0.455357 0.975000
vt 0.455357 0.000000
vt 0.455357 1.000000
vt 0.455357 0.250000
vt 0.426429 0.500000
vt 0.426429 0.750000
vt 0.426429 0.772500
vt 0.426429 0.975000
vt 0.426429 0.000000
vt 0.426429 1.000000
vt 0.426429 0.250000
vt 0.542143 0.500000
vt 0.542143 0.477500
vt 0.571071 0.477500
vt 0.571071 0.500000
vt 0.484286 0.500000
vt 0.484286 0.477500
vt 0.513214 0.477500
vt 0.513214 0.500000
vt 0.426429 0.500000
vt 0.426429 0.477500
vt 0.455357 0.477500
vt 0.455357 0.500000
vt 0.411124 0.463876
vt 0.586376 0.288624
vt 0.411124 0.288624
vt 0.426429 0.288624
vt 0.571071 0.463876
vt 0.542143 0.463876
vt 0.571071 0.288624
vt 0.513214 0.463876
vt 0.542143 0.288624
vt 0.484286 0.463876
vt 0.513214 0.288624
vt 0.455357 0.463876
vt 0.484286 0.288624
vt 0.426429 0.463876
vt 0.455357 0.288624
vt 0.397500 0.477500
vt 0.426429 0.477500
vt 0.397500 0.275000
vt 0.397500 0.477500
vt 0.426429 0.275000
vt 0.397500 0.275000
vt 0.571071 0.477500
vt 0.600000 0.477500
vt 0.600000 0.275000
vt 0.571071 0.275000
vt 0.600000 0.477500
vt 0.600000 0.275000
vt 0.542143 0.477500
vt 0.571071 0.477500
vt 0.571071 0.275000
vt 0.542143 0.275000
vt 0.513214 0.477500
vt 0.542143 0.477500
vt 0.542143 0.275000
vt 0.513214 0.275000
vt 0.484286 0.477500
vt 0.513214 0.477500
vt 0.513214 0.275000
vt 0.484286 0.275000
vt 0.455357 0.477500
vt 0.484286 0.477500
vt 0.484286 0.275000
vt 0.455357 0.275000
vt 0.426429 0.477500
vt 0.455357 0.477500
vt 0.455357 0.275000
vt 0.426429 0.275000
vt 0.586376 0.463876
vt 0.397500 0.477500
vt 0.426429 0.477500
vt 0.397500 0.275000
vt 0.426429 0.275000
vt 0.571071 0.477500
vt 0.600000 0.477500
vt 0.571071 0.275000
vt 0.600000 0.275000
vt 0.542143 0.477500
vt 0.542143 0.275000
vt 0.513214 0.477500
vt 0.513214 0.275000
vt 0.484286 0.477500
vt 0.484286 0.275000
vt 0.455357 0.477500
vt 0.455357 0.275000
vt 0.600000 0.477500
vt 0.384596 0.490404
vt 0.614876 0.489876
vt 0.600000 0.486597
vt 0.615404 0.487096
vt 0.397500 0.486597
vt 0.625000 0.477500
vt 0.625000 0.500000
vt 0.625000 0.477500
vt 0.625000 0.500000
vt 0.375000 0.477500
vt 0.375000 0.500000
vt 0.375000 0.500000
vt 0.397500 0.500000
vt 0.397500 0.477500
vt 0.375000 0.477500
vt 0.397500 0.500000
vt 0.397500 0.489876
vt 0.397500 0.477500
vt 0.397500 0.477500
vt 0.397500 0.500000
vt 0.600000 0.489876
vt 0.600000 0.500000
vt 0.397500 0.486597
vt 0.397500 0.477500
vt 0.397500 0.500000
vt 0.397500 0.489876
vt 0.384097 0.486597
vt 0.600000 0.477500
vt 0.625000 0.477500
vt 0.625000 0.500000
vt 0.600000 0.500000
vt 0.375000 0.477500
vt 0.397500 0.477500
vt 0.397500 0.500000
vt 0.375000 0.500000
vt 0.397500 0.500000
vt 0.397500 0.477500
vn 0.000000 0.000000 1.000000
vn 0.000000 0.000000 1.000000
vn 0.000000 0.000000 1.000000
vn 0.000000 0.000000 1.000000
vn 0.000000 1.000000 0.000000
vn 0.000000 1.000000 0.000000
vn 0.000000 1.000000 0.000000
vn 0.000000 1.000000 0.000000
vn 0.000000 -0.098322 -0.995155
vn 0.000000 -0.089389 -0.995997
vn 0.000000 0.000000 -1.000000
vn 0.000000 0.000000 -1.000000
vn 0.000000 -1.000000 0.000000
vn 0.000000 -1.000000 0.000000
vn 0.000000 -1.000000 0.000000
vn 0.000000 -1.000000 0.000000
vn 1.000000 0.000000 0.000000
vn 1.000000 0.000000 0.000000
vn 1.000000 0.000000 0.000000
vn 1.000000 0.000000 0.000000
vn -1.000000 0.000000 0.000000
vn -1.000000 0.000000 0.000000
vn -1.000000 0.000000 0.000000
vn -1.000000 0.000000 0.000000
vn 0.000000 0.000000 1.000000
vn 0.000000 0.000000 1.000000
vn 0.000000 0.000000 1.000000
vn 0.000000 0.000000 1.000000
vn 0.000000 1.000000 -0.000000
vn 0.000000 1.000000 -0.000000
vn 0.000000 1.000000 -0.000000
vn 0.000000 1.000000 -0.000001
vn 0.000000 -0.000001 -1.000000
vn 0.000000 -0.091160 -0.995836
vn 0.000000 -0.098844 -0.995103
vn 0.000000 -0.000001 -1.000000
vn 0.000000 -1.000000 0.000000
vn 0.000000 -1.000000 0.000000
vn 0.000000 -1.000000 0.000000
vn 0.000000 -1.000000 0.000000
vn 0.000000 0.000000 1.000000
vn 0.000000 0.000000 1.000000
vn 0.000000 1.000000 0.000000
vn 0.000000 1.000000 0.000000
vn 0.000000 -0.088606 -0.996067
vn 0.000000 0.000000 -1.000000
vn 0.000000 -1.000000 0.000000
vn 0.000000 -1.000000 0.000000
vn 0.000000 -1.000000 0.000000
vn 0.000000 -1.000000 0.000000
vn -1.000000 0.000000 0.000000
vn -1.000000 0.000000 0.000000
vn -1.000000 0.000000 0.000000
vn -1.000000 0.000000 0.000000
vn 0.000000 -1.000000 0.000000
vn 0.000000 -1.000000 0.000000
vn 0.000000 -1.000000 0.000000
vn 0.000000 -1.000000 0.000000
vn 0.000000 -1.000000 0.000000
vn 0.000000 -1.000000 0.000000
vn 0.000000 -1.000000 0.000000
vn 0.000000 -1.000000 0.000000
vn 0.000000 -1.000000 0.000000
vn 0.000000 -1.000000 0.000000
vn 0.000000 -1.000000 0.000000
vn 0.000000 -1.000000 0.000000
vn 1.000000 0.000000 0.000000
vn 1.000000 -0.000000 0.000000
vn 1.000000 -0.000000 0.000000
vn 1.000000 0.000000 0.000000
vn 0.000000 1.000000 0.000000
vn 0.000000 1.000000 0.000000
vn 0.000000 1.000000 0.000000
vn 0.000000 1.000000 0.000000
vn 0.000000 1.000000 0.000000
vn 0.000000 1.000000 0.000000
vn 0.000000 1.000000 0.000000
vn 0.000000 1.000000 0.000000
vn 0.000000 -1.000000 0.000000
vn 0.000000 -1.000000 -0.000000
vn 0.000000 -1.000000 0.000000
vn 0.000000 -1.000000 0.000000
vn 0.000000 -1.000000 0.000000
vn 0.000000 -1.000000 0.000000
vn 0.000000 0.000000 -1.000000
vn 0.000000 0.000000 -1.000000
vn 0.000000 0.000000 -1.000000
vn 0.000000 0.000000 -1.000000
vn 1.000000 0.000000 0.000000
vn 1.000000 0.000000 0.000000
vn 1.000000 0.000000 0.000000
vn 1.000000 0.000000 0.000000
vn 0.000000 0.000000 1.000000
vn 0.000000 0.000000 1.000000
vn -1.000000 0.000000 0.000000
vn -1.000000 0.000000 0.000000
vn -1.000000 0.000000 0.000000
vn -1.000000 0.000000 0.000000
vn -1.000000 0.000000 0.000000
vn -1.000000 0.000000 0.000000
vn 0.000000 0.000000 -1.000000
vn 0.000000 0.000000 -1.000000
vn 0.000000 0.000000 -1.000000
vn 0.000000 0.000000 -1.000000
vn 1.000000 0.000000 0.000000
vn 1.000000 0.000000 0.000000
vn 0.000000 0.000000 1.000000
vn 0.000000 0.000000 1.000000
vn 0.000000 0.000000 -1.000000
vn 0.000000 0.000000 -1.000000
vn 1.000000 0.000000 0.000000
vn 1.000000 0.000000 0.000000
vn 1.000000 0.000000 0.000000
vn 1.000000 0.000000 0.000000
vn 0.000000 0.000000 1.000000
vn 0.000000 0.000000 1.000000
vn 0.000000 0.000000 1.000000
vn 0.000000 0.000000 1.000000
vn -1.000000 0.000000 0.000000
vn -1.000000 0.000000 0.000000
vn 0.000000 0.000002 1.000000
vn 0.000000 0.000002 1.000000
vn 0.000000 0.000002 1.000000
vn 0.000000 0.000002 1.000000
vn -1.000000 -0.000000 -0.000000
vn -1.000000 -0.000000 -0.000000
vn -1.000000 -0.000000 -0.000000
vn -1.000000 -0.000000 -0.000000
vn 0.000000 -0.000002 -1.000000
vn 0.000000 -0.000002 -1.000000
vn 1.000000 -0.000000 0.000000
vn 1.000000 -0.000000 0.000000
vn 0.000000 0.106601 0.994302
vn 0.000000 0.106601 0.994302
vn 0.000000 0.106601 0.994302
vn 0.000000 0.106601 0.994302
vn 1.000000 0.000000 0.000000
vn 1.000000 0.000000 0.000000
vn 1.000000 0.000000 0.000000
vn 1.000000 0.000000 0.000000
vn 0.000000 -0.106601 -0.994302
vn 0.000000 -0.106601 -0.994302
vn -1.000000 0.000000 0.000000
vn -1.000000 0.000000 0.000000
vn 0.000000 -1.000000 0.000000
vn 0.000000 -1.000000 0.000000
vn 0.000000 -1.000000 0.000000
vn 0.000000 -1.000000 0.000000
vn 0.000000 0.000000 -1.000000
vn 0.000000 -0.088606 -0.996067
vn 0.000000 -1.000000 -0.000000
vn 0.000000 -1.000000 0.000000
vn 0.000000 -1.000000 0.000000
vn 0.000000 -1.000000 -0.000000
vn 0.000000 -1.000000 0.000000
vn 0.000000 -1.000000 0.000000
vn 0.000000 0.000000 1.000000
vn 0.000000 0.000000 1.000000
vn 0.000000 1.000000 -0.000000
vn 0.000000 1.000000 -0.000000
vn 0.000000 1.000000 0.000000
vn 0.000000 1.000000 0.000000
vn 0.000000 1.000000 0.000000
vn 0.000000 1.000000 0.000000
vn 0.000000 0.000000 -1.000000
vn 0.000000 -0.088606 -0.996067
vn 0.000000 -1.000000 -0.000000
vn 0.000000 -1.000000 0.000000
vn 0.000000 -1.000000 -0.000000
vn 0.000000 -1.000000 0.000000
vn 0.000000 0.000000 1.000000
vn 0.000000 0.000000 1.000000
vn 0.000000 1.000000 -0.000000
vn 0.000000 1.000000 -0.000000
vn 0.000000 1.000000 0.000000
vn 0.000000 1.000000 0.000000
vn 0.000000 1.000000 0.000000
vn 0.000000 1.000000 0.000000
vn 0.000000 0.000000 -1.000000
vn 0.000000 -0.088605 -0.996067
vn 0.000000 -1.000000 -0.000000
vn 0.000000 -1.000000 -0.000000
vn 0.000000 -1.000000 0.000000
vn 0.000000 -1.000000 0.000000
vn 0.000000 0.000000 1.000000
vn 0.000000 0.000000 1.000000
vn 0.000000 1.000000 -0.000000
vn 0.000000 1.000000 -0.000000
vn 0.000000 1.000000 0.000000
vn 0.000000 1.000000 0.000000
vn 0.000000 1.000000 0.000000
vn 0.000000 1.000000 0.000000
vn 0.000000 0.000000 -1.000000
vn 0.000000 -0.088605 -0.996067
vn 0.000000 -1.000000 -0.000000
vn 0.000000 -1.000000 -0.000000
vn 0.000000 -1.000000 0.000000
vn 0.000000 -1.000000 0.000000
vn 0.000000 0.000000 1.000000
vn 0.000000 0.000000 1.000000
vn 0.000000 1.000000 -0.000000
vn 0.000000 1.000000 -0.000000
vn 0.000000 1.000000 0.000000
vn 0.000000 1.000000 0.000000
vn 0.000000 1.000000 0.000000
vn 0.000000 1.000000 0.000000
vn 0.000000 0.000000 -1.000000
vn 0.000000 -0.088606 -0.996067
vn 0.000000 -1.000000 -0.000000
vn 0.000000 -1.000000 -0.000000
vn 0.000000 -1.000000 0.000000
vn 0.000000 -1.000000 0.000000
vn 0.000000 0.000000 1.000000
vn 0.000000 0.000000 1.000000
vn 0.000000 1.000000 -0.000000
vn 0.000000 1.000000 -0.000000
vn 0.000000 1.000000 0.000000
vn 0.000000 1.000000 0.000000
vn 0.000000 1.000000 0.000000
vn 0.000000 1.000000 0.000000
vn 0.000000 1.000000 0.000000
vn 0.000000 1.000000 0.000000
vn 0.000000 1.000000 0.000000
vn 0.000000 1.000000 0.000000
vn -1.000000 -0.000000 -0.000000
vn -1.000000 -0.000000 -0.000000
vn -1.000000 -0.000000 -0.000000
vn -1.000000 -0.000000 -0.000000
vn 0.000000 0.103080 0.994673
vn 0.000000 0.103080 0.994673
vn 0.000000 0.103080 0.994673
vn 0.000000 0.103080 0.994673
vn 1.000000 0.000000 0.000000
vn 1.000000 0.000000 0.000000
vn 1.000000 0.000000 0.000000
vn 1.000000 0.000000 0.000000
vn 0.000000 -0.103080 -0.994673
vn 0.000000 -0.103080 -0.994673
vn -1.000000 -0.000000 -0.000000
vn -1.000000 -0.000000 -0.000000
vn -1.000000 -0.000000 -0.000000
vn -1.000000 -0.000000 -0.000000
vn 0.000000 0.103079 0.994673
vn 0.000000 0.103079 0.994673
vn 0.000000 0.103079 0.994673
vn 0.000000 0.103079 0.994673
vn 1.000000 0.000000 0.000000
vn 1.000000 0.000000 0.000000
vn 1.000000 0.000000 0.000000
vn 1.000000 0.000000 0.000000
vn 0.000000 -0.103079 -0.994673
vn 0.000000 -0.103079 -0.994673
vn -1.000000 0.000000 0.000000
vn -1.000000 0.000000 0.000000
vn -1.000000 0.000000 0.000000
vn -1.000000 0.000000 0.000000
vn 0.000000 0.103080 0.994673
vn 0.000000 0.103080 0.994673
vn 0.000000 0.103080 0.994673
vn 0.000000 0.103080 0.994673
vn 1.000000 0.000000 0.000000
vn 1.000000 0.000000 0.000000
vn 1.000000 0.000000 0.000000
vn 1.000000 0.000000 0.000000
vn 0.000000 -0.103080 -0.994673
vn 0.000000 -0.103080 -0.994673
vn 0.000000 0.218639 -0.975806
vn 0.000000 0.382684 -0.923879
vn 0.000000 0.382684 -0.923880
vn 0.000000 0.246583 -0.969122
vn 0.000000 0.923879 -0.382685
vn -0.190859 0.981398 -0.020771
vn 0.000000 0.999717 -0.023791
vn 0.000000 0.923879 -0.382685
vn 0.000000 0.246583 -0.969122
vn 0.000000 0.382684 -0.923879
vn 0.000000 0.382684 -0.923879
vn 0.000000 0.218639 -0.975806
vn 0.000000 0.923879 -0.382685
vn 0.000000 0.999717 -0.023791
vn 0.190859 0.981398 -0.020771
vn 0.000000 0.923879 -0.382684
vn 0.000000 0.999717 0.023791
vn 0.000000 0.923879 0.382686
vn 0.000000 0.923879 0.382685
vn 0.190859 0.981398 0.020771
vn 0.000000 0.382684 0.923879
vn 0.000000 0.246583 0.969122
vn 0.000000 0.218639 0.975806
vn 0.000000 0.382684 0.923879
vn -0.190859 0.981398 0.020771
vn 0.000000 0.999717 0.023791
vn 0.000000 0.999767 -0.021578
vn 0.000000 0.999767 0.021578
vn 0.000000 0.999767 -0.021578
vn 0.000000 0.999767 0.021578
vn 0.000000 0.999767 -0.021578
vn 0.000000 0.999767 0.021578
vn 0.000000 0.999767 -0.021578
vn 0.000000 0.999767 0.021578
vn 0.000000 0.000000 -1.000000
vn 0.000000 0.000000 -1.000000
vn -1.000000 0.000000 0.000000
vn -1.000000 0.000000 0.000000
vn -0.974693 0.223548 0.000000
vn -0.974693 0.223548 0.000000
vn 0.000000 0.000000 1.000000
vn 0.000000 0.000000 1.000000
vn 0.000000 0.246583 0.969122
vn 0.000000 0.218639 0.975806
vn 0.000000 0.000000 -1.000000
vn 0.000000 0.000000 -1.000000
vn 0.000000 0.000000 1.000000
vn 0.000000 0.000000 1.000000
vn 1.000000 0.000000 0.000000
vn 1.000000 0.000000 0.000000
vn 0.974693 0.223548 0.000000
vn 0.974693 0.223548 0.000000
vn 0.000000 0.000000 -1.000000
vn 0.000000 0.249701 -0.968323
vn 0.000000 0.000000 1.000000
vn 0.000000 0.249701 0.968323
vn 0.000000 0.000000 -1.000000
vn 0.000000 0.249701 -0.968323
vn 0.000000 0.000000 1.000000
vn 0.000000 0.249701 0.968323
vn 0.000000 0.000000 -1.000000
vn 0.000000 0.249701 -0.968323
vn 0.000000 0.000000 1.000000
vn 0.000000 0.249701 0.968323
vn 0.000000 0.000000 -1.000000
vn 0.000000 0.249701 -0.968323
vn 0.000000 0.000000 1.000000
vn 0.000000 0.249701 0.968323
vn -0.382684 0.923879 0.000000
vn -0.382685 0.923879 0.000000
vn -0.923879 0.382684 0.000000
vn -0.923879 0.382684 0.000000
vn 0.000000 0.923879 0.382686
vn 0.000000 0.923879 0.382686
vn 0.000000 0.382684 0.923879
vn 0.000000 0.382684 0.923880
vn 0.000000 0.923879 -0.382685
vn 0.000000 0.382684 -0.923880
vn 0.000000 0.382684 0.923880
vn 0.000000 0.923879 0.382686
vn 0.923879 0.382684 0.000000
vn 0.923879 0.382684 0.000000
vn 0.382686 0.923879 0.000000
vn 0.382686 0.923879 0.000000
vn 0.000000 0.923879 -0.382685
vn 0.000000 0.382684 -0.923880
vn 0.000000 0.382684 0.923880
vn 0.000000 0.923879 0.382686
vn 0.000000 0.923879 -0.382685
vn 0.000000 0.382684 -0.923880
vn 0.000000 0.382684 0.923880
vn 0.000000 0.923879 0.382686
vn 0.000000 0.923879 -0.382685
vn 0.000000 0.382684 -0.923880
vn 0.000000 0.382684 0.923880
vn 0.000000 0.923879 0.382686
vn 0.006288 0.962644 0.270696
vn 0.008163 0.936177 0.351434
vn 0.008163 0.936177 0.351434
vn 0.129361 0.972143 0.195460
vn 0.005541 0.461208 0.887275
vn 0.000137 0.115496 0.993308
vn 0.000104 0.113349 0.993555
vn 0.005541 0.461208 0.887275
vn 0.000585 0.957524 -0.288355
vn 0.000850 0.913062 -0.407820
vn 0.011794 0.909547 -0.415434
vn -0.120813 0.963331 -0.239579
vn 0.000686 0.306807 -0.951771
vn 0.000195 0.009877 -0.999951
vn 0.001641 -0.017934 -0.999838
vn 0.007390 0.299701 -0.954005
vn 0.106283 0.963185 -0.246938
vn -0.002027 0.952059 -0.305908
vn -0.142026 0.971728 0.188607
vn -0.000130 0.967978 0.251035
vn 0.000001 0.106603 0.994302
vn 0.000001 0.106603 0.994302
vn 0.999972 0.007508 -0.000258
vn 0.999981 0.006147 -0.000211
vn -0.000083 -0.096860 -0.995298
vn -0.000064 -0.099064 -0.995081
vn -0.997427 0.071647 -0.002429
vn -0.996424 0.084443 -0.002862
vn -0.000081 0.202529 0.979276
vn -0.000670 0.182374 0.983229
vn 0.000000 0.010905 -0.999941
vn 0.000000 -0.106601 -0.994302
vn 0.000000 0.968257 0.249956
vn 0.000000 0.957743 -0.287625
vn 0.000000 0.106602 0.994302
vn 0.000000 0.202800 0.979220
vn -1.000000 -0.000000 -0.000000
vn -1.000000 -0.000000 -0.000000
vn -1.000000 -0.000000 -0.000000
vn -1.000000 -0.000000 -0.000000
vn -1.000000 -0.000000 -0.000000
vn -1.000000 -0.000000 -0.000000
vn -1.000000 -0.000000 -0.000000
vn -1.000000 -0.000000 -0.000000
vn 1.000000 0.000000 0.000000
vn 1.000000 0.000000 0.000000
vn 1.000000 0.000000 0.000000
vn 1.000000 0.000000 0.000000
vn 1.000000 0.000000 0.000000
vn 1.000000 0.000000 0.000000
vn 1.000000 0.000000 0.000000
vn 1.000000 0.000000 0.000000
vn 0.373207 0.927369 -0.026520
vn 0.373207 0.927369 -0.026520
vn 0.919544 0.392757 -0.013475
vn 0.919544 0.392757 -0.013475
vn -0.002666 0.915491 -0.402329
vn -0.002666 0.915491 -0.402329
vn -0.003483 0.310227 -0.950656
vn -0.003483 0.310227 -0.950656
vn -0.002450 0.932133 0.362109
vn -0.000185 0.933643 0.358204
vn -0.003114 0.453075 0.891467
vn -0.000295 0.455166 0.890407
vn 0.000000 0.933766 0.357884
vn 0.000000 0.455385 0.890295
vn 0.000000 0.307532 -0.951538
vn 0.000000 0.913328 -0.407226
vn -0.926847 0.375225 -0.012719
vn -0.926847 0.375225 -0.012719
vn -0.390638 0.920218 -0.024523
vn -0.390638 0.920218 -0.024523
s 1
g pCube1
usemtl standardSurface2SG
f 1/1/1 13/19/2 14/21/3 3/3/4
s 2
f 3/3/5 14/21/6 24/130/7 17/25/8
s 3
f 5/5/9 15/22/10 16/23/11 7/6/12
s off
f 33/43/13 34/44/14 35/45/15 36/46/16
s 4
f 2/2/17 21/31/18 22/33/19 4/4/20
s 5
f 17/24/21 18/26/22 1/1/23 3/3/24
s 1
f 10/16/25 9/14/26 2/2/27 4/4/28
s 2
f 22/32/29 23/136/30 10/16/31 4/4/32
s 3
f 12/18/33 11/17/34 6/184/35 8/7/36
s off
f 38/47/37 37/48/38 39/49/39 40/50/40
s 1
f 14/21/3 13/19/2 99/98/41 100/100/42
s 2
f 101/132/43 24/130/7 14/21/6 100/100/44
s 3
f 16/23/11 15/22/10 95/94/45 96/95/46
s 9
f 13/20/47 19/28/48 98/97/49 99/99/50
s 5
f 7/12/51 25/34/52 26/36/53 5/13/54
s off
f 41/51/55 42/52/56 43/53/57 44/54/58
s 9
f 97/96/59 32/42/60 16/23/61 96/95/62
s off
f 45/55/63 46/56/64 47/57/65 48/58/66
s 4
f 29/38/67 30/40/68 8/10/69 6/11/70
s off
f 15/22/71 27/128/72 102/156/73 95/94/74
s 5
f 26/36/53 25/34/52 18/26/22 17/24/21
s 2
f 17/25/8 24/130/7 27/128/75 26/37/76
f 29/183/77 28/138/78 23/136/30 22/32/29
s 4
f 22/33/19 21/31/18 30/40/68 29/38/67
s 9
f 21/30/79 20/29/80 31/41/81 30/39/82
f 98/97/49 19/28/48 32/42/60 97/96/59
f 25/35/83 32/42/60 19/28/48 18/27/84
s off
f 18/27/85 19/28/86 34/44/87 33/43/88
f 19/28/89 13/20/90 35/45/91 34/44/92
s 1
f 13/20/2 1/8/1 36/46/93 35/45/94
s 5
f 1/8/23 18/27/22 33/43/95 36/46/96
s off
f 9/15/97 20/29/98 37/48/99 38/47/100
f 20/29/101 21/30/102 39/49/103 37/48/104
s 4
f 21/30/18 2/9/17 40/50/105 39/49/106
s 1
f 2/9/27 9/15/26 38/47/107 40/50/108
s 3
f 7/6/12 16/23/11 42/52/109 41/51/110
s off
f 16/23/111 32/42/112 43/53/113 42/52/114
f 32/42/115 25/35/116 44/54/117 43/53/118
s 5
f 25/35/52 7/6/51 41/51/119 44/54/120
s off
f 30/39/121 31/41/122 46/56/123 45/55/124
f 31/41/125 12/18/126 47/57/127 46/56/128
s 3
f 12/18/33 8/7/36 48/58/129 47/57/130
s 4
f 8/7/69 30/39/68 45/55/131 48/58/132
s 12
f 26/37/133 27/128/134 52/191/135 49/187/136
s off
f 27/128/137 15/22/138 51/193/139 52/191/140
s 3
f 15/22/10 5/5/9 50/189/141 51/193/142
s 5
f 5/5/54 26/37/53 49/187/143 50/189/144
s off
f 52/191/145 51/193/146 53/197/147 54/196/148
s 3
f 56/60/149 55/59/150 11/17/34 12/18/33
s 9
f 31/41/81 57/61/151 56/60/152 12/18/153
f 20/29/80 58/62/154 57/61/151 31/41/81
f 59/64/155 58/62/154 20/29/80 9/15/156
s 1
f 60/65/157 59/63/158 9/14/26 10/16/25
s 2
f 23/136/30 61/142/159 60/65/160 10/16/31
s off
f 55/59/161 62/134/162 28/138/163 11/17/164
s 3
f 64/67/165 63/66/166 55/59/150 56/60/149
s 9
f 57/61/151 65/68/167 64/67/168 56/60/152
f 58/62/154 66/69/169 65/68/167 57/61/151
f 67/71/170 66/69/169 58/62/154 59/64/155
s 1
f 68/72/171 67/70/172 59/63/158 60/65/157
s 2
f 61/142/159 69/146/173 68/72/174 60/65/160
s off
f 104/101/175 103/102/176 105/103/177 106/104/178
s 3
f 72/74/179 71/73/180 63/66/166 64/67/165
s 9
f 65/68/167 73/75/181 72/74/182 64/67/168
f 66/69/169 74/76/183 73/75/181 65/68/167
f 75/78/184 74/76/183 66/69/169 67/71/170
s 1
f 76/79/185 75/77/186 67/70/172 68/72/171
s 2
f 69/146/173 77/150/187 76/79/188 68/72/174
s off
f 71/73/189 78/144/190 70/140/191 63/66/192
s 3
f 80/81/193 79/80/194 71/73/180 72/74/179
s 9
f 73/75/181 81/82/195 80/81/196 72/74/182
f 74/76/183 82/83/197 81/82/195 73/75/181
f 83/85/198 82/83/197 74/76/183 75/78/184
s 1
f 84/86/199 83/84/200 75/77/186 76/79/185
s 2
f 77/150/187 85/154/201 84/86/202 76/79/188
s off
f 108/105/203 107/106/204 109/107/205 110/108/206
s 3
f 88/88/207 87/87/208 79/80/194 80/81/193
s 9
f 81/82/195 89/89/209 88/88/210 80/81/196
f 82/83/197 90/90/211 89/89/209 81/82/195
f 91/92/212 90/90/211 82/83/197 83/85/198
s 1
f 92/93/213 91/91/214 83/84/200 84/86/199
s 2
f 85/154/201 93/158/215 92/93/216 84/86/202
s off
f 87/87/217 94/152/218 86/148/219 79/80/220
s 3
f 96/95/46 95/94/45 87/87/208 88/88/207
s 9
f 89/89/209 97/96/59 96/95/62 88/88/210
f 90/90/211 98/97/49 97/96/59 89/89/209
f 99/99/50 98/97/49 90/90/211 91/92/212
s 1
f 100/100/42 99/98/41 91/91/214 92/93/213
s 2
f 93/158/215 101/132/43 100/100/44 92/93/216
s off
f 112/109/221 111/110/222 113/111/223 114/112/224
f 63/66/225 70/140/226 103/102/227 104/101/228
f 70/140/229 62/134/230 105/103/231 103/102/232
f 62/134/233 55/59/234 106/104/235 105/103/236
s 3
f 55/59/150 63/66/166 104/101/237 106/104/238
s off
f 79/80/239 86/148/240 107/106/241 108/105/242
f 86/148/243 78/144/244 109/107/245 107/106/246
f 78/144/247 71/73/248 110/108/249 109/107/250
s 3
f 71/73/180 79/80/194 108/105/251 110/108/252
s off
f 95/94/253 102/156/254 111/110/255 112/109/256
f 102/156/257 94/152/258 113/111/259 111/110/260
f 94/152/261 87/87/262 114/112/263 113/111/264
s 3
f 87/87/208 95/94/45 112/109/265 114/112/266
s 13
f 117/131/267 116/161/268 119/162/269 118/129/270
s 14
f 116/161/271 115/113/272 120/126/273 119/162/274
s 13
f 129/141/275 128/165/276 131/166/277 130/135/278
s 14
f 128/165/279 127/117/280 132/160/281 131/166/282
f 135/119/283 134/167/284 137/168/285 136/114/286
s 18
f 134/167/287 133/137/288 138/139/289 137/168/290
s 14
f 120/126/273 115/113/272 121/115/291 124/116/292
f 132/160/281 127/117/280 135/119/283 136/114/286
f 127/117/280 139/118/293 144/121/294 135/119/283
f 139/118/293 145/120/295 150/123/296 144/121/294
f 145/120/295 151/122/297 156/125/298 150/123/296
f 151/122/297 157/124/299 162/127/300 156/125/298
f 157/124/299 120/126/273 124/116/292 162/127/300
s 13
f 102/156/301 27/128/302 117/131/267 118/129/270
s 19
f 27/128/303 24/130/304 123/133/305 117/131/306
s 18
f 24/130/307 101/132/308 126/159/309 123/133/310
s 13
f 28/138/311 62/134/312 129/141/275 130/135/278
s 18
f 61/142/313 23/136/314 138/139/289 133/137/288
s 21
f 23/136/315 28/138/316 130/135/317 138/139/318
s 13
f 62/134/312 70/140/319 141/145/320 129/141/275
s 18
f 69/146/321 61/142/313 133/137/288 142/143/322
s 13
f 70/140/319 78/144/323 147/149/324 141/145/320
s 18
f 77/150/325 69/146/321 142/143/322 148/147/326
s 13
f 78/144/323 86/148/327 153/153/328 147/149/324
s 18
f 85/154/329 77/150/325 148/147/326 154/151/330
s 13
f 86/148/327 94/152/331 159/157/332 153/153/328
s 18
f 93/158/333 85/154/329 154/151/330 160/155/334
s 13
f 94/152/331 102/156/301 118/129/270 159/157/332
s 18
f 101/132/308 93/158/333 160/155/334 126/159/309
s 14
f 115/113/272 116/161/335 122/163/336 121/115/291
s 19
f 116/161/337 117/131/306 123/133/305 122/163/338
s 14
f 121/115/291 122/163/339 125/164/340 124/116/292
s 18
f 122/163/341 123/133/310 126/159/309 125/164/342
s 14
f 127/117/280 128/165/279 140/169/343 139/118/293
s 13
f 128/165/276 129/141/275 141/145/320 140/169/344
s 18
f 133/137/288 134/167/287 143/170/345 142/143/322
s 14
f 134/167/284 135/119/283 144/121/294 143/170/346
s 21
f 130/135/317 131/166/347 137/168/348 138/139/318
s 14
f 131/166/349 132/160/281 136/114/286 137/168/350
f 139/118/293 140/169/343 146/171/351 145/120/295
s 13
f 140/169/344 141/145/320 147/149/324 146/171/352
s 18
f 142/143/322 143/170/345 149/172/353 148/147/326
s 14
f 143/170/346 144/121/294 150/123/296 149/172/354
f 145/120/295 146/171/351 152/173/355 151/122/297
s 13
f 146/171/352 147/149/324 153/153/328 152/173/356
s 18
f 148/147/326 149/172/353 155/174/357 154/151/330
s 14
f 149/172/354 150/123/296 156/125/298 155/174/358
f 151/122/297 152/173/355 158/175/359 157/124/299
s 13
f 152/173/356 153/153/328 159/157/332 158/175/360
s 18
f 154/151/330 155/174/357 161/176/361 160/155/334
s 14
f 155/174/358 156/125/298 162/127/300 161/176/362
s 13
f 118/129/270 119/162/269 158/175/360 159/157/332
s 14
f 119/162/274 120/126/273 157/124/299 158/175/359
f 124/116/292 125/164/340 161/176/362 162/127/300
s 18
f 125/164/342 126/159/309 160/155/334 161/176/361
s 22
f 164/180/363 163/205/364 167/206/365 166/181/366
s 23
f 163/205/367 165/177/368 168/185/369 167/206/370
s 24
f 183/194/371 182/211/372 185/212/373 184/178/374
s 3
f 182/211/375 181/190/376 186/188/377 185/212/378
s 22
f 169/179/379 174/198/380 164/180/363 166/181/366
s 24
f 175/204/381 178/182/382 183/194/371 184/178/374
s 23
f 28/138/383 29/183/384 168/185/369 165/177/368
s 4
f 29/183/67 6/184/70 171/186/385 168/185/386
s 3
f 6/184/35 11/17/34 173/199/387 171/186/388
s 5
f 50/189/144 49/187/143 177/192/389 186/188/390
s 3
f 51/193/142 50/189/141 186/188/377 181/190/376
s 12
f 49/187/136 52/191/135 180/195/391 177/192/392
s 3
f 51/193/142 181/190/376 188/202/393 53/197/394
s 24
f 183/194/371 178/182/382 191/200/395 187/203/396
s 12
f 180/195/391 52/191/135 54/196/397 190/201/398
s off
f 172/208/399 173/199/400 11/17/401 28/138/402 165/177/403 163/205/404 164/180/405 174/198/406
f 190/201/407 54/196/408 53/197/409 188/202/410 189/213/411 187/203/412 191/200/413 192/214/414
s 22
f 166/181/366 167/206/415 170/207/416 169/179/379
s 4
f 167/206/417 168/185/386 171/186/385 170/207/418
s 22
f 169/179/379 170/207/419 172/208/420 174/198/380
s 3
f 170/207/421 171/186/388 173/199/387 172/208/422
s 24
f 175/204/381 176/209/423 179/210/424 178/182/382
s 12
f 176/209/425 177/192/392 180/195/391 179/210/426
s 24
f 178/182/382 179/210/424 192/214/427 191/200/395
s 12
f 179/210/426 180/195/391 190/201/398 192/214/428
s 3
f 181/190/376 182/211/375 189/213/429 188/202/393
s 24
f 182/211/372 183/194/371 187/203/396 189/213/430
s 5
f 177/192/389 176/209/431 185/212/432 186/188/390
s 24
f 176/209/433 175/204/381 184/178/374 185/212/434
