# This file uses centimeters as units for non-parametric coordinates.

mtllib Fence.mtl
g default
v -0.042585 1.336415 0.089967
v 0.042585 1.336415 0.089967
v -0.042585 1.469257 0.089967
v 0.042585 1.469257 0.089967
v -0.042585 1.469257 -0.089966
v 0.042585 1.469257 -0.089967
v -0.042585 1.336415 -0.089966
v 0.042585 1.336415 -0.089967
v -0.042585 1.336415 -0.089966
v 0.042585 1.336415 -0.089966
v 0.042585 1.336415 0.089966
v -0.042585 1.336415 0.089966
v -0.042585 1.336415 2.169703
v 0.042585 1.336415 2.169703
v 0.042585 1.469257 2.169703
v -0.042585 1.469257 2.169703
v -0.042585 1.469257 -2.169703
v 0.042585 1.469257 -2.169703
v 0.042585 1.336415 -2.169703
v -0.042585 1.336415 -2.169703
v -0.042585 1.336415 -0.089966
v -0.042585 1.336415 0.089966
v -0.042585 1.469257 0.089966
v -0.042585 1.469257 -0.089966
v -0.042585 1.469257 -2.009724
v -0.042585 1.336415 -2.009724
v 0.042585 1.336415 -2.009724
v 0.042585 1.469257 -2.009724
v -0.042585 1.469257 -1.849744
v -0.042585 1.336415 -1.849744
v 0.042585 1.336415 -1.849744
v 0.042585 1.469257 -1.849744
v -0.042585 1.469257 -1.689764
v -0.042585 1.336415 -1.689764
v 0.042585 1.336415 -1.689764
v 0.042585 1.469257 -1.689764
v -0.042585 1.469257 -1.529784
v -0.042585 1.336415 -1.529784
v 0.042585 1.336415 -1.529784
v 0.042585 1.469257 -1.529784
v -0.042585 1.469257 -1.369804
v -0.042585 1.336415 -1.369804
v 0.042585 1.336415 -1.369804
v 0.042585 1.469257 -1.369804
v -0.042585 1.469257 -1.209825
v -0.042585 1.336415 -1.209825
v 0.042585 1.336415 -1.209825
v 0.042585 1.469257 -1.209825
v -0.042585 1.469257 -1.049845
v -0.042585 1.336415 -1.049845
v 0.042585 1.336415 -1.049845
v 0.042585 1.469257 -1.049845
v -0.042585 1.469257 -0.889865
v -0.042585 1.336415 -0.889865
v 0.042585 1.336415 -0.889865
v 0.042585 1.469257 -0.889865
v -0.042585 1.469257 -0.729886
v -0.042585 1.336415 -0.729886
v 0.042585 1.336415 -0.729886
v 0.042585 1.469257 -0.729886
v -0.042585 1.469257 -0.569906
v -0.042585 1.336415 -0.569906
v 0.042585 1.336415 -0.569906
v 0.042585 1.469257 -0.569906
v -0.042585 1.469257 -0.409926
v -0.042585 1.336415 -0.409926
v 0.042585 1.336415 -0.409926
v 0.042585 1.469257 -0.409926
v -0.042585 1.469257 -0.249946
v -0.042585 1.336415 -0.249946
v 0.042585 1.336415 -0.249946
v 0.042585 1.469257 -0.249946
v -0.042585 1.469257 2.009724
v 0.042585 1.469257 2.009724
v 0.042585 1.336415 2.009724
v -0.042585 1.336415 2.009724
v -0.042585 1.469257 1.849744
v 0.042585 1.469257 1.849744
v 0.042585 1.336415 1.849744
v -0.042585 1.336415 1.849744
v -0.042585 1.469257 1.689764
v 0.042585 1.469257 1.689764
v 0.042585 1.336415 1.689764
v -0.042585 1.336415 1.689764
v -0.042585 1.469257 1.529784
v 0.042585 1.469257 1.529784
v 0.042585 1.336415 1.529784
v -0.042585 1.336415 1.529784
v -0.042585 1.469257 1.369804
v 0.042585 1.469257 1.369804
v 0.042585 1.336415 1.369804
v -0.042585 1.336415 1.369804
v -0.042585 1.469257 1.209825
v 0.042585 1.469257 1.209825
v 0.042585 1.336415 1.209825
v -0.042585 1.336415 1.209825
v -0.042585 1.469257 1.049845
v 0.042585 1.469257 1.049845
v 0.042585 1.336415 1.049845
v -0.042585 1.336415 1.049845
v -0.042585 1.469257 0.889865
v 0.042585 1.469257 0.889865
v 0.042585 1.336415 0.889865
v -0.042585 1.336415 0.889865
v -0.042585 1.469257 0.729886
v 0.042585 1.469257 0.729886
v 0.042585 1.336415 0.729886
v -0.042585 1.336415 0.729886
v -0.042585 1.469257 0.569906
v 0.042585 1.469257 0.569906
v 0.042585 1.336415 0.569906
v -0.042585 1.336415 0.569906
v -0.042585 1.469257 0.409926
v 0.042585 1.469257 0.409926
v 0.042585 1.336415 0.409926
v -0.042585 1.336415 0.409926
v -0.042585 1.469257 0.249946
v 0.042585 1.469257 0.249946
v 0.042585 1.336415 0.249946
v -0.042585 1.336415 0.249946
v -0.042585 -0.008777 0.089966
v 0.042585 -0.008777 0.089966
v 0.042585 -0.008777 0.249946
v -0.042585 -0.008777 0.249946
v -0.042585 -0.008777 -0.089966
v 0.042585 -0.008777 -0.089966
v -0.042585 -0.008777 -0.249946
v 0.042585 -0.008777 -0.249946
v -0.042585 -0.008777 -2.009724
v 0.042585 -0.008777 -2.009724
v -0.042585 -0.008777 -2.169703
v 0.042585 -0.008777 -2.169703
v -0.042585 -0.008777 -1.689764
v 0.042585 -0.008777 -1.689764
v -0.042585 -0.008777 -1.849744
v 0.042585 -0.008777 -1.849744
v -0.042585 -0.008777 -1.369804
v 0.042585 -0.008777 -1.369804
v -0.042585 -0.008777 -1.529784
v 0.042585 -0.008777 -1.529784
v -0.042585 -0.008777 -1.049845
v 0.042585 -0.008777 -1.049845
v -0.042585 -0.008777 -1.209825
v 0.042585 -0.008777 -1.209825
v -0.042585 -0.008777 -0.729886
v 0.042585 -0.008777 -0.729886
v -0.042585 -0.008777 -0.889865
v 0.042585 -0.008777 -0.889865
v -0.042585 -0.008777 -0.409926
v 0.042585 -0.008777 -0.409926
v -0.042585 -0.008777 -0.569906
v 0.042585 -0.008777 -0.569906
v 0.042585 -0.008777 2.009724
v -0.042585 -0.008777 2.009724
v 0.042585 -0.008777 2.169703
v -0.042585 -0.008777 2.169703
v 0.042585 -0.008777 1.689764
v -0.042585 -0.008777 1.689764
v 0.042585 -0.008777 1.849744
v -0.042585 -0.008777 1.849744
v 0.042585 -0.008777 1.369804
v -0.042585 -0.008777 1.369804
v 0.042585 -0.008777 1.529784
v -0.042585 -0.008777 1.529784
v 0.042585 -0.008777 1.049845
v -0.042585 -0.008777 1.049845
v 0.042585 -0.008777 1.209825
v -0.042585 -0.008777 1.209825
v 0.042585 -0.008777 0.729886
v -0.042585 -0.008777 0.729886
v 0.042585 -0.008777 0.889865
v -0.042585 -0.008777 0.889865
v 0.042585 -0.008777 0.409926
v -0.042585 -0.008777 0.409926
v 0.042585 -0.008777 0.569906
v -0.042585 -0.008777 0.569906
v -0.042585 1.578887 0.169956
v -0.042585 1.519837 0.089966
v 0.042585 1.578887 0.169956
v 0.042585 1.519837 0.089966
v -0.042585 1.519837 0.249946
v 0.042585 1.519837 0.249946
v -0.042585 1.578887 -0.169956
v -0.042585 1.519837 -0.089966
v 0.042585 1.578887 -0.169956
v 0.042585 1.519837 -0.089966
v 0.042585 1.519837 -0.249946
v -0.042585 1.519837 -0.249946
v 0.042585 1.578887 -2.089713
v 0.042585 1.519837 -2.009724
v -0.042585 1.578887 -2.089713
v -0.042585 1.519837 -2.009724
v 0.042585 1.519837 -2.169703
v -0.042585 1.519837 -2.169703
v 0.042585 1.578887 -1.769754
v 0.042585 1.519837 -1.689764
v -0.042585 1.578887 -1.769754
v -0.042585 1.519837 -1.689764
v 0.042585 1.519837 -1.849744
v -0.042585 1.519837 -1.849744
v 0.042585 1.578887 -1.449794
v 0.042585 1.519837 -1.369804
v -0.042585 1.578887 -1.449794
v -0.042585 1.519837 -1.369804
v 0.042585 1.519837 -1.529784
v -0.042585 1.519837 -1.529784
v 0.042585 1.578887 -1.129835
v 0.042585 1.519837 -1.049845
v -0.042585 1.578887 -1.129835
v -0.042585 1.519837 -1.049845
v 0.042585 1.519837 -1.209825
v -0.042585 1.519837 -1.209825
v 0.042585 1.578887 -0.809875
v 0.042585 1.519837 -0.729886
v -0.042585 1.578887 -0.809875
v -0.042585 1.519837 -0.729886
v 0.042585 1.519837 -0.889865
v -0.042585 1.519837 -0.889865
v 0.042585 1.578887 -0.489916
v 0.042585 1.519837 -0.409926
v -0.042585 1.578887 -0.489916
v -0.042585 1.519837 -0.409926
v 0.042585 1.519837 -0.569906
v -0.042585 1.519837 -0.569906
v -0.042585 1.578887 2.089713
v -0.042585 1.519837 2.009724
v 0.042585 1.578887 2.089713
v 0.042585 1.519837 2.009724
v -0.042585 1.519837 2.169703
v 0.042585 1.519837 2.169703
v -0.042585 1.578887 1.769754
v -0.042585 1.519837 1.689764
v 0.042585 1.578887 1.769754
v 0.042585 1.519837 1.689764
v -0.042585 1.519837 1.849744
v 0.042585 1.519837 1.849744
v -0.042585 1.578887 1.449794
v -0.042585 1.519837 1.369804
v 0.042585 1.578887 1.449794
v 0.042585 1.519837 1.369804
v -0.042585 1.519837 1.529784
v 0.042585 1.519837 1.529784
v -0.042585 1.578887 1.129835
v -0.042585 1.519837 1.049845
v 0.042585 1.578887 1.129835
v 0.042585 1.519837 1.049845
v -0.042585 1.519837 1.209825
v 0.042585 1.519837 1.209825
v -0.042585 1.578887 0.809875
v -0.042585 1.519837 0.729886
v 0.042585 1.578887 0.809875
v 0.042585 1.519837 0.729886
v -0.042585 1.519837 0.889865
v 0.042585 1.519837 0.889865
v -0.042585 1.578887 0.489916
v -0.042585 1.519837 0.409926
v 0.042585 1.578887 0.489916
v 0.042585 1.519837 0.409926
v -0.042585 1.519837 0.569906
v 0.042585 1.519837 0.569906
vt 0.264915 0.443499
vt 0.264915 0.408330
vt 0.290880 0.408330
vt 0.290880 0.443499
vt 0.264915 0.377062
vt 0.290880 0.377062
vt 0.290880 0.474768
vt 0.264915 0.474768
vt 0.001992 0.408331
vt 0.001992 0.377062
vt 0.264915 0.345793
vt 0.290880 0.345793
vt 0.300766 0.377062
vt 0.312307 0.392696
vt 0.300766 0.408331
vt 0.300766 0.443499
vt 0.312307 0.459134
vt 0.300766 0.474768
vt 0.290880 0.506037
vt 0.264915 0.506037
vt 0.001992 0.474768
vt 0.001992 0.443499
vt 0.264915 0.314524
vt 0.290880 0.314524
vt 0.290880 0.537305
vt 0.264915 0.537305
vt 0.001992 0.345793
vt 0.001992 0.314524
vt 0.264915 0.283256
vt 0.290880 0.283256
vt 0.300766 0.314524
vt 0.312307 0.330159
vt 0.300766 0.345793
vt 0.300766 0.506037
vt 0.312307 0.521671
vt 0.300766 0.537305
vt 0.290880 0.568574
vt 0.264915 0.568574
vt 0.001992 0.537305
vt 0.001992 0.506037
vt 0.264915 0.251987
vt 0.290880 0.251987
vt 0.290880 0.599843
vt 0.264915 0.599843
vt 0.001992 0.283256
vt 0.001992 0.251987
vt 0.264915 0.220718
vt 0.290880 0.220718
vt 0.300766 0.251987
vt 0.312307 0.267621
vt 0.300766 0.283256
vt 0.300766 0.568574
vt 0.312307 0.584208
vt 0.300766 0.599843
vt 0.290880 0.631111
vt 0.264915 0.631111
vt 0.001992 0.599843
vt 0.001992 0.568574
vt 0.264915 0.189450
vt 0.290880 0.189450
vt 0.290880 0.662380
vt 0.264915 0.662380
vt 0.001992 0.220718
vt 0.001992 0.189450
vt 0.264915 0.158181
vt 0.290880 0.158181
vt 0.300766 0.189450
vt 0.312307 0.205084
vt 0.300766 0.220718
vt 0.300766 0.631111
vt 0.312307 0.646746
vt 0.300766 0.662380
vt 0.290880 0.693649
vt 0.264915 0.693649
vt 0.001992 0.662380
vt 0.001992 0.631111
vt 0.264915 0.126912
vt 0.290880 0.126912
vt 0.290880 0.724918
vt 0.264915 0.724918
vt 0.001992 0.158181
vt 0.001992 0.126912
vt 0.264915 0.095644
vt 0.290880 0.095644
vt 0.300766 0.126912
vt 0.312307 0.142547
vt 0.300766 0.158181
vt 0.300766 0.693649
vt 0.312307 0.709283
vt 0.300766 0.724918
vt 0.290880 0.756186
vt 0.264915 0.756186
vt 0.001992 0.724918
vt 0.001992 0.693649
vt 0.264915 0.064375
vt 0.290880 0.064375
vt 0.290880 0.787455
vt 0.264915 0.787455
vt 0.001992 0.095644
vt 0.001992 0.064375
vt 0.264915 0.033106
vt 0.290880 0.033106
vt 0.300766 0.064375
vt 0.312307 0.080009
vt 0.300766 0.095644
vt 0.300766 0.756186
vt 0.312307 0.771821
vt 0.300766 0.787455
vt 0.290880 0.818724
vt 0.264915 0.818724
vt 0.001992 0.787455
vt 0.001992 0.756186
vt 0.264915 0.001837
vt 0.290880 0.001837
vt 0.290880 0.849992
vt 0.264915 0.849992
vt 0.001992 0.033106
vt 0.001992 0.001837
vt 0.300766 0.001837
vt 0.312307 0.017472
vt 0.300766 0.033106
vt 0.300766 0.818724
vt 0.312307 0.834358
vt 0.300766 0.849992
vt 0.001992 0.849992
vt 0.001992 0.818724
vt 0.582789 0.443499
vt 0.582789 0.408331
vt 0.608754 0.408331
vt 0.608754 0.443499
vt 0.582789 0.408331
vt 0.608754 0.408331
vt 0.582789 0.377062
vt 0.608754 0.377062
vt 0.319866 0.408331
vt 0.319866 0.377062
vt 0.582789 0.345793
vt 0.608754 0.345793
vt 0.618640 0.377062
vt 0.630181 0.392696
vt 0.618640 0.408331
vt 0.582789 0.314524
vt 0.608754 0.314524
vt 0.319866 0.345793
vt 0.319866 0.314524
vt 0.582789 0.283256
vt 0.608754 0.283256
vt 0.618640 0.314524
vt 0.630181 0.330159
vt 0.618640 0.345793
vt 0.582789 0.251987
vt 0.608754 0.251987
vt 0.319866 0.283256
vt 0.319866 0.251987
vt 0.582789 0.220718
vt 0.608754 0.220718
vt 0.618640 0.251987
vt 0.630181 0.267621
vt 0.618640 0.283256
vt 0.582789 0.189450
vt 0.608754 0.189450
vt 0.319866 0.220718
vt 0.319866 0.189450
vt 0.582789 0.158181
vt 0.608754 0.158181
vt 0.618640 0.189450
vt 0.630181 0.205084
vt 0.618640 0.220718
vt 0.582789 0.126912
vt 0.608754 0.126912
vt 0.319866 0.158181
vt 0.319866 0.126912
vt 0.582789 0.095644
vt 0.608754 0.095644
vt 0.618640 0.126912
vt 0.630181 0.142547
vt 0.618640 0.158181
vt 0.582789 0.064375
vt 0.608754 0.064375
vt 0.319866 0.095644
vt 0.319866 0.064375
vt 0.582789 0.033106
vt 0.608754 0.033106
vt 0.618640 0.064375
vt 0.630181 0.080009
vt 0.618640 0.095644
vt 0.582789 0.001837
vt 0.608754 0.001837
vt 0.319866 0.033106
vt 0.319866 0.001837
vt 0.618640 0.001837
vt 0.630181 0.017472
vt 0.618640 0.033106
vt 0.900469 0.001837
vt 0.926433 0.001837
vt 0.926433 0.033106
vt 0.900469 0.033106
vt 0.936319 0.001837
vt 0.947861 0.017472
vt 0.936319 0.033106
vt 0.926433 0.064375
vt 0.900469 0.064375
vt 0.637545 0.033106
vt 0.637545 0.001837
vt 0.926433 0.095643
vt 0.900469 0.095643
vt 0.936319 0.064375
vt 0.947861 0.080009
vt 0.936319 0.095643
vt 0.926433 0.126912
vt 0.900469 0.126912
vt 0.637545 0.095643
vt 0.637545 0.064375
vt 0.926433 0.158181
vt 0.900469 0.158181
vt 0.936319 0.126912
vt 0.947861 0.142547
vt 0.936319 0.158181
vt 0.926433 0.189450
vt 0.900469 0.189450
vt 0.637545 0.158181
vt 0.637545 0.126912
vt 0.926433 0.220718
vt 0.900469 0.220718
vt 0.936319 0.189450
vt 0.947861 0.205084
vt 0.936319 0.220718
vt 0.926433 0.251987
vt 0.900469 0.251987
vt 0.637545 0.220718
vt 0.637545 0.189450
vt 0.926433 0.283256
vt 0.900469 0.283256
vt 0.936319 0.251987
vt 0.947861 0.267621
vt 0.936319 0.283256
vt 0.926433 0.314524
vt 0.900469 0.314524
vt 0.637545 0.283256
vt 0.637545 0.251987
vt 0.926433 0.345793
vt 0.900469 0.345793
vt 0.936319 0.314524
vt 0.947861 0.330159
vt 0.936319 0.345793
vt 0.926433 0.377062
vt 0.900469 0.377062
vt 0.637545 0.345793
vt 0.637545 0.314524
vt 0.926433 0.408331
vt 0.900469 0.408331
vt 0.936319 0.377062
vt 0.947861 0.392696
vt 0.936319 0.408331
vt 0.637545 0.408331
vt 0.637545 0.377062
vt 0.389026 0.447491
vt 0.405673 0.447491
vt 0.405673 0.482659
vt 0.389026 0.482659
vt 0.366244 0.447491
vt 0.382891 0.447491
vt 0.382891 0.482659
vt 0.366244 0.482659
vt 0.366244 0.447491
vt 0.382891 0.447491
vt 0.382891 0.482659
vt 0.366244 0.482659
vt 0.360109 0.482659
vt 0.360109 0.447491
vt 0.360109 0.447491
vt 0.360109 0.482659
vt 0.337327 0.447491
vt 0.353974 0.447491
vt 0.353974 0.478759
vt 0.337327 0.478759
vt 0.331192 0.885253
vt 0.314545 0.885253
vt 0.314545 0.853984
vt 0.331192 0.853984
vt 0.308410 0.885252
vt 0.291763 0.885252
vt 0.291763 0.853984
vt 0.308410 0.853984
vt 0.285627 0.885253
vt 0.268981 0.885253
vt 0.268981 0.853984
vt 0.285627 0.853984
vt 0.246199 0.853984
vt 0.262845 0.853984
vt 0.262845 0.885253
vt 0.246199 0.885253
vt 0.240063 0.885253
vt 0.223416 0.885253
vt 0.223416 0.853984
vt 0.240063 0.853984
vt 0.217281 0.885252
vt 0.200634 0.885252
vt 0.200634 0.853984
vt 0.217281 0.853984
vt 0.177852 0.853984
vt 0.194499 0.853984
vt 0.194499 0.885253
vt 0.177852 0.885253
vt 0.171717 0.885253
vt 0.155070 0.885253
vt 0.155070 0.853984
vt 0.171717 0.853984
vt 0.148935 0.885253
vt 0.132288 0.885253
vt 0.132288 0.853984
vt 0.148935 0.853984
vt 0.109506 0.853984
vt 0.126153 0.853984
vt 0.126153 0.885253
vt 0.109506 0.885253
vt 0.103371 0.885253
vt 0.086724 0.885253
vt 0.086724 0.853984
vt 0.103371 0.853984
vt 0.080589 0.885252
vt 0.063942 0.885252
vt 0.063942 0.853984
vt 0.080589 0.853984
vt 0.041160 0.853984
vt 0.057806 0.853984
vt 0.057806 0.885253
vt 0.041160 0.885253
vt 0.035024 0.885253
vt 0.018378 0.885253
vt 0.018378 0.853984
vt 0.035024 0.853984
vt 0.018639 0.920513
vt 0.001992 0.920513
vt 0.001992 0.889244
vt 0.018639 0.889244
vt 0.025574 0.889244
vt 0.042221 0.889244
vt 0.042221 0.920513
vt 0.025574 0.920513
vt 0.065609 0.920513
vt 0.048962 0.920513
vt 0.048962 0.889244
vt 0.065609 0.889244
vt 0.088996 0.920513
vt 0.072349 0.920513
vt 0.072349 0.889244
vt 0.088996 0.889244
vt 0.095737 0.889244
vt 0.112383 0.889244
vt 0.112383 0.920513
vt 0.095737 0.920513
vt 0.119124 0.889244
vt 0.135771 0.889244
vt 0.135771 0.920513
vt 0.119124 0.920513
vt 0.159158 0.920513
vt 0.142512 0.920513
vt 0.142512 0.889244
vt 0.159158 0.889244
vt 0.165899 0.889244
vt 0.182546 0.889244
vt 0.182546 0.920513
vt 0.165899 0.920513
vt 0.189286 0.889244
vt 0.205933 0.889244
vt 0.205933 0.920513
vt 0.189286 0.920513
vt 0.229321 0.920513
vt 0.212674 0.920513
vt 0.212674 0.889244
vt 0.229321 0.889244
vt 0.236061 0.889244
vt 0.252708 0.889244
vt 0.252708 0.920513
vt 0.236061 0.920513
vt 0.259449 0.889244
vt 0.276095 0.889244
vt 0.276095 0.920513
vt 0.259449 0.920513
vt 0.299483 0.920513
vt 0.282836 0.920513
vt 0.282836 0.889244
vt 0.299483 0.889244
vt 0.306223 0.889244
vt 0.322870 0.889244
vt 0.322870 0.920513
vt 0.306223 0.920513
vt 0.329611 0.889244
vt 0.346258 0.889244
vt 0.346258 0.920513
vt 0.329611 0.920513
vt 0.369645 0.517920
vt 0.352998 0.517920
vt 0.352998 0.486651
vt 0.369645 0.486651
vt 0.376386 0.486651
vt 0.393033 0.486651
vt 0.393033 0.517920
vt 0.376386 0.517920
vt 0.399773 0.714405
vt 0.416420 0.714405
vt 0.416420 0.745674
vt 0.399773 0.745674
vt 0.439807 0.745674
vt 0.423161 0.745674
vt 0.423161 0.714405
vt 0.439807 0.714405
vt 0.446548 0.714405
vt 0.463195 0.714405
vt 0.463195 0.745674
vt 0.446548 0.745674
vt 0.469935 0.714405
vt 0.486582 0.714405
vt 0.486582 0.745674
vt 0.469935 0.745674
vt 0.509970 0.745674
vt 0.493323 0.745674
vt 0.493323 0.714405
vt 0.509970 0.714405
vt 0.516710 0.714405
vt 0.533357 0.714405
vt 0.533357 0.745674
vt 0.516710 0.745674
vt 0.955225 0.264761
vt 0.971871 0.264761
vt 0.971871 0.290725
vt 0.955225 0.290725
vt 0.955225 0.001837
vt 0.971871 0.001837
vt 0.971871 0.300611
vt 0.955225 0.300611
vt 0.955225 0.312153
vt 0.971871 0.312153
vt 0.978612 0.023265
vt 0.995259 0.023265
vt 0.995259 0.049229
vt 0.978612 0.049229
vt 0.978612 0.013379
vt 0.995259 0.013379
vt 0.995259 0.312153
vt 0.978612 0.312153
vt 0.995259 0.001837
vt 0.978612 0.001837
vt 0.981361 0.316144
vt 0.998008 0.316144
vt 0.998008 0.579067
vt 0.981361 0.579067
vt 0.975226 0.579067
vt 0.958579 0.579067
vt 0.958579 0.316144
vt 0.975226 0.316144
vt 0.952444 0.675245
vt 0.935797 0.675245
vt 0.935797 0.412322
vt 0.952444 0.412322
vt 0.913015 0.412322
vt 0.929662 0.412322
vt 0.929662 0.675245
vt 0.913015 0.675245
vt 0.906879 0.675245
vt 0.890233 0.675245
vt 0.890233 0.412322
vt 0.906879 0.412322
vt 0.884097 0.675245
vt 0.867451 0.675245
vt 0.867451 0.412322
vt 0.884097 0.412322
vt 0.844668 0.412322
vt 0.861315 0.412322
vt 0.861315 0.675245
vt 0.844668 0.675245
vt 0.838533 0.675245
vt 0.821886 0.675245
vt 0.821886 0.412322
vt 0.838533 0.412322
vt 0.799104 0.412322
vt 0.815751 0.412322
vt 0.815751 0.675245
vt 0.799104 0.675245
vt 0.792969 0.675245
vt 0.776322 0.675245
vt 0.776322 0.412322
vt 0.792969 0.412322
vt 0.753540 0.412322
vt 0.770187 0.412322
vt 0.770187 0.675245
vt 0.753540 0.675245
vt 0.747405 0.675245
vt 0.730758 0.675245
vt 0.730758 0.412322
vt 0.747405 0.412322
vt 0.707976 0.412322
vt 0.724623 0.412322
vt 0.724623 0.675245
vt 0.707976 0.675245
vt 0.701840 0.675245
vt 0.685194 0.675245
vt 0.685194 0.412322
vt 0.701840 0.412322
vt 0.662412 0.412322
vt 0.679058 0.412322
vt 0.679058 0.675245
vt 0.662412 0.675245
vt 0.639629 0.412322
vt 0.656276 0.412322
vt 0.656276 0.675245
vt 0.639629 0.675245
vt 0.616847 0.447491
vt 0.633494 0.447491
vt 0.633494 0.710414
vt 0.616847 0.710414
vt 0.610712 0.710414
vt 0.594065 0.710414
vt 0.594065 0.447491
vt 0.610712 0.447491
vt 0.571283 0.447491
vt 0.587930 0.447491
vt 0.587930 0.710414
vt 0.571283 0.710414
vt 0.565148 0.710414
vt 0.548501 0.710414
vt 0.548501 0.447491
vt 0.565148 0.447491
vt 0.525719 0.447491
vt 0.542366 0.447491
vt 0.542366 0.710414
vt 0.525719 0.710414
vt 0.519584 0.710414
vt 0.502937 0.710414
vt 0.502937 0.447491
vt 0.519584 0.447491
vt 0.480155 0.447491
vt 0.496802 0.447491
vt 0.496802 0.710414
vt 0.480155 0.710414
vt 0.474020 0.710414
vt 0.457373 0.710414
vt 0.457373 0.447491
vt 0.474020 0.447491
vt 0.434591 0.447491
vt 0.451237 0.447491
vt 0.451237 0.710414
vt 0.434591 0.710414
vt 0.428455 0.710414
vt 0.411809 0.710414
vt 0.411809 0.447491
vt 0.428455 0.447491
vt 0.556745 0.735833
vt 0.540098 0.735833
vt 0.540098 0.725947
vt 0.556745 0.725947
vt 0.540098 0.714405
vt 0.556745 0.714405
vt 0.563485 0.714405
vt 0.580132 0.714405
vt 0.580132 0.724291
vt 0.563485 0.724291
vt 0.563485 0.735833
vt 0.580132 0.735833
vt 0.586873 0.714405
vt 0.603519 0.714405
vt 0.603519 0.724291
vt 0.586873 0.724291
vt 0.586873 0.735833
vt 0.603519 0.735833
vt 0.626907 0.735833
vt 0.610260 0.735833
vt 0.610260 0.725947
vt 0.626907 0.725947
vt 0.626907 0.714405
vt 0.610260 0.714405
vt 0.633647 0.714405
vt 0.650294 0.714405
vt 0.650294 0.724291
vt 0.633647 0.724291
vt 0.650294 0.735833
vt 0.633647 0.735833
vt 0.657035 0.679237
vt 0.673682 0.679237
vt 0.673682 0.689123
vt 0.657035 0.689123
vt 0.673682 0.700664
vt 0.657035 0.700664
vt 0.697069 0.700664
vt 0.680422 0.700664
vt 0.680422 0.690778
vt 0.697069 0.690778
vt 0.697069 0.679237
vt 0.680422 0.679237
vt 0.703810 0.679237
vt 0.720457 0.679237
vt 0.720457 0.689123
vt 0.703810 0.689123
vt 0.720457 0.700664
vt 0.703810 0.700664
vt 0.743844 0.700664
vt 0.727197 0.700664
vt 0.727197 0.690778
vt 0.743844 0.690778
vt 0.743844 0.679237
vt 0.727197 0.679237
vt 0.750585 0.679237
vt 0.767231 0.679237
vt 0.767231 0.689123
vt 0.750585 0.689123
vt 0.767231 0.700664
vt 0.750585 0.700664
vt 0.790619 0.700664
vt 0.773972 0.700664
vt 0.773972 0.690778
vt 0.790619 0.690778
vt 0.790619 0.679237
vt 0.773972 0.679237
vt 0.797359 0.679237
vt 0.814006 0.679237
vt 0.814006 0.689123
vt 0.797359 0.689123
vt 0.814006 0.700664
vt 0.797359 0.700664
vt 0.837394 0.700664
vt 0.820747 0.700664
vt 0.820747 0.690778
vt 0.837394 0.690778
vt 0.837394 0.679237
vt 0.820747 0.679237
vt 0.844134 0.679237
vt 0.860781 0.679237
vt 0.860781 0.689123
vt 0.844134 0.689123
vt 0.860781 0.700664
vt 0.844134 0.700664
vt 0.884169 0.700664
vt 0.867522 0.700664
vt 0.867522 0.690778
vt 0.884169 0.690778
vt 0.884169 0.679237
vt 0.867522 0.679237
vt 0.907556 0.700664
vt 0.890909 0.700664
vt 0.890909 0.690778
vt 0.907556 0.690778
vt 0.890909 0.679237
vt 0.907556 0.679237
vt 0.930943 0.700664
vt 0.914297 0.700664
vt 0.914297 0.690778
vt 0.930943 0.690778
vt 0.914297 0.679236
vt 0.930943 0.679236
vt 0.937684 0.679237
vt 0.954331 0.679237
vt 0.954331 0.689123
vt 0.937684 0.689123
vt 0.937684 0.700664
vt 0.954331 0.700664
vt 0.977718 0.604486
vt 0.961071 0.604486
vt 0.961071 0.594600
vt 0.977718 0.594600
vt 0.961071 0.583059
vt 0.977718 0.583059
vt 0.981361 0.608478
vt 0.998008 0.608478
vt 0.998008 0.618364
vt 0.981361 0.618364
vt 0.981361 0.629905
vt 0.998008 0.629905
vt 0.975226 0.726083
vt 0.958579 0.726083
vt 0.958579 0.716197
vt 0.975226 0.716197
vt 0.958579 0.704656
vt 0.975226 0.704656
vt 0.935797 0.704656
vt 0.952444 0.704656
vt 0.952444 0.714542
vt 0.935797 0.714542
vt 0.935797 0.726083
vt 0.952444 0.726083
vt 0.929662 0.726083
vt 0.913015 0.726083
vt 0.913015 0.716197
vt 0.929662 0.716197
vt 0.913015 0.704655
vt 0.929662 0.704655
vt 0.890233 0.704655
vt 0.906879 0.704655
vt 0.906879 0.714541
vt 0.890233 0.714541
vt 0.890233 0.726083
vt 0.906879 0.726083
vt 0.884097 0.726083
vt 0.867451 0.726083
vt 0.867451 0.716197
vt 0.884097 0.716197
vt 0.867451 0.704655
vt 0.884097 0.704655
vt 0.844668 0.704656
vt 0.861315 0.704656
vt 0.861315 0.714542
vt 0.844668 0.714542
vt 0.844668 0.726083
vt 0.861315 0.726083
vn 0.000000 0.000000 1.000000
vn 0.000000 0.000000 1.000000
vn 0.000000 0.000000 1.000000
vn 0.000000 0.000000 1.000000
vn 0.000000 1.000000 0.000000
vn 0.000000 1.000000 0.000000
vn 0.000000 1.000000 0.000000
vn 0.000000 1.000000 0.000000
vn 0.000000 0.000000 -1.000000
vn 0.000000 0.000000 -1.000000
vn 0.000000 0.000000 -1.000000
vn 0.000000 0.000000 -1.000000
vn 0.000000 -1.000000 0.000000
vn 0.000000 -1.000000 0.000000
vn 0.000000 -1.000000 0.000000
vn 0.000000 -1.000000 0.000000
vn 1.000000 0.000000 0.000000
vn 1.000000 0.000000 0.000000
vn 1.000000 0.000000 0.000000
vn 1.000000 0.000000 0.000000
vn -1.000000 0.000000 0.000000
vn -1.000000 0.000000 0.000000
vn -1.000000 0.000000 0.000000
vn -1.000000 0.000000 0.000000
vn 0.000000 -0.000000 0.000000
vn 0.000000 -1.000000 0.000000
vn 0.000000 -1.000000 0.000000
vn 0.000000 -0.000000 0.000000
vn 0.000000 0.000000 0.000000
vn 0.000000 0.000000 0.000000
vn 0.000000 1.000000 0.000000
vn 0.000000 1.000000 0.000000
vn 0.000000 -1.000000 0.000000
vn 0.000000 -1.000000 0.000000
vn 0.000000 -1.000000 0.000000
vn 0.000000 -1.000000 0.000000
vn 0.000000 0.000000 0.000000
vn 0.000000 0.000000 0.000000
vn 0.000000 0.000000 0.000000
vn 0.000000 -0.000000 0.000000
vn 0.000000 -1.000000 0.000000
vn 0.000000 -1.000000 0.000000
vn 0.000000 -1.000000 0.000000
vn 0.000000 -1.000000 0.000000
vn 1.000000 0.000000 0.000000
vn 1.000000 0.000000 0.000000
vn -1.000000 0.000000 0.000000
vn -1.000000 0.000000 0.000000
vn -1.000000 0.000000 0.000000
vn -1.000000 0.000000 0.000000
vn 1.000000 0.000000 0.000000
vn 1.000000 0.000000 0.000000
vn 0.000000 -1.000000 0.000000
vn 0.000000 -1.000000 0.000000
vn 0.000000 -1.000000 0.000000
vn 0.000000 -1.000000 0.000000
vn -1.000000 0.000000 0.000000
vn -1.000000 0.000000 0.000000
vn -1.000000 0.000000 0.000000
vn -1.000000 0.000000 0.000000
vn 0.000000 0.000000 0.000000
vn 0.000000 0.000000 0.000000
vn 0.000000 0.000000 0.000000
vn 0.000000 0.000000 0.000000
vn -1.000000 0.000000 0.000000
vn -1.000000 0.000000 0.000000
vn -1.000000 0.000000 0.000000
vn -1.000000 0.000000 0.000000
vn 0.000000 0.000000 0.000000
vn 0.000000 0.000000 0.000000
vn 0.000000 0.000000 0.000000
vn 0.000000 -0.000000 0.000000
vn 0.000000 0.000000 0.000000
vn 0.000000 0.000000 0.000000
vn 0.000000 0.000000 0.000000
vn 0.000000 0.000000 0.000000
vn -1.000000 0.000000 0.000000
vn -1.000000 0.000000 0.000000
vn -1.000000 0.000000 0.000000
vn -1.000000 0.000000 0.000000
vn 0.000000 -1.000000 0.000000
vn 0.000000 -1.000000 0.000000
vn 0.000000 -1.000000 0.000000
vn 0.000000 -1.000000 0.000000
vn 1.000000 0.000000 0.000000
vn 1.000000 0.000000 0.000000
vn 1.000000 0.000000 0.000000
vn 1.000000 0.000000 0.000000
vn -1.000000 0.000000 0.000000
vn -1.000000 0.000000 0.000000
vn 0.000000 -1.000000 0.000000
vn 0.000000 -1.000000 0.000000
vn 0.000000 -1.000000 0.000000
vn 0.000000 -1.000000 0.000000
vn 1.000000 0.000000 0.000000
vn 1.000000 0.000000 0.000000
vn 0.000000 1.000000 0.000000
vn 0.000000 1.000000 0.000000
vn 0.000000 1.000000 0.000000
vn 0.000000 1.000000 0.000000
vn -1.000000 0.000000 0.000000
vn -1.000000 0.000000 0.000000
vn 0.000000 -1.000000 0.000000
vn 0.000000 -1.000000 0.000000
vn 0.000000 -1.000000 0.000000
vn 0.000000 -1.000000 0.000000
vn 1.000000 0.000000 0.000000
vn 1.000000 0.000000 0.000000
vn -1.000000 0.000000 0.000000
vn -1.000000 0.000000 0.000000
vn 0.000000 -1.000000 0.000000
vn 0.000000 -1.000000 0.000000
vn 0.000000 -1.000000 0.000000
vn 0.000000 -1.000000 0.000000
vn 1.000000 0.000000 0.000000
vn 1.000000 0.000000 0.000000
vn 0.000000 1.000000 0.000000
vn 0.000000 1.000000 0.000000
vn 0.000000 1.000000 0.000000
vn 0.000000 1.000000 0.000000
vn -1.000000 0.000000 0.000000
vn -1.000000 0.000000 0.000000
vn 0.000000 -1.000000 0.000000
vn 0.000000 -1.000000 0.000000
vn 0.000000 -1.000000 0.000000
vn 0.000000 -1.000000 0.000000
vn 1.000000 0.000000 0.000000
vn 1.000000 0.000000 0.000000
vn -1.000000 0.000000 0.000000
vn -1.000000 0.000000 0.000000
vn 0.000000 -1.000000 0.000000
vn 0.000000 -1.000000 0.000000
vn 0.000000 -1.000000 0.000000
vn 0.000000 -1.000000 0.000000
vn 1.000000 0.000000 0.000000
vn 1.000000 0.000000 0.000000
vn 0.000000 1.000000 0.000000
vn 0.000000 1.000000 0.000000
vn 0.000000 1.000000 0.000000
vn 0.000000 1.000000 0.000000
vn -1.000000 0.000000 0.000000
vn -1.000000 0.000000 0.000000
vn 0.000000 -1.000000 0.000000
vn 0.000000 -1.000000 0.000000
vn 0.000000 -1.000000 0.000000
vn 0.000000 -1.000000 0.000000
vn 1.000000 0.000000 0.000000
vn 1.000000 0.000000 0.000000
vn -1.000000 0.000000 0.000000
vn -1.000000 0.000000 0.000000
vn 0.000000 -1.000000 0.000000
vn 0.000000 -1.000000 0.000000
vn 0.000000 -1.000000 0.000000
vn 0.000000 -1.000000 0.000000
vn 1.000000 0.000000 0.000000
vn 1.000000 0.000000 0.000000
vn 0.000000 1.000000 0.000000
vn 0.000000 1.000000 0.000000
vn 0.000000 1.000000 0.000000
vn 0.000000 1.000000 0.000000
vn -1.000000 0.000000 0.000000
vn -1.000000 0.000000 0.000000
vn 0.000000 -1.000000 0.000000
vn 0.000000 -1.000000 0.000000
vn 0.000000 -1.000000 0.000000
vn 0.000000 -1.000000 0.000000
vn 1.000000 0.000000 0.000000
vn 1.000000 0.000000 0.000000
vn -1.000000 0.000000 0.000000
vn -1.000000 0.000000 0.000000
vn 0.000000 -1.000000 0.000000
vn 0.000000 -1.000000 0.000000
vn 0.000000 -1.000000 0.000000
vn 0.000000 -1.000000 0.000000
vn 1.000000 0.000000 0.000000
vn 1.000000 0.000000 0.000000
vn 0.000000 1.000000 0.000000
vn 0.000000 1.000000 0.000000
vn 0.000000 1.000000 0.000000
vn 0.000000 1.000000 0.000000
vn -1.000000 0.000000 0.000000
vn -1.000000 0.000000 0.000000
vn 0.000000 -1.000000 0.000000
vn 0.000000 -1.000000 0.000000
vn 0.000000 -1.000000 0.000000
vn 0.000000 -1.000000 0.000000
vn 1.000000 0.000000 0.000000
vn 1.000000 0.000000 0.000000
vn 0.000000 -1.000000 0.000000
vn 0.000000 -1.000000 0.000000
vn 0.000000 -1.000000 0.000000
vn 0.000000 -1.000000 0.000000
vn 0.000000 1.000000 0.000000
vn 0.000000 1.000000 0.000000
vn 0.000000 1.000000 0.000000
vn 0.000000 1.000000 0.000000
vn 1.000000 0.000000 0.000000
vn 1.000000 0.000000 0.000000
vn 1.000000 0.000000 0.000000
vn 1.000000 0.000000 0.000000
vn 0.000000 -1.000000 0.000000
vn 0.000000 -1.000000 0.000000
vn 0.000000 -1.000000 0.000000
vn 0.000000 -1.000000 0.000000
vn -1.000000 0.000000 0.000000
vn -1.000000 0.000000 0.000000
vn -1.000000 0.000000 0.000000
vn -1.000000 0.000000 0.000000
vn 0.000000 1.000000 0.000000
vn 0.000000 1.000000 0.000000
vn 0.000000 1.000000 0.000000
vn 0.000000 1.000000 0.000000
vn 1.000000 0.000000 0.000000
vn 1.000000 0.000000 0.000000
vn 0.000000 -1.000000 0.000000
vn 0.000000 -1.000000 0.000000
vn 0.000000 -1.000000 0.000000
vn 0.000000 -1.000000 0.000000
vn -1.000000 0.000000 0.000000
vn -1.000000 0.000000 0.000000
vn 1.000000 0.000000 0.000000
vn 1.000000 0.000000 0.000000
vn 0.000000 -1.000000 0.000000
vn 0.000000 -1.000000 0.000000
vn 0.000000 -1.000000 0.000000
vn 0.000000 -1.000000 0.000000
vn -1.000000 0.000000 0.000000
vn -1.000000 0.000000 0.000000
vn 0.000000 1.000000 0.000000
vn 0.000000 1.000000 0.000000
vn 0.000000 1.000000 0.000000
vn 0.000000 1.000000 0.000000
vn 1.000000 0.000000 0.000000
vn 1.000000 0.000000 0.000000
vn 0.000000 -1.000000 0.000000
vn 0.000000 -1.000000 0.000000
vn 0.000000 -1.000000 0.000000
vn 0.000000 -1.000000 0.000000
vn -1.000000 0.000000 0.000000
vn -1.000000 0.000000 0.000000
vn 1.000000 0.000000 0.000000
vn 1.000000 0.000000 0.000000
vn 0.000000 -1.000000 0.000000
vn 0.000000 -1.000000 0.000000
vn 0.000000 -1.000000 0.000000
vn 0.000000 -1.000000 0.000000
vn -1.000000 0.000000 0.000000
vn -1.000000 0.000000 0.000000
vn 0.000000 1.000000 0.000000
vn 0.000000 1.000000 0.000000
vn 0.000000 1.000000 0.000000
vn 0.000000 1.000000 0.000000
vn 1.000000 0.000000 0.000000
vn 1.000000 0.000000 0.000000
vn 0.000000 -1.000000 0.000000
vn 0.000000 -1.000000 0.000000
vn 0.000000 -1.000000 0.000000
vn 0.000000 -1.000000 0.000000
vn -1.000000 0.000000 0.000000
vn -1.000000 0.000000 0.000000
vn 1.000000 0.000000 0.000000
vn 1.000000 0.000000 0.000000
vn 0.000000 -1.000000 0.000000
vn 0.000000 -1.000000 0.000000
vn 0.000000 -1.000000 0.000000
vn 0.000000 -1.000000 0.000000
vn -1.000000 0.000000 0.000000
vn -1.000000 0.000000 0.000000
vn 0.000000 1.000000 0.000000
vn 0.000000 1.000000 0.000000
vn 0.000000 1.000000 0.000000
vn 0.000000 1.000000 0.000000
vn 1.000000 0.000000 0.000000
vn 1.000000 0.000000 0.000000
vn 0.000000 -1.000000 0.000000
vn 0.000000 -1.000000 0.000000
vn 0.000000 -1.000000 0.000000
vn 0.000000 -1.000000 0.000000
vn -1.000000 0.000000 0.000000
vn -1.000000 0.000000 0.000000
vn 1.000000 0.000000 0.000000
vn 1.000000 0.000000 0.000000
vn 0.000000 -1.000000 0.000000
vn 0.000000 -1.000000 0.000000
vn 0.000000 -1.000000 0.000000
vn 0.000000 -1.000000 0.000000
vn -1.000000 0.000000 0.000000
vn -1.000000 0.000000 0.000000
vn 0.000000 1.000000 0.000000
vn 0.000000 1.000000 0.000000
vn 0.000000 1.000000 0.000000
vn 0.000000 1.000000 0.000000
vn 1.000000 0.000000 0.000000
vn 1.000000 0.000000 0.000000
vn 0.000000 -1.000000 0.000000
vn 0.000000 -1.000000 0.000000
vn 0.000000 -1.000000 0.000000
vn 0.000000 -1.000000 0.000000
vn -1.000000 0.000000 0.000000
vn -1.000000 0.000000 0.000000
vn 1.000000 0.000000 0.000000
vn 1.000000 0.000000 0.000000
vn 0.000000 -1.000000 0.000000
vn 0.000000 -1.000000 0.000000
vn 0.000000 -1.000000 0.000000
vn 0.000000 -1.000000 0.000000
vn -1.000000 0.000000 0.000000
vn -1.000000 0.000000 0.000000
vn 0.000000 1.000000 0.000000
vn 0.000000 1.000000 0.000000
vn 0.000000 1.000000 0.000000
vn 0.000000 1.000000 0.000000
vn 0.000000 -1.000000 0.000000
vn 0.000000 -1.000000 0.000000
vn 0.000000 -1.000000 0.000000
vn 0.000000 -1.000000 0.000000
vn -0.000001 0.000000 -1.000000
vn -0.000001 0.000000 -1.000000
vn -0.000001 0.000000 -1.000000
vn -0.000001 0.000000 -1.000000
vn 1.000000 0.000000 0.000000
vn 1.000000 0.000000 0.000000
vn 0.000000 0.000000 1.000000
vn 0.000000 0.000000 1.000000
vn 0.000000 0.000000 1.000000
vn 0.000000 0.000000 1.000000
vn -1.000000 0.000000 0.000000
vn -1.000000 0.000000 0.000000
vn 0.000001 0.000000 1.000000
vn 0.000001 0.000000 1.000000
vn 0.000001 0.000000 1.000000
vn 0.000001 0.000000 1.000000
vn -1.000000 0.000000 0.000000
vn -1.000000 0.000000 0.000000
vn 0.000000 0.000000 -1.000000
vn 0.000000 0.000000 -1.000000
vn 0.000000 0.000000 -1.000000
vn 0.000000 0.000000 -1.000000
vn 1.000000 0.000000 0.000000
vn 1.000000 0.000000 0.000000
vn 0.000000 0.000000 1.000000
vn 0.000000 0.000000 1.000000
vn 0.000000 0.000000 1.000000
vn 0.000000 0.000000 1.000000
vn -1.000000 0.000000 0.000000
vn -1.000000 0.000000 0.000000
vn 0.000000 0.000000 -1.000000
vn 0.000000 0.000000 -1.000000
vn 1.000000 0.000000 0.000000
vn 1.000000 0.000000 0.000000
vn 0.000000 0.000000 1.000000
vn 0.000000 0.000000 1.000000
vn 0.000000 0.000000 1.000000
vn 0.000000 0.000000 1.000000
vn -1.000000 0.000000 0.000000
vn -1.000000 0.000000 0.000000
vn 0.000000 0.000000 -1.000000
vn 0.000000 0.000000 -1.000000
vn 0.000000 0.000000 -1.000000
vn 0.000000 0.000000 -1.000000
vn 1.000000 0.000000 0.000000
vn 1.000000 0.000000 0.000000
vn 0.000000 0.000000 1.000000
vn 0.000000 0.000000 1.000000
vn 0.000000 0.000000 1.000000
vn 0.000000 0.000000 1.000000
vn -1.000000 0.000000 0.000000
vn -1.000000 0.000000 0.000000
vn 0.000000 0.000000 -1.000000
vn 0.000000 0.000000 -1.000000
vn 0.000000 0.000000 -1.000000
vn 0.000000 0.000000 -1.000000
vn 1.000000 0.000000 0.000000
vn 1.000000 0.000000 0.000000
vn 0.000000 0.000000 1.000000
vn 0.000000 0.000000 1.000000
vn 0.000000 0.000000 1.000000
vn 0.000000 0.000000 1.000000
vn -1.000000 0.000000 0.000000
vn -1.000000 0.000000 0.000000
vn 0.000000 0.000000 -1.000000
vn 0.000000 0.000000 -1.000000
vn 0.000000 0.000000 -1.000000
vn 0.000000 0.000000 -1.000000
vn 1.000000 0.000000 0.000000
vn 1.000000 0.000000 0.000000
vn 0.000000 0.000000 1.000000
vn 0.000000 0.000000 1.000000
vn 0.000000 0.000000 1.000000
vn 0.000000 0.000000 1.000000
vn -1.000000 0.000000 0.000000
vn -1.000000 0.000000 0.000000
vn 0.000000 0.000000 -1.000000
vn 0.000000 0.000000 -1.000000
vn 0.000000 0.000000 -1.000000
vn 0.000000 0.000000 -1.000000
vn 1.000000 0.000000 0.000000
vn 1.000000 0.000000 0.000000
vn 0.000000 0.000000 1.000000
vn 0.000000 0.000000 1.000000
vn 0.000000 0.000000 1.000000
vn 0.000000 0.000000 1.000000
vn -1.000000 0.000000 0.000000
vn -1.000000 0.000000 0.000000
vn 0.000000 0.000000 -1.000000
vn 0.000000 0.000000 -1.000000
vn 0.000000 0.000000 -1.000000
vn 0.000000 0.000000 -1.000000
vn 1.000000 0.000000 0.000000
vn 1.000000 0.000000 0.000000
vn 0.000000 0.000000 -1.000000
vn 0.000000 0.000000 -1.000000
vn 0.000000 0.000000 -1.000000
vn 0.000000 0.000000 -1.000000
vn 1.000000 0.000000 0.000000
vn 1.000000 0.000000 0.000000
vn 0.000000 0.000000 1.000000
vn 0.000000 0.000000 1.000000
vn -1.000000 0.000000 0.000000
vn -1.000000 0.000000 0.000000
vn 0.000000 0.000000 -1.000000
vn 0.000000 0.000000 -1.000000
vn 0.000000 0.000000 -1.000000
vn 0.000000 0.000000 -1.000000
vn 1.000000 0.000000 0.000000
vn 1.000000 0.000000 0.000000
vn 0.000000 0.000000 1.000000
vn 0.000000 0.000000 1.000000
vn 0.000000 0.000000 1.000000
vn 0.000000 0.000000 1.000000
vn -1.000000 0.000000 0.000000
vn -1.000000 0.000000 0.000000
vn 0.000000 0.000000 -1.000000
vn 0.000000 0.000000 -1.000000
vn 0.000000 0.000000 -1.000000
vn 0.000000 0.000000 -1.000000
vn 1.000000 0.000000 0.000000
vn 1.000000 0.000000 0.000000
vn 0.000000 0.000000 1.000000
vn 0.000000 0.000000 1.000000
vn 0.000000 0.000000 1.000000
vn 0.000000 0.000000 1.000000
vn -1.000000 0.000000 0.000000
vn -1.000000 0.000000 0.000000
vn 0.000000 0.000000 -1.000000
vn 0.000000 0.000000 -1.000000
vn 0.000000 0.000000 -1.000000
vn 0.000000 0.000000 -1.000000
vn 1.000000 0.000000 0.000000
vn 1.000000 0.000000 0.000000
vn 0.000000 0.000000 1.000000
vn 0.000000 0.000000 1.000000
vn 0.000000 0.000000 1.000000
vn 0.000000 0.000000 1.000000
vn -1.000000 0.000000 0.000000
vn -1.000000 0.000000 0.000000
vn 0.000000 0.000000 -1.000000
vn 0.000000 0.000000 -1.000000
vn 0.000000 0.000000 -1.000000
vn 0.000000 0.000000 -1.000000
vn 1.000000 0.000000 0.000000
vn 1.000000 0.000000 0.000000
vn 0.000000 0.000000 1.000000
vn 0.000000 0.000000 1.000000
vn 0.000000 0.000000 1.000000
vn 0.000000 0.000000 1.000000
vn -1.000000 0.000000 0.000000
vn -1.000000 0.000000 0.000000
vn 0.000000 0.000000 -1.000000
vn 0.000000 0.000000 -1.000000
vn 0.000000 0.000000 -1.000000
vn 0.000000 0.000000 -1.000000
vn 1.000000 0.000000 0.000000
vn 1.000000 0.000000 0.000000
vn 0.000000 0.000000 1.000000
vn 0.000000 0.000000 1.000000
vn 0.000000 0.000000 1.000000
vn 0.000000 0.000000 1.000000
vn -1.000000 0.000000 0.000000
vn -1.000000 0.000000 0.000000
vn -0.000001 -0.000005 -1.000000
vn -0.000001 -0.000005 -1.000000
vn -0.000001 -0.000005 -1.000000
vn -0.000001 -0.000005 -1.000000
vn -1.000000 0.000000 0.000000
vn -1.000000 0.000000 0.000000
vn -1.000000 0.000000 0.000000
vn 0.000000 0.000000 1.000000
vn 0.000000 0.000000 1.000000
vn 0.000000 0.000000 1.000000
vn 0.000000 0.000000 1.000000
vn 1.000000 0.000000 0.000000
vn 1.000000 0.000000 0.000000
vn 1.000000 0.000000 0.000000
vn 0.000001 -0.000001 1.000000
vn 0.000001 -0.000001 1.000000
vn 0.000001 -0.000001 1.000000
vn 0.000001 -0.000001 1.000000
vn 1.000000 0.000000 0.000000
vn 1.000000 0.000000 0.000000
vn 1.000000 0.000000 0.000000
vn 0.000000 0.000000 -1.000000
vn 0.000000 0.000000 -1.000000
vn 0.000000 0.000000 -1.000000
vn 0.000000 0.000000 -1.000000
vn -1.000000 0.000000 0.000000
vn -1.000000 0.000000 0.000000
vn -1.000000 0.000000 0.000000
vn 0.000000 0.000000 1.000000
vn 0.000000 0.000000 1.000000
vn 0.000000 0.000000 1.000000
vn 0.000000 0.000000 1.000000
vn 1.000000 0.000000 0.000000
vn 1.000000 0.000000 0.000000
vn 1.000000 0.000000 0.000000
vn 0.000000 0.000000 -1.000000
vn 0.000000 0.000000 -1.000000
vn -1.000000 0.000000 0.000000
vn -1.000000 0.000000 0.000000
vn -1.000000 0.000000 0.000000
vn 0.000000 0.000000 1.000000
vn 0.000000 0.000000 1.000000
vn 0.000000 0.000000 1.000000
vn 0.000000 0.000000 1.000000
vn 1.000000 0.000000 0.000000
vn 1.000000 0.000000 0.000000
vn 1.000000 0.000000 0.000000
vn 0.000000 0.000000 -1.000000
vn 0.000000 0.000000 -1.000000
vn 0.000000 0.000000 -1.000000
vn 0.000000 0.000000 -1.000000
vn -1.000000 0.000000 0.000000
vn -1.000000 0.000000 0.000000
vn -1.000000 0.000000 0.000000
vn 0.000000 0.000000 1.000000
vn 0.000000 0.000000 1.000000
vn 0.000000 0.000000 1.000000
vn 0.000000 0.000000 1.000000
vn 1.000000 0.000000 0.000000
vn 1.000000 0.000000 0.000000
vn 1.000000 0.000000 0.000000
vn 0.000000 0.000000 -1.000000
vn 0.000000 0.000000 -1.000000
vn 0.000000 0.000000 -1.000000
vn 0.000000 0.000000 -1.000000
vn -1.000000 0.000000 0.000000
vn -1.000000 0.000000 0.000000
vn -1.000000 0.000000 0.000000
vn 0.000000 0.000000 1.000000
vn 0.000000 0.000000 1.000000
vn 0.000000 0.000000 1.000000
vn 0.000000 0.000000 1.000000
vn 1.000000 0.000000 0.000000
vn 1.000000 0.000000 0.000000
vn 1.000000 0.000000 0.000000
vn 0.000000 0.000000 -1.000000
vn 0.000000 0.000000 -1.000000
vn 0.000000 0.000000 -1.000000
vn 0.000000 0.000000 -1.000000
vn -1.000000 0.000000 0.000000
vn -1.000000 0.000000 0.000000
vn -1.000000 0.000000 0.000000
vn 0.000000 0.000000 1.000000
vn 0.000000 0.000000 1.000000
vn 0.000000 0.000000 1.000000
vn 0.000000 0.000000 1.000000
vn 1.000000 0.000000 0.000000
vn 1.000000 0.000000 0.000000
vn 1.000000 0.000000 0.000000
vn 0.000000 0.000000 -1.000000
vn 0.000000 0.000000 -1.000000
vn 0.000000 0.000000 -1.000000
vn 0.000000 0.000000 -1.000000
vn -1.000000 0.000000 0.000000
vn -1.000000 0.000000 0.000000
vn -1.000000 0.000000 0.000000
vn 0.000000 0.000000 1.000000
vn 0.000000 0.000000 1.000000
vn 0.000000 0.000000 1.000000
vn 0.000000 0.000000 1.000000
vn 1.000000 0.000000 0.000000
vn 1.000000 0.000000 0.000000
vn 1.000000 0.000000 0.000000
vn 0.000000 0.000000 -1.000000
vn 0.000000 0.000000 -1.000000
vn 0.000000 0.000000 -1.000000
vn 0.000000 0.000000 -1.000000
vn -1.000000 0.000000 0.000000
vn -1.000000 0.000000 0.000000
vn -1.000000 0.000000 0.000000
vn 0.000000 0.000000 -1.000000
vn 0.000000 0.000000 -1.000000
vn 0.000000 0.000000 -1.000000
vn 0.000000 0.000000 -1.000000
vn -1.000000 0.000000 0.000000
vn -1.000000 0.000000 0.000000
vn -1.000000 0.000000 0.000000
vn 0.000000 0.000000 1.000000
vn 0.000000 0.000000 1.000000
vn 1.000000 0.000000 0.000000
vn 1.000000 0.000000 0.000000
vn 1.000000 0.000000 0.000000
vn 0.000000 0.000000 -1.000000
vn 0.000000 0.000000 -1.000000
vn 0.000000 0.000000 -1.000000
vn 0.000000 0.000000 -1.000000
vn -1.000000 0.000000 0.000000
vn -1.000000 0.000000 0.000000
vn -1.000000 0.000000 0.000000
vn 0.000000 0.000000 1.000000
vn 0.000000 0.000000 1.000000
vn 0.000000 0.000000 1.000000
vn 0.000000 0.000000 1.000000
vn 1.000000 0.000000 0.000000
vn 1.000000 0.000000 0.000000
vn 1.000000 0.000000 0.000000
vn 0.000000 0.000000 -1.000000
vn 0.000000 0.000000 -1.000000
vn 0.000000 0.000000 -1.000000
vn 0.000000 0.000000 -1.000000
vn -1.000000 0.000000 0.000000
vn -1.000000 0.000000 0.000000
vn -1.000000 0.000000 0.000000
vn 0.000000 0.000000 1.000000
vn 0.000000 0.000000 1.000000
vn 0.000000 0.000000 1.000000
vn 0.000000 0.000000 1.000000
vn 1.000000 0.000000 0.000000
vn 1.000000 0.000000 0.000000
vn 1.000000 0.000000 0.000000
vn 0.000000 0.000000 -1.000000
vn 0.000000 0.000000 -1.000000
vn 0.000000 0.000000 -1.000000
vn 0.000000 0.000000 -1.000000
vn -1.000000 0.000000 0.000000
vn -1.000000 0.000000 0.000000
vn -1.000000 0.000000 0.000000
vn 0.000000 0.000000 1.000000
vn 0.000000 0.000000 1.000000
vn 0.000000 0.000000 1.000000
vn 0.000000 0.000000 1.000000
vn 1.000000 0.000000 0.000000
vn 1.000000 0.000000 0.000000
vn 1.000000 0.000000 0.000000
vn 0.000000 0.000000 -1.000000
vn 0.000000 0.000000 -1.000000
vn 0.000000 0.000000 -1.000000
vn 0.000000 0.000000 -1.000000
vn -1.000000 0.000000 0.000000
vn -1.000000 0.000000 0.000000
vn -1.000000 0.000000 0.000000
vn 0.000000 0.000000 1.000000
vn 0.000000 0.000000 1.000000
vn 0.000000 0.000000 1.000000
vn 0.000000 0.000000 1.000000
vn 1.000000 0.000000 0.000000
vn 1.000000 0.000000 0.000000
vn 1.000000 0.000000 0.000000
vn 0.000000 0.000000 -1.000000
vn 0.000000 0.000000 -1.000000
vn 0.000000 0.000000 -1.000000
vn 0.000000 0.000000 -1.000000
vn -1.000000 0.000000 0.000000
vn -1.000000 0.000000 0.000000
vn -1.000000 0.000000 0.000000
vn 0.000000 0.000000 1.000000
vn 0.000000 0.000000 1.000000
vn 0.000000 0.000000 1.000000
vn 0.000000 0.000000 1.000000
vn 1.000000 0.000000 0.000000
vn 1.000000 0.000000 0.000000
vn 1.000000 0.000000 0.000000
vn 0.000000 0.804529 -0.593913
vn 0.000000 0.804529 -0.593913
vn 0.000000 0.804529 -0.593913
vn 0.000000 0.804529 -0.593913
vn 0.000000 0.804529 0.593913
vn 0.000000 0.804529 0.593913
vn 0.000000 0.804529 0.593913
vn 0.000000 0.804529 0.593913
vn 0.000000 0.804529 0.593913
vn 0.000000 0.804529 0.593913
vn 0.000000 0.804529 0.593913
vn 0.000000 0.804529 0.593913
vn 0.000000 0.804529 -0.593913
vn 0.000000 0.804529 -0.593913
vn 0.000000 0.804529 -0.593913
vn 0.000000 0.804529 -0.593913
vn 0.000000 0.804528 0.593915
vn 0.000000 0.804528 0.593915
vn 0.000000 0.804528 0.593915
vn 0.000000 0.804528 0.593915
vn 0.000000 0.804531 -0.593911
vn 0.000000 0.804531 -0.593911
vn 0.000000 0.804531 -0.593911
vn 0.000000 0.804531 -0.593911
vn 0.000000 0.804531 0.593911
vn 0.000000 0.804531 0.593911
vn 0.000000 0.804531 0.593911
vn 0.000000 0.804531 0.593911
vn 0.000000 0.804528 -0.593915
vn 0.000000 0.804528 -0.593915
vn 0.000000 0.804528 -0.593915
vn 0.000000 0.804528 -0.593915
vn 0.000000 0.804529 0.593913
vn 0.000000 0.804529 0.593913
vn 0.000000 0.804529 0.593913
vn 0.000000 0.804529 0.593913
vn 0.000000 0.804529 -0.593913
vn 0.000000 0.804529 -0.593913
vn 0.000000 0.804529 -0.593913
vn 0.000000 0.804529 -0.593913
vn 0.000000 0.804529 0.593913
vn 0.000000 0.804529 0.593913
vn 0.000000 0.804529 0.593913
vn 0.000000 0.804529 0.593913
vn 0.000000 0.804529 -0.593913
vn 0.000000 0.804529 -0.593913
vn 0.000000 0.804529 -0.593913
vn 0.000000 0.804529 -0.593913
vn 0.000000 0.804529 0.593913
vn 0.000000 0.804529 0.593913
vn 0.000000 0.804529 0.593913
vn 0.000000 0.804529 0.593913
vn 0.000000 0.804529 -0.593913
vn 0.000000 0.804529 -0.593913
vn 0.000000 0.804529 -0.593913
vn 0.000000 0.804529 -0.593913
vn 0.000000 0.804529 0.593914
vn 0.000000 0.804529 0.593914
vn 0.000000 0.804529 0.593914
vn 0.000000 0.804529 0.593914
vn 0.000000 0.804529 -0.593913
vn 0.000000 0.804529 -0.593913
vn 0.000000 0.804529 -0.593913
vn 0.000000 0.804529 -0.593913
vn 0.000000 0.804528 -0.593915
vn 0.000000 0.804528 -0.593915
vn 0.000000 0.804528 -0.593915
vn 0.000000 0.804528 -0.593915
vn 0.000000 0.804531 0.593911
vn 0.000000 0.804531 0.593911
vn 0.000000 0.804531 0.593911
vn 0.000000 0.804531 0.593911
vn 0.000000 0.804531 -0.593911
vn 0.000000 0.804531 -0.593911
vn 0.000000 0.804531 -0.593911
vn 0.000000 0.804531 -0.593911
vn 0.000000 0.804528 0.593915
vn 0.000000 0.804528 0.593915
vn 0.000000 0.804528 0.593915
vn 0.000000 0.804528 0.593915
vn 0.000000 0.804529 -0.593913
vn 0.000000 0.804529 -0.593913
vn 0.000000 0.804529 -0.593913
vn 0.000000 0.804529 -0.593913
vn 0.000000 0.804529 0.593913
vn 0.000000 0.804529 0.593913
vn 0.000000 0.804529 0.593913
vn 0.000000 0.804529 0.593913
vn 0.000000 0.804529 -0.593913
vn 0.000000 0.804529 -0.593913
vn 0.000000 0.804529 -0.593913
vn 0.000000 0.804529 -0.593913
vn 0.000000 0.804529 0.593913
vn 0.000000 0.804529 0.593913
vn 0.000000 0.804529 0.593913
vn 0.000000 0.804529 0.593913
vn 0.000000 0.804529 -0.593913
vn 0.000000 0.804529 -0.593913
vn 0.000000 0.804529 -0.593913
vn 0.000000 0.804529 -0.593913
vn 0.000000 0.804529 0.593913
vn 0.000000 0.804529 0.593913
vn 0.000000 0.804529 0.593913
vn 0.000000 0.804529 0.593913
vn 0.000000 0.804529 -0.593914
vn 0.000000 0.804529 -0.593914
vn 0.000000 0.804529 -0.593914
vn 0.000000 0.804529 -0.593914
vn 0.000000 0.804529 0.593913
vn 0.000000 0.804529 0.593913
vn 0.000000 0.804529 0.593913
vn 0.000000 0.804529 0.593913
s 1
g Fence
usemtl lambert5SG
f 13/425/1 14/426/2 15/427/3 16/428/4
s off
f 3/257/5 4/258/6 6/259/7 5/260/8
s 2
f 17/435/9 18/436/10 19/437/11 20/438/12
s off
f 9/261/13 10/262/14 11/263/15 12/264/16
s 3
f 2/1/17 8/2/18 6/3/19 4/4/20
s off
f 21/127/21 22/128/22 23/129/23 24/130/24
f 7/265/25 8/266/26 10/262/27 9/261/28
f 8/269/29 2/270/30 11/271/31 10/272/32
f 2/267/33 1/268/34 12/264/35 11/263/36
f 1//37 7//38 9//39 12//40
f 121/273/41 122/274/42 123/275/43 124/276/44
s 3
f 2/1/17 4/4/20 118/7/45 119/8/46
s 4
f 3/132/47 1/131/48 120/133/49 117/134/50
s 3
f 6/3/19 8/2/18 71/5/51 72/6/52
s off
f 126/277/53 125/278/54 127/279/55 128/280/56
s 5
f 7/194/57 5/195/58 69/196/59 70/197/60
s off
f 7//61 1//62 22//63 21//64
f 1/131/65 3/132/66 23/129/67 22/128/68
f 3//69 5//70 24//71 23//72
f 5//73 7//74 21//75 24//76
s 5
f 26/247/77 25/246/78 17/250/79 20/251/80
s off
f 130/281/81 129/282/82 131/283/83 132/284/84
s 3
f 28/102/85 27/101/86 19/113/87 18/114/88
s 5
f 30/242/89 29/241/90 25/246/78 26/247/77
s off
f 31/285/91 30/286/92 26/287/93 27/288/94
s 3
f 32/96/95 31/95/96 27/101/86 28/102/85
s off
f 29/289/97 32/290/98 28/291/99 25/292/100
s 5
f 34/238/101 33/237/102 29/241/90 30/242/89
s off
f 134/293/103 133/294/104 135/295/105 136/296/106
s 3
f 36/84/107 35/83/108 31/95/96 32/96/95
s 5
f 38/233/109 37/232/110 33/237/102 34/238/101
s off
f 39/297/111 38/298/112 34/299/113 35/300/114
s 3
f 40/78/115 39/77/116 35/83/108 36/84/107
s off
f 37/301/117 40/302/118 36/303/119 33/304/120
s 5
f 42/229/121 41/228/122 37/232/110 38/233/109
s off
f 138/305/123 137/306/124 139/307/125 140/308/126
s 3
f 44/66/127 43/65/128 39/77/116 40/78/115
s 5
f 46/224/129 45/223/130 41/228/122 42/229/121
s off
f 47/309/131 46/310/132 42/311/133 43/312/134
s 3
f 48/60/135 47/59/136 43/65/128 44/66/127
s off
f 45/313/137 48/314/138 44/315/139 41/316/140
s 5
f 50/220/141 49/219/142 45/223/130 46/224/129
s off
f 142/317/143 141/318/144 143/319/145 144/320/146
s 3
f 52/48/147 51/47/148 47/59/136 48/60/135
s 5
f 54/215/149 53/214/150 49/219/142 50/220/141
s off
f 55/321/151 54/322/152 50/323/153 51/324/154
s 3
f 56/42/155 55/41/156 51/47/148 52/48/147
s off
f 53/325/157 56/326/158 52/327/159 49/328/160
s 5
f 58/211/161 57/210/162 53/214/150 54/215/149
s off
f 146/329/163 145/330/164 147/331/165 148/332/166
s 3
f 60/30/167 59/29/168 55/41/156 56/42/155
s 5
f 62/206/169 61/205/170 57/210/162 58/211/161
s off
f 63/333/171 62/334/172 58/335/173 59/336/174
s 3
f 64/24/175 63/23/176 59/29/168 60/30/167
s off
f 61/337/177 64/338/178 60/339/179 57/340/180
s 5
f 66/202/181 65/201/182 61/205/170 62/206/169
s off
f 150/341/183 149/342/184 151/343/185 152/344/186
s 3
f 68/12/187 67/11/188 63/23/176 64/24/175
s 5
f 70/197/60 69/196/59 65/201/182 66/202/181
s off
f 71/345/189 70/346/190 66/347/191 67/348/192
s 3
f 72/6/52 71/5/51 67/11/188 68/12/187
s off
f 69/349/193 72/350/194 68/351/195 65/352/196
s 3
f 75/110/197 74/109/198 15/115/199 14/116/200
s off
f 154/353/201 153/354/202 155/355/203 156/356/204
s 4
f 73/183/205 76/182/206 13/187/207 16/188/208
s off
f 78/357/209 77/358/210 73/359/211 74/360/212
s 3
f 79/98/213 78/97/214 74/109/198 75/110/197
s off
f 80/361/215 79/362/216 75/363/217 76/364/218
s 4
f 77/179/219 80/178/220 76/182/206 73/183/205
s 3
f 83/92/221 82/91/222 78/97/214 79/98/213
s off
f 158/365/223 157/366/224 159/367/225 160/368/226
s 4
f 81/174/227 84/173/228 80/178/220 77/179/219
s off
f 86/369/229 85/370/230 81/371/231 82/372/232
s 3
f 87/80/233 86/79/234 82/91/222 83/92/221
s off
f 88/373/235 87/374/236 83/375/237 84/376/238
s 4
f 85/170/239 88/169/240 84/173/228 81/174/227
s 3
f 91/74/241 90/73/242 86/79/234 87/80/233
s off
f 162/377/243 161/378/244 163/379/245 164/380/246
s 4
f 89/165/247 92/164/248 88/169/240 85/170/239
s off
f 94/381/249 93/382/250 89/383/251 90/384/252
s 3
f 95/62/253 94/61/254 90/73/242 91/74/241
s off
f 96/385/255 95/386/256 91/387/257 92/388/258
s 4
f 93/161/259 96/160/260 92/164/248 89/165/247
s 3
f 99/56/261 98/55/262 94/61/254 95/62/253
s off
f 166/389/263 165/390/264 167/391/265 168/392/266
s 4
f 97/156/267 100/155/268 96/160/260 93/161/259
s off
f 102/393/269 101/394/270 97/395/271 98/396/272
s 3
f 103/44/273 102/43/274 98/55/262 99/56/261
s off
f 104/397/275 103/398/276 99/399/277 100/400/278
s 4
f 101/152/279 104/151/280 100/155/268 97/156/267
s 3
f 107/38/281 106/37/282 102/43/274 103/44/273
s off
f 170/401/283 169/402/284 171/403/285 172/404/286
s 4
f 105/147/287 108/146/288 104/151/280 101/152/279
s off
f 110/405/289 109/406/290 105/407/291 106/408/292
s 3
f 111/26/293 110/25/294 106/37/282 107/38/281
s off
f 112/409/295 111/410/296 107/411/297 108/412/298
s 4
f 109/143/299 112/142/300 108/146/288 105/147/287
s 3
f 115/20/301 114/19/302 110/25/294 111/26/293
s off
f 174/413/303 173/414/304 175/415/305 176/416/306
s 4
f 113/138/307 116/137/308 112/142/300 109/143/299
s off
f 118/417/309 117/418/310 113/419/311 114/420/312
s 3
f 119/8/46 118/7/45 114/19/302 115/20/301
s off
f 120/421/313 119/422/314 115/423/315 116/424/316
s 4
f 117/134/50 120/133/49 116/137/308 113/138/307
s off
f 1/445/317 2/446/318 122/447/319 121/448/320
s 3
f 2/1/17 119/8/46 123/21/321 122/22/322
s off
f 119/449/323 120/450/324 124/451/325 123/452/326
s 4
f 120/133/49 1/131/48 121/135/327 124/136/328
s off
f 8/453/329 7/454/330 125/455/331 126/456/332
s 5
f 7/194/57 70/197/60 127/203/333 125/204/334
s off
f 70/457/335 71/458/336 128/459/337 127/460/338
s 3
f 71/5/51 8/2/18 126/9/339 128/10/340
s off
f 27/461/341 26/462/342 129/463/343 130/464/344
s 5
f 26/247/77 20/251/80 131/255/345 129/256/346
s 2
f 20/438/12 19/437/11 132/441/347 131/442/348
s 3
f 19/113/87 27/101/86 130/117/349 132/118/350
s off
f 35/465/351 34/466/352 133/467/353 134/468/354
s 5
f 34/238/101 30/242/89 135/248/355 133/249/356
s off
f 30/469/357 31/470/358 136/471/359 135/472/360
s 3
f 31/95/96 35/83/108 134/99/361 136/100/362
s off
f 43/473/363 42/474/364 137/475/365 138/476/366
s 5
f 42/229/121 38/233/109 139/239/367 137/240/368
s off
f 38/477/369 39/478/370 140/479/371 139/480/372
s 3
f 39/77/116 43/65/128 138/81/373 140/82/374
s off
f 51/481/375 50/482/376 141/483/377 142/484/378
s 5
f 50/220/141 46/224/129 143/230/379 141/231/380
s off
f 46/485/381 47/486/382 144/487/383 143/488/384
s 3
f 47/59/136 51/47/148 142/63/385 144/64/386
s off
f 59/489/387 58/490/388 145/491/389 146/492/390
s 5
f 58/211/161 54/215/149 147/221/391 145/222/392
s off
f 54/493/393 55/494/394 148/495/395 147/496/396
s 3
f 55/41/156 59/29/168 146/45/397 148/46/398
s off
f 67/497/399 66/498/400 149/499/401 150/500/402
s 5
f 66/202/181 62/206/169 151/212/403 149/213/404
s off
f 62/501/405 63/502/406 152/503/407 151/504/408
s 3
f 63/23/176 67/11/188 150/27/409 152/28/410
s off
f 76/505/411 75/506/412 153/507/413 154/508/414
s 3
f 75/110/197 14/116/200 155/125/415 153/126/416
s 1
f 14/426/2 13/425/1 156/429/417 155/430/418
s 4
f 13/187/207 76/182/206 154/189/419 156/190/420
s off
f 84/509/421 83/510/422 157/511/423 158/512/424
s 3
f 83/92/221 79/98/213 159/111/425 157/112/426
s off
f 79/513/427 80/514/428 160/515/429 159/516/430
s 4
f 80/178/220 84/173/228 158/180/431 160/181/432
s off
f 92/517/433 91/518/434 161/519/435 162/520/436
s 3
f 91/74/241 87/80/233 163/93/437 161/94/438
s off
f 87/521/439 88/522/440 164/523/441 163/524/442
s 4
f 88/169/240 92/164/248 162/171/443 164/172/444
s off
f 100/525/445 99/526/446 165/527/447 166/528/448
s 3
f 99/56/261 95/62/253 167/75/449 165/76/450
s off
f 95/529/451 96/530/452 168/531/453 167/532/454
s 4
f 96/160/260 100/155/268 166/162/455 168/163/456
s off
f 108/533/457 107/534/458 169/535/459 170/536/460
s 3
f 107/38/281 103/44/273 171/57/461 169/58/462
s off
f 103/537/463 104/538/464 172/539/465 171/540/466
s 4
f 104/151/280 108/146/288 170/153/467 172/154/468
s off
f 116/541/469 115/542/470 173/543/471 174/544/472
s 3
f 115/20/301 111/26/293 175/39/473 173/40/474
s off
f 111/545/475 112/546/476 176/547/477 175/548/478
s 4
f 112/142/300 116/137/308 174/144/479 176/145/480
s off
f 4/549/481 3/550/482 178/551/483 180/552/484
s 4
f 3/132/47 117/134/50 181/139/485 177/140/486 178/141/487
s off
f 117/555/488 118/556/489 182/557/490 181/558/491
s 3
f 118/7/45 4/4/20 180/16/492 179/17/493 182/18/494
s off
f 5/561/495 6/562/496 186/563/497 184/564/498
s 3
f 6/3/19 72/6/52 187/13/499 185/14/500 186/15/501
s off
f 72/567/502 69/568/503 188/569/504 187/570/505
s 5
f 69/196/59 5/195/58 184/198/506 183/199/507 188/200/508
s off
f 25/573/509 28/574/510 190/575/511 192/576/512
s 3
f 28/102/85 18/114/88 193/119/513 189/120/514 190/121/515
s 2
f 18/436/10 17/435/9 194/439/516 193/440/517
s 5
f 17/250/79 25/246/78 192/252/518 191/253/519 194/254/520
s off
f 33/579/521 36/580/522 196/581/523 198/582/524
s 3
f 36/84/107 32/96/95 199/103/525 195/104/526 196/105/527
s off
f 32/585/528 29/586/529 200/587/530 199/588/531
s 5
f 29/241/90 33/237/102 198/243/532 197/244/533 200/245/534
s off
f 41/591/535 44/592/536 202/593/537 204/594/538
s 3
f 44/66/127 40/78/115 205/85/539 201/86/540 202/87/541
s off
f 40/597/542 37/598/543 206/599/544 205/600/545
s 5
f 37/232/110 41/228/122 204/234/546 203/235/547 206/236/548
s off
f 49/603/549 52/604/550 208/605/551 210/606/552
s 3
f 52/48/147 48/60/135 211/67/553 207/68/554 208/69/555
s off
f 48/609/556 45/610/557 212/611/558 211/612/559
s 5
f 45/223/130 49/219/142 210/225/560 209/226/561 212/227/562
s off
f 57/615/563 60/616/564 214/617/565 216/618/566
s 3
f 60/30/167 56/42/155 217/49/567 213/50/568 214/51/569
s off
f 56/621/570 53/622/571 218/623/572 217/624/573
s 5
f 53/214/150 57/210/162 216/216/574 215/217/575 218/218/576
s off
f 65/627/577 68/628/578 220/629/579 222/630/580
s 3
f 68/12/187 64/24/175 223/31/581 219/32/582 220/33/583
s off
f 64/633/584 61/634/585 224/635/586 223/636/587
s 5
f 61/205/170 65/201/182 222/207/588 221/208/589 224/209/590
s off
f 74/639/591 73/640/592 226/641/593 228/642/594
s 4
f 73/183/205 16/188/208 229/191/595 225/192/596 226/193/597
s 1
f 16/428/4 15/427/3 230/431/598 229/432/599
s 3
f 15/115/199 74/109/198 228/122/600 227/123/601 230/124/602
s off
f 82/645/603 81/646/604 232/647/605 234/648/606
s 4
f 81/174/227 77/179/219 235/184/607 231/185/608 232/186/609
s off
f 77/651/610 78/652/611 236/653/612 235/654/613
s 3
f 78/97/214 82/91/222 234/106/614 233/107/615 236/108/616
s off
f 90/657/617 89/658/618 238/659/619 240/660/620
s 4
f 89/165/247 85/170/239 241/175/621 237/176/622 238/177/623
s off
f 85/663/624 86/664/625 242/665/626 241/666/627
s 3
f 86/79/234 90/73/242 240/88/628 239/89/629 242/90/630
s off
f 98/669/631 97/670/632 244/671/633 246/672/634
s 4
f 97/156/267 93/161/259 247/166/635 243/167/636 244/168/637
s off
f 93/675/638 94/676/639 248/677/640 247/678/641
s 3
f 94/61/254 98/55/262 246/70/642 245/71/643 248/72/644
s off
f 106/681/645 105/682/646 250/683/647 252/684/648
s 4
f 105/147/287 101/152/279 253/157/649 249/158/650 250/159/651
s off
f 101/687/652 102/688/653 254/689/654 253/690/655
s 3
f 102/43/274 106/37/282 252/52/656 251/53/657 254/54/658
s off
f 114/693/659 113/694/660 256/695/661 258/696/662
s 4
f 113/138/307 109/143/299 259/148/663 255/149/664 256/150/665
s off
f 109/699/666 110/700/667 260/701/668 259/702/669
s 3
f 110/25/294 114/19/302 258/34/670 257/35/671 260/36/672
s off
f 178/551/673 177/553/674 179/554/675 180/552/676
f 177/559/677 181/558/678 182/557/679 179/560/680
f 183/565/681 184/564/682 186/563/683 185/566/684
f 185/571/685 187/570/686 188/569/687 183/572/688
f 190/575/689 189/577/690 191/578/691 192/576/692
f 189/443/693 193/440/694 194/439/695 191/444/696
f 196/581/697 195/583/698 197/584/699 198/582/700
f 195/589/701 199/588/702 200/587/703 197/590/704
f 202/593/705 201/595/706 203/596/707 204/594/708
f 201/601/709 205/600/710 206/599/711 203/602/712
f 208/605/713 207/607/714 209/608/715 210/606/716
f 207/613/717 211/612/718 212/611/719 209/614/720
f 214/617/721 213/619/722 215/620/723 216/618/724
f 213/625/725 217/624/726 218/623/727 215/626/728
f 220/629/729 219/631/730 221/632/731 222/630/732
f 219/637/733 223/636/734 224/635/735 221/638/736
f 226/641/737 225/643/738 227/644/739 228/642/740
f 225/433/741 229/432/742 230/431/743 227/434/744
f 232/647/745 231/649/746 233/650/747 234/648/748
f 231/655/749 235/654/750 236/653/751 233/656/752
f 238/659/753 237/661/754 239/662/755 240/660/756
f 237/667/757 241/666/758 242/665/759 239/668/760
f 244/671/761 243/673/762 245/674/763 246/672/764
f 243/679/765 247/678/766 248/677/767 245/680/768
f 250/683/769 249/685/770 251/686/771 252/684/772
f 249/691/773 253/690/774 254/689/775 251/692/776
f 256/695/777 255/697/778 257/698/779 258/696/780
f 255/703/781 259/702/782 260/701/783 257/704/784
