# This file uses centimeters as units for non-parametric coordinates.

mtllib Goblin.mtl
g default
v -0.500000 1.400164 0.236881
v 0.500000 1.400164 0.236881
v -0.500000 2.960549 0.236881
v 0.500000 2.960549 0.236881
v -0.500000 2.960549 -0.236881
v 0.500000 2.960549 -0.236881
v -0.500000 1.400164 -0.236881
v 0.500000 1.400164 -0.236881
v 0.000000 1.400164 0.306429
v 0.000000 2.897950 0.276167
v 0.000000 2.897490 -0.403425
v 0.000000 1.400164 -0.306429
v -0.500000 2.992916 0.000000
v -0.500000 1.400164 0.000000
v 0.000000 1.400164 0.000000
v 0.500000 1.400164 0.000000
v 0.500000 2.992916 0.000000
v 0.623406 1.853027 0.338203
v -0.000000 1.853027 0.437498
v -0.623406 1.853027 0.338203
v -0.623406 1.853027 0.000000
v -0.623406 1.853027 -0.338203
v -0.000000 1.853027 -0.437498
v 0.623406 1.853027 -0.338203
v 0.623406 1.853027 0.000000
v 0.265021 2.918639 -0.236881
v 0.330431 1.853027 -0.338203
v 0.265021 1.400164 -0.236881
v 0.265021 1.400164 0.000000
v 0.265021 1.400164 0.236881
v 0.330431 1.853027 0.338203
v 0.265021 2.907553 0.236881
v 0.363386 3.015812 0.000000
v -0.272712 2.918639 -0.236881
v -0.340021 1.853027 -0.338203
v -0.272712 1.400164 -0.236881
v -0.272712 1.400164 0.000000
v -0.272712 1.400164 0.236881
v -0.340021 1.853027 0.338203
v -0.272712 2.907553 0.236881
v -0.365308 3.015812 0.000000
v -0.500000 1.400164 -0.118441
v -0.623406 1.853027 -0.169101
v -0.500000 2.992916 -0.118441
v -0.365308 3.015812 -0.118441
v 0.000000 3.076083 -0.153214
v 0.363386 3.015812 -0.118441
v 0.500000 2.992916 -0.118441
v 0.623406 1.853027 -0.169101
v 0.500000 1.400164 -0.118441
v 0.265021 1.400164 -0.118441
v 0.000000 1.400164 -0.153214
v -0.272712 1.400164 -0.118441
v -0.500000 2.992916 0.118441
v -0.623406 1.853027 0.169101
v -0.500000 1.400164 0.118441
v -0.272712 1.400164 0.118441
v 0.000000 1.400164 0.153214
v 0.265021 1.400164 0.118441
v 0.500000 1.400164 0.118441
v 0.623406 1.853027 0.169101
v 0.500000 2.992916 0.118441
v 0.363386 3.015812 0.118441
v 0.000000 3.076083 0.153214
v -0.365308 3.015812 0.118441
v -0.279684 3.176492 -0.138724
v 0.000490 3.236653 -0.179452
v -0.279684 3.176492 0.000000
v 0.000502 3.240640 0.000000
v 0.274214 3.176272 -0.138724
v 0.274214 3.176272 0.000000
v 0.000490 3.236653 0.179452
v 0.274214 3.176272 0.138724
v -0.279684 3.176492 0.138724
v 0.265021 3.015812 0.000000
v 0.265021 3.015812 -0.118441
v -0.265021 3.015812 0.000000
v -0.265021 3.015812 -0.118441
v 0.265021 3.015812 0.118441
v -0.265021 3.015812 0.118441
v -0.528383 2.705819 -0.260185
v -0.528383 2.705819 -0.130093
v -0.528383 2.705819 0.000000
v -0.528383 2.705819 0.130093
v -0.528383 2.705819 0.260185
v -0.288193 2.665012 0.260185
v -0.000000 2.657618 0.313273
v 0.280065 2.665012 0.260185
v 0.528383 2.705819 0.260185
v 0.528383 2.705819 0.130093
v 0.528383 2.705819 0.000000
v 0.528383 2.705819 -0.130093
v 0.528383 2.705819 -0.260185
v 0.280065 2.673549 -0.260185
v -0.000000 2.657264 -0.411262
v -0.288193 2.673549 -0.260185
v -0.848616 2.566495 -0.116206
v -0.825124 2.821226 -0.122115
v -0.848616 2.566495 -0.039900
v -0.825124 2.821226 -0.039900
v -0.848616 2.566495 0.036405
v -0.825124 2.821226 0.060651
v 0.848616 2.566495 -0.039900
v 0.825124 2.821226 -0.039900
v 0.848616 2.566495 -0.116206
v 0.825124 2.821226 -0.122115
v 0.848616 2.566495 0.036405
v 0.825124 2.821226 0.060651
v -0.651241 2.692448 -0.108280
v -0.622858 2.932150 -0.118441
v -0.622858 2.959572 -0.000000
v -0.622858 2.932150 0.118441
v -0.651241 2.692448 0.108280
v -0.651241 2.692448 0.000000
v 0.651241 2.692448 -0.108280
v 0.622858 2.932150 -0.118441
v 0.622858 2.959572 0.000000
v 0.622858 2.932150 0.118441
v 0.651241 2.692448 0.108280
v 0.651241 2.692448 0.000000
v -0.514192 2.833184 -0.248533
v -0.514192 2.833184 -0.124267
v -0.637050 2.812298 -0.124267
v -0.836870 2.693860 -0.164167
v -0.836870 2.693860 0.084366
v -0.637050 2.812298 0.105930
v -0.514192 2.833184 0.124267
v -0.514192 2.833184 0.248533
v -0.280453 2.786282 0.248533
v -0.000000 2.777784 0.294720
v 0.272543 2.786282 0.248533
v 0.514192 2.833184 0.248533
v 0.514192 2.833184 0.124267
v 0.637050 2.812298 0.105930
v 0.836870 2.693860 0.084366
v 0.836870 2.693860 -0.164167
v 0.637050 2.812298 -0.124267
v 0.514192 2.833184 -0.124267
v 0.514192 2.833184 -0.248533
v 0.272543 2.796094 -0.248533
v -0.000000 2.777377 -0.407343
v -0.280453 2.796094 -0.248533
v -1.203372 2.421318 -0.146739
v -1.173123 2.539344 -0.088664
v -1.203372 2.421318 -0.039900
v -1.173123 2.539344 -0.038227
v -1.203372 2.421318 0.066938
v -1.173123 2.539344 0.023458
v -0.981595 2.477903 -0.116206
v -0.981595 2.477903 -0.039900
v -0.981595 2.477903 0.036405
v 1.203372 2.421318 -0.039900
v 1.173123 2.539344 -0.038227
v 1.203372 2.421318 -0.146739
v 1.173123 2.539344 -0.088664
v 1.203372 2.421318 0.066938
v 1.173123 2.539344 0.023458
v 0.981595 2.477903 0.036405
v 0.981595 2.477903 -0.039900
v 0.981595 2.477903 -0.116206
v -0.520152 2.779690 -0.126714
v -0.520152 2.779690 -0.253427
v -0.283704 2.744625 -0.253427
v -0.000000 2.726930 -0.408989
v 0.275702 2.744625 -0.253427
v 0.520152 2.779690 -0.253427
v 0.520152 2.779690 -0.126714
v 0.643010 2.761961 -0.117552
v 0.841804 2.640367 -0.144023
v 1.099494 2.444353 -0.144023
v 1.080992 2.443092 0.049620
v 0.841804 2.640367 0.064223
v 0.643010 2.761961 0.106917
v 0.520152 2.779690 0.126714
v 0.520152 2.779690 0.253427
v 0.275702 2.735348 0.253427
v -0.000000 2.727314 0.302513
v -0.283704 2.735348 0.253427
v -0.520152 2.779690 0.253427
v -0.520152 2.779690 0.126714
v -0.643010 2.761961 0.106917
v -0.841804 2.640367 0.064223
v -1.080992 2.443092 0.049620
v -1.099494 2.444353 -0.144023
v -0.841804 2.640367 -0.144023
v -0.643010 2.761961 -0.117552
v -1.136340 2.313311 -0.039900
v -1.136340 2.313311 -0.119143
v -1.046613 2.338844 -0.097972
v -1.046613 2.338844 -0.039900
v -1.136340 2.313311 0.039342
v -1.046613 2.338844 0.018172
v -1.201315 2.294821 -0.039900
v -1.201315 2.294821 0.054673
v -1.201315 2.294821 -0.134473
v 1.136340 2.313311 -0.039900
v 1.136340 2.313311 0.039342
v 1.046613 2.338844 0.018172
v 1.046613 2.338844 -0.039900
v 1.136340 2.313311 -0.119143
v 1.046613 2.338844 -0.097972
v 1.201315 2.294821 -0.039900
v 1.201315 2.294821 -0.134473
v 1.201315 2.294821 0.054673
vt 0.375000 0.000000
vt 0.625000 0.000000
vt 0.375000 0.250000
vt 0.625000 0.250000
vt 0.375000 0.500000
vt 0.625000 0.500000
vt 0.375000 0.750000
vt 0.625000 0.750000
vt 0.375000 1.000000
vt 0.625000 1.000000
vt 0.875000 0.000000
vt 0.875000 0.250000
vt 0.125000 0.000000
vt 0.125000 0.250000
vt 0.500000 0.000000
vt 0.500000 1.000000
vt 0.500000 0.250000
vt 0.500000 0.500000
vt 0.500000 0.750000
vt 0.250000 0.250000
vt 0.375000 0.375000
vt 0.250000 0.000000
vt 0.375000 0.875000
vt 0.500000 0.875000
vt 0.625000 0.875000
vt 0.750000 0.000000
vt 0.625000 0.375000
vt 0.750000 0.250000
vt 0.500000 0.375000
vt 0.625000 0.118454
vt 0.500000 0.118454
vt 0.375000 0.118454
vt 0.250000 0.118454
vt 0.125000 0.118454
vt 0.375000 0.631546
vt 0.500000 0.631546
vt 0.625000 0.631546
vt 0.875000 0.118454
vt 0.750000 0.118454
vt 0.566255 0.500000
vt 0.566255 0.631546
vt 0.566255 0.750000
vt 0.566255 0.875000
vt 0.566255 0.000000
vt 0.566255 1.000000
vt 0.566255 0.118454
vt 0.566255 0.250000
vt 0.566255 0.375000
vt 0.431822 0.500000
vt 0.431822 0.631546
vt 0.431822 0.750000
vt 0.431822 0.875000
vt 0.431822 0.000000
vt 0.431822 1.000000
vt 0.431822 0.118454
vt 0.431822 0.250000
vt 0.431822 0.375000
vt 0.187500 0.000000
vt 0.375000 0.812500
vt 0.187500 0.118454
vt 0.187500 0.250000
vt 0.375000 0.437500
vt 0.431822 0.437500
vt 0.500000 0.437500
vt 0.566255 0.437500
vt 0.625000 0.437500
vt 0.812500 0.250000
vt 0.812500 0.118454
vt 0.625000 0.812500
vt 0.812500 0.000000
vt 0.566255 0.812500
vt 0.500000 0.812500
vt 0.431822 0.812500
vt 0.312500 0.250000
vt 0.375000 0.312500
vt 0.312500 0.118454
vt 0.312500 0.000000
vt 0.375000 0.937500
vt 0.431822 0.937500
vt 0.500000 0.937500
vt 0.566255 0.937500
vt 0.625000 0.937500
vt 0.687500 0.000000
vt 0.687500 0.118454
vt 0.625000 0.312500
vt 0.687500 0.250000
vt 0.566255 0.312500
vt 0.500000 0.312500
vt 0.431822 0.312500
vt 0.500000 0.437500
vt 0.431822 0.437500
vt 0.431822 0.375000
vt 0.566255 0.437500
vt 0.566255 0.375000
vt 0.500000 0.312500
vt 0.566255 0.312500
vt 0.431822 0.312500
vt 0.566255 0.375000
vt 0.566255 0.437500
vt 0.431822 0.375000
vt 0.431822 0.437500
vt 0.566255 0.312500
vt 0.566255 0.375000
vt 0.431822 0.312500
vt 0.431822 0.375000
vt 0.125000 0.219744
vt 0.375000 0.530256
vt 0.187500 0.219744
vt 0.250000 0.219744
vt 0.312500 0.219744
vt 0.375000 0.219744
vt 0.431822 0.219744
vt 0.500000 0.219744
vt 0.566255 0.219744
vt 0.625000 0.219744
vt 0.687500 0.219744
vt 0.750000 0.219744
vt 0.812500 0.219744
vt 0.625000 0.530256
vt 0.875000 0.219744
vt 0.566255 0.530256
vt 0.500000 0.530256
vt 0.431822 0.530256
vt 0.187500 0.250000
vt 0.187500 0.219744
vt 0.250000 0.219744
vt 0.250000 0.250000
vt 0.750000 0.219744
vt 0.812500 0.219744
vt 0.812500 0.250000
vt 0.750000 0.250000
vt 0.312500 0.219744
vt 0.312500 0.250000
vt 0.687500 0.250000
vt 0.687500 0.219744
vt 0.187500 0.219744
vt 0.187500 0.250000
vt 0.750000 0.250000
vt 0.250000 0.250000
vt 0.812500 0.250000
vt 0.812500 0.219744
vt 0.250000 0.219744
vt 0.750000 0.219744
vt 0.312500 0.219744
vt 0.312500 0.250000
vt 0.250000 0.250000
vt 0.750000 0.250000
vt 0.687500 0.250000
vt 0.687500 0.219744
vt 0.750000 0.219744
vt 0.250000 0.219744
vt 0.125000 0.234872
vt 0.375000 0.515128
vt 0.187500 0.234872
vt 0.187500 0.234872
vt 0.187500 0.234872
vt 0.250000 0.234872
vt 0.812500 0.234872
vt 0.312500 0.234872
vt 0.812500 0.234872
vt 0.312500 0.234872
vt 0.812500 0.234872
vt 0.375000 0.234872
vt 0.431822 0.234872
vt 0.500000 0.234872
vt 0.566255 0.234872
vt 0.625000 0.234872
vt 0.687500 0.234872
vt 0.687500 0.234872
vt 0.687500 0.234872
vt 0.750000 0.234872
vt 0.312500 0.234872
vt 0.812500 0.234872
vt 0.312500 0.234872
vt 0.812500 0.234872
vt 0.312500 0.234872
vt 0.625000 0.515128
vt 0.875000 0.234872
vt 0.566255 0.515128
vt 0.500000 0.515128
vt 0.431822 0.515128
vt 0.187500 0.250000
vt 0.187500 0.234872
vt 0.250000 0.250000
vt 0.812500 0.234872
vt 0.812500 0.250000
vt 0.750000 0.250000
vt 0.312500 0.234872
vt 0.312500 0.250000
vt 0.687500 0.250000
vt 0.687500 0.234872
vt 0.187500 0.219744
vt 0.250000 0.219744
vt 0.312500 0.219744
vt 0.687500 0.219744
vt 0.750000 0.219744
vt 0.812500 0.219744
vt 0.187500 0.228519
vt 0.125000 0.228519
vt 0.375000 0.521481
vt 0.431822 0.521481
vt 0.500000 0.521481
vt 0.566255 0.521481
vt 0.625000 0.521481
vt 0.875000 0.228519
vt 0.812500 0.228519
vt 0.312500 0.228519
vt 0.312500 0.228519
vt 0.312500 0.228519
vt 0.812500 0.228519
vt 0.812500 0.228519
vt 0.750000 0.228519
vt 0.687500 0.228519
vt 0.687500 0.228519
vt 0.687500 0.228519
vt 0.687500 0.228519
vt 0.625000 0.228519
vt 0.566255 0.228519
vt 0.500000 0.228519
vt 0.431822 0.228519
vt 0.375000 0.228519
vt 0.312500 0.228519
vt 0.812500 0.228519
vt 0.812500 0.228519
vt 0.812500 0.228519
vt 0.713750 0.250000
vt 0.713750 0.250000
vt 0.312500 0.228519
vt 0.250000 0.228519
vt 0.312500 0.241226
vt 0.187500 0.228519
vt 0.187500 0.228519
vt 0.312500 0.241226
vt 0.187500 0.228519
vt 0.187500 0.228519
vt 0.187500 0.219744
vt 0.250000 0.219744
vt 0.312500 0.219744
vt 0.312500 0.228519
vt 0.687500 0.228519
vt 0.687500 0.219744
vt 0.750000 0.219744
vt 0.812500 0.219744
vt 0.812500 0.228519
vt 0.812500 0.234872
vt 0.750000 0.234872
vt 0.687500 0.234872
vt 0.312500 0.234872
vt 0.250000 0.234872
vt 0.187500 0.234872
vn 0.000000 -0.218337 0.975873
vn -0.147296 -0.243014 0.958774
vn -0.132612 -0.017752 0.991009
vn 0.004951 -0.007507 0.999960
vn 0.072327 0.869794 0.488085
vn -0.102129 0.668227 0.736914
vn -0.076989 0.818830 0.568849
vn -0.119682 0.959753 0.254067
vn 0.003906 -0.007488 -0.999964
vn -0.184237 -0.036171 -0.982216
vn -0.147296 -0.243014 -0.958774
vn 0.000000 -0.218337 -0.975873
vn 0.000000 -1.000000 0.000000
vn 0.000000 -1.000000 0.000000
vn 0.000000 -1.000000 0.000000
vn 0.000000 -1.000000 0.000000
vn 0.964819 -0.262915 0.000000
vn 0.964819 -0.262915 0.000000
vn 0.999832 -0.018302 0.000000
vn 0.999992 0.004096 0.000000
vn -0.999832 -0.018302 0.000000
vn -0.964819 -0.262915 0.000000
vn -0.964819 -0.262915 0.000000
vn -0.999992 0.004096 0.000000
vn -0.000625 -0.002343 0.999997
vn 0.000545 -0.266999 0.963697
vn 0.146651 -0.242160 0.959089
vn 0.133017 -0.017926 0.990952
vn 0.075476 0.822826 0.563259
vn 0.000029 0.616497 0.787357
vn -0.000416 0.616501 0.787354
vn 0.103843 0.667136 0.737663
vn 0.000545 -0.266999 -0.963697
vn -0.000392 -0.029451 -0.999566
vn 0.184713 -0.035848 -0.982139
vn 0.146651 -0.242160 -0.959089
vn 0.000000 -1.000000 0.000000
vn 0.000000 -1.000000 0.000000
vn 0.000000 -1.000000 0.000000
vn 0.000000 -1.000000 0.000000
vn -0.964819 -0.262915 0.000000
vn -0.964819 -0.262915 0.000000
vn -0.999832 -0.018302 0.000000
vn -0.999992 0.004096 0.000000
vn 0.000000 -1.000000 0.000000
vn 0.000000 -1.000000 0.000000
vn 0.000000 -1.000000 0.000000
vn 0.000000 -1.000000 0.000000
vn 0.000000 -1.000000 0.000000
vn 0.000000 -1.000000 0.000000
vn 0.000000 -1.000000 0.000000
vn 0.000000 -1.000000 0.000000
vn 0.999832 -0.018302 0.000000
vn 0.964819 -0.262915 0.000000
vn 0.964819 -0.262915 0.000000
vn 0.999992 0.004096 0.000000
vn -0.002473 0.768509 -0.639834
vn 0.000062 0.768498 -0.639852
vn 0.143527 0.864702 -0.481342
vn 0.209775 0.767244 -0.606079
vn -0.132104 0.961572 -0.240680
vn -0.145340 0.862911 -0.484005
vn -0.206387 0.769672 -0.604160
vn 0.046432 0.883962 -0.465247
vn 0.000177 0.128840 0.991665
vn -0.000080 0.129000 0.991645
vn 0.073492 0.110930 0.991107
vn 0.068426 0.110333 0.991536
vn 0.019208 0.091622 0.995609
vn -0.073461 0.111454 0.991051
vn -0.068592 0.110887 0.991463
vn 0.019841 0.091565 0.995601
vn -0.994982 0.099173 0.013225
vn -0.994731 0.102031 0.009961
vn -0.994609 0.103348 0.008456
vn -0.994982 0.099173 0.013225
vn -0.994609 0.103348 -0.008456
vn -0.994731 0.102031 -0.009961
vn -0.994982 0.099173 -0.013225
vn -0.994982 0.099173 -0.013225
vn 0.015674 0.091471 -0.995684
vn -0.269740 0.083778 -0.959282
vn -0.293007 0.082640 -0.952532
vn 0.015161 0.091517 -0.995688
vn 0.293299 0.082790 -0.952429
vn -0.000103 0.082141 -0.996621
vn 0.000214 0.082456 -0.996595
vn 0.268587 0.083975 -0.959588
vn 0.994982 0.099173 -0.013225
vn 0.994731 0.102031 -0.009961
vn 0.994609 0.103348 -0.008456
vn 0.994982 0.099173 -0.013225
vn 0.994609 0.103348 0.008456
vn 0.994731 0.102031 0.009961
vn 0.994982 0.099173 0.013225
vn 0.994982 0.099173 0.013225
vn -0.014672 0.091573 -0.995690
vn -0.015171 0.091529 -0.995687
vn -0.003778 -0.007490 -0.999965
vn 0.000000 -0.218337 -0.975873
vn 0.000000 -1.000000 0.000000
vn 0.000000 -1.000000 0.000000
vn 0.000000 -1.000000 0.000000
vn 0.000000 -1.000000 0.000000
vn 0.000000 -0.218337 0.975873
vn -0.004790 -0.007509 0.999960
vn -0.018591 0.091693 0.995614
vn -0.019207 0.091638 0.995607
vn 0.117856 0.959587 0.255546
vn -0.070499 0.870328 0.487400
vn 0.130096 0.961466 -0.242195
vn -0.045246 0.884271 -0.464778
vn -0.964819 -0.262915 0.000000
vn -0.999832 -0.018302 0.000000
vn -0.968692 0.248264 -0.000001
vn -0.998615 0.052620 -0.000000
vn -0.994949 0.100383 -0.000000
vn -0.968693 0.248264 -0.000000
vn -0.262106 0.965039 0.000000
vn -0.167585 0.985858 0.000000
vn -0.000174 0.999922 -0.012529
vn -0.217404 0.976005 -0.012221
vn -0.217421 0.976078 -0.000000
vn 0.000399 1.000000 -0.000000
vn 0.223031 0.974735 -0.012221
vn 0.223047 0.974808 0.000000
vn 0.165292 0.986245 0.000000
vn 0.260296 0.965529 0.000000
vn 0.968692 0.248264 -0.000000
vn 0.994949 0.100383 -0.000000
vn 0.998615 0.052620 -0.000000
vn 0.968692 0.248265 -0.000001
vn 0.999832 -0.018302 0.000000
vn 0.964819 -0.262915 0.000000
vn 0.000000 -1.000000 0.000000
vn 0.000000 -1.000000 0.000000
vn 0.000000 -1.000000 0.000000
vn 0.000000 -1.000000 0.000000
vn 0.000000 -1.000000 0.000000
vn -0.997682 0.068055 0.000000
vn -0.968693 0.248263 0.000000
vn 0.968692 0.248264 0.000000
vn 0.997682 0.068055 0.000000
vn -0.000174 0.999922 0.012529
vn 0.223031 0.974735 0.012221
vn -0.217404 0.976005 0.012221
vn -0.000267 -0.118072 -0.993005
vn -0.093606 -0.118067 -0.988584
vn -0.093606 -0.118067 -0.988584
vn 0.000014 -0.118071 -0.993005
vn -0.882516 0.470283 0.000000
vn -0.882516 0.470283 0.000000
vn -0.882516 0.470283 0.000000
vn -0.882516 0.470283 0.000000
vn 0.094994 -0.117015 -0.988577
vn 0.094994 -0.117015 -0.988577
vn 0.874093 0.485758 0.000000
vn 0.874093 0.485758 0.000000
vn 0.874093 0.485758 0.000000
vn 0.874093 0.485758 0.000000
vn -0.000267 -0.118072 0.993005
vn 0.094994 -0.117015 0.988577
vn 0.094994 -0.117015 0.988577
vn 0.000014 -0.118071 0.993005
vn 0.874093 0.485758 0.000000
vn 0.874093 0.485758 0.000000
vn -0.882516 0.470283 0.000000
vn -0.882516 0.470283 0.000000
vn -0.093606 -0.118067 0.988584
vn -0.093606 -0.118067 0.988584
vn 0.000000 1.000000 0.000000
vn 0.000000 1.000000 0.000000
vn 0.000000 1.000000 0.000000
vn 0.000000 1.000000 0.000000
vn 0.000000 -1.000000 0.000000
vn 0.000000 -1.000000 0.000000
vn 0.000000 -1.000000 0.000000
vn 0.000000 -1.000000 0.000000
vn 0.000000 1.000000 0.000000
vn 0.000000 1.000000 0.000000
vn 0.000000 1.000000 0.000000
vn 0.000000 1.000000 0.000000
vn 0.000000 -1.000000 0.000000
vn 0.000000 -1.000000 0.000000
vn 0.000000 -1.000000 0.000000
vn 0.000000 -1.000000 0.000000
vn -0.993849 0.110740 0.000000
vn -0.993849 0.110740 0.000000
vn -0.993849 0.110740 0.000000
vn -0.993849 0.110740 0.000000
vn -0.993849 0.110740 0.000000
vn -0.119782 0.112503 0.986405
vn 0.007854 0.092629 0.995670
vn 0.000278 0.131554 0.991309
vn 0.119503 0.111899 0.986508
vn -0.007596 0.092658 0.995669
vn 0.993849 0.110740 0.000000
vn 0.993849 0.110740 0.000000
vn 0.993849 0.110740 0.000000
vn 0.993849 0.110740 0.000000
vn 0.993849 0.110740 0.000000
vn 0.200796 0.082993 -0.976111
vn -0.005974 0.092330 -0.995711
vn 0.000133 0.076865 -0.997041
vn -0.201488 0.082724 -0.975992
vn 0.006176 0.092307 -0.995711
vn -0.014318 0.043087 -0.998969
vn -0.017938 0.026034 -0.999500
vn 0.036234 0.068574 -0.996988
vn -0.009215 0.105664 -0.994359
vn 0.108192 -0.994130 0.000000
vn 0.108192 -0.994130 0.000000
vn 0.373201 -0.927751 0.000000
vn 0.356573 -0.934268 0.000000
vn -0.453444 0.884050 -0.113328
vn -0.467338 0.883936 0.015885
vn 0.108192 -0.994130 0.000000
vn 0.296331 -0.955085 0.000000
vn -0.168554 0.020944 0.985470
vn -0.089765 -0.001507 0.995962
vn -0.068834 -0.016860 0.997486
vn -0.135273 0.017876 0.990647
vn -0.457673 0.882722 0.106480
vn -0.373201 -0.927751 0.000000
vn -0.356573 -0.934267 0.000000
vn -0.537940 -0.842983 0.000000
vn -0.537940 -0.842983 0.000000
vn 0.179477 0.224860 -0.957719
vn -0.036234 0.068574 -0.996988
vn 0.009215 0.105664 -0.994359
vn 0.217790 0.319720 -0.922142
vn 0.453444 0.884050 -0.113328
vn 0.467338 0.883936 0.015885
vn 0.526564 0.849737 -0.026021
vn 0.511925 0.851119 -0.116317
vn 0.135273 0.017876 0.990647
vn 0.168554 0.020944 0.985470
vn 0.191242 0.107936 0.975590
vn 0.271889 0.197555 0.941832
vn -0.296331 -0.955085 0.000000
vn -0.537940 -0.842983 0.000000
vn 0.457673 0.882722 0.106480
vn 0.539904 0.835204 0.104585
vn -0.179477 0.224860 -0.957719
vn -0.217790 0.319720 -0.922142
vn -0.511925 0.851119 -0.116317
vn -0.526564 0.849737 -0.026021
vn -0.539904 0.835204 0.104585
vn -0.191242 0.107936 0.975590
vn -0.271889 0.197556 0.941832
vn 0.537940 -0.842983 0.000000
vn 0.537940 -0.842983 0.000000
vn 0.537940 -0.842983 0.000000
vn 0.017938 0.026034 -0.999500
vn 0.014318 0.043087 -0.998969
vn 0.068834 -0.016860 0.997486
vn 0.089765 -0.001507 0.995962
vn -0.108192 -0.994130 0.000000
vn -0.108192 -0.994130 0.000000
vn -0.108192 -0.994130 0.000000
vn -0.993849 0.110740 0.000000
vn -0.993849 0.110740 0.000000
vn 0.139676 -0.179112 -0.973863
vn -0.077315 -0.032079 -0.996491
vn -0.121679 -0.026809 -0.992207
vn 0.152500 -0.207156 -0.966349
vn 0.231854 -0.281076 -0.931257
vn 0.273456 -0.344729 -0.897989
vn 0.273703 -0.961814 0.000000
vn 0.273703 -0.961814 0.000002
vn 0.273700 -0.961815 0.000002
vn 0.273700 -0.961815 -0.000000
vn 0.273703 -0.961814 -0.000002
vn 0.273701 -0.961815 -0.000002
vn -0.179198 -0.095474 0.979169
vn -0.133408 -0.079079 0.987901
vn 0.061622 -0.269151 0.961124
vn 0.107187 -0.304767 0.946376
vn -0.173175 0.052408 0.983496
vn -0.167309 0.051769 0.984544
vn -0.993849 0.110740 0.000000
vn -0.993849 0.110740 0.000000
vn -0.082289 0.111581 0.990342
vn 0.016971 0.091821 0.995631
vn 0.000046 0.129503 0.991579
vn 0.082224 0.111033 0.990409
vn -0.016425 0.091884 0.995634
vn 0.993849 0.110740 0.000000
vn 0.993849 0.110740 0.000000
vn 0.133408 -0.079079 0.987901
vn 0.167309 0.051769 0.984545
vn 0.173175 0.052408 0.983496
vn 0.179198 -0.095474 0.979169
vn -0.061622 -0.269151 0.961125
vn -0.107187 -0.304767 0.946376
vn -0.273703 -0.961814 0.000000
vn -0.273703 -0.961814 -0.000002
vn -0.273701 -0.961815 -0.000002
vn -0.273700 -0.961815 0.000000
vn -0.273703 -0.961814 0.000002
vn -0.273700 -0.961815 0.000002
vn -0.152500 -0.207157 -0.966349
vn -0.139676 -0.179112 -0.973863
vn -0.231854 -0.281076 -0.931257
vn -0.273456 -0.344729 -0.897989
vn 0.121679 -0.026809 -0.992207
vn 0.077315 -0.032079 -0.996491
vn 0.993849 0.110740 0.000000
vn 0.993849 0.110740 0.000000
vn 0.269135 0.083106 -0.959510
vn -0.012959 0.091722 -0.995700
vn 0.000033 0.081100 -0.996706
vn -0.269364 0.082920 -0.959462
vn 0.013391 0.091673 -0.995699
vn -0.373351 0.404534 -0.834842
vn -0.373351 0.404534 -0.834842
vn -0.629425 0.777061 -0.000000
vn -0.629425 0.777061 -0.000000
vn -0.629425 0.777061 -0.000000
vn -0.629425 0.777061 -0.000000
vn -0.301581 0.299478 0.905186
vn -0.301581 0.299478 0.905186
vn -0.629425 0.777061 0.000000
vn -0.629425 0.777061 0.000000
vn 0.198031 -0.244687 -0.949164
vn 0.291344 -0.358571 -0.886874
vn 0.554439 -0.832224 0.000000
vn 0.554439 -0.832224 0.000000
vn 0.554439 -0.832224 0.000000
vn 0.554439 -0.832224 0.000000
vn 0.554439 -0.832224 0.000000
vn 0.554439 -0.832224 0.000000
vn 0.216314 -0.273309 0.937289
vn 0.243713 -0.326021 0.913408
vn 0.373351 0.404534 -0.834842
vn 0.373351 0.404534 -0.834842
vn 0.629425 0.777061 -0.000000
vn 0.629425 0.777061 -0.000000
vn 0.629425 0.777061 -0.000000
vn 0.629425 0.777061 -0.000000
vn 0.301581 0.299478 0.905186
vn 0.301581 0.299478 0.905186
vn 0.629425 0.777061 0.000000
vn 0.629425 0.777061 0.000000
vn -0.216314 -0.273309 0.937289
vn -0.243713 -0.326022 0.913408
vn -0.554439 -0.832224 0.000000
vn -0.554439 -0.832224 0.000000
vn -0.554439 -0.832224 0.000000
vn -0.554439 -0.832224 0.000000
vn -0.554439 -0.832224 0.000000
vn -0.554439 -0.832224 0.000000
vn -0.198031 -0.244687 -0.949164
vn -0.291344 -0.358571 -0.886874
vn -0.145261 -0.178447 -0.973168
vn -0.273705 -0.961814 0.000001
vn -0.273705 -0.961814 0.000000
vn -0.273705 -0.961814 -0.000001
vn -0.200768 -0.198660 0.959284
vn 0.200768 -0.198661 0.959284
vn 0.273705 -0.961814 -0.000001
vn 0.273705 -0.961814 0.000000
vn 0.273705 -0.961814 0.000001
vn 0.145261 -0.178447 -0.973168
vn 0.290541 -0.256709 -0.921784
vn 0.216297 -0.208203 -0.953870
vn 0.905873 -0.423549 0.000000
vn 0.905873 -0.423549 0.000000
vn 0.905873 -0.423549 0.000000
vn 0.905873 -0.423549 0.000000
vn 0.905873 -0.423549 0.000000
vn 0.905873 -0.423549 0.000000
vn 0.210339 -0.152626 0.965641
vn 0.238681 -0.207472 0.948676
vn -0.999868 -0.016259 0.000000
vn -0.999868 -0.016259 0.000000
vn 0.196603 -0.126409 0.972300
vn -0.999868 -0.016259 0.000000
vn 0.143784 -0.160274 -0.976544
vn -0.238681 -0.207472 0.948676
vn -0.210339 -0.152626 0.965641
vn -0.905873 -0.423549 0.000000
vn -0.905873 -0.423549 0.000000
vn -0.905873 -0.423549 0.000000
vn -0.905873 -0.423549 0.000000
vn -0.905873 -0.423549 0.000000
vn -0.905873 -0.423549 0.000000
vn -0.216297 -0.208202 -0.953870
vn -0.290541 -0.256709 -0.921784
vn 0.999868 -0.016259 0.000000
vn 0.999868 -0.016259 0.000000
vn -0.143784 -0.160274 -0.976544
vn 0.999868 -0.016259 0.000000
vn -0.196603 -0.126409 0.972300
s 1
g pCube1
usemtl initialShadingGroup
f 1/1/1 38/53/2 39/55/3 20/32/4
s 2
f 3/3/5 40/56/6 65/89/7 54/75/8
s 3
f 22/35/9 35/50/10 36/51/11 7/7/12
s 4
f 56/78/13 57/79/14 38/54/15 1/9/16
s 5
f 2/2/17 60/83/18 61/84/19 18/30/20
s 6
f 55/76/21 56/77/22 1/1/23 20/32/24
s 1
f 19/31/25 9/15/26 30/44/27 31/46/28
s 2
f 63/87/29 64/88/30 10/17/31 32/47/32
s 3
f 12/19/33 23/36/34 27/41/35 28/42/36
s 4
f 9/16/37 58/80/38 59/81/39 30/45/40
s 6
f 7/13/41 42/58/42 43/60/43 22/34/44
s 4
f 7/7/45 36/51/46 53/73/47 42/59/48
f 51/71/49 52/72/50 12/19/51 28/42/52
s 5
f 49/68/53 50/70/54 8/11/55 24/38/56
s 2
f 11/18/57 46/64/58 47/65/59 26/40/60
f 44/62/61 45/63/62 34/49/63 5/5/64
s 1
f 10/17/65 130/165/66 131/166/67 32/47/68
f 128/163/69 129/164/70 40/56/71 3/3/72
s 6
f 54/74/73 127/161/74 128/163/75 3/3/76
f 121/152/77 122/154/78 44/61/79 5/14/80
s 3
f 5/5/81 34/49/82 142/181/83 121/153/84
f 140/179/85 141/180/86 11/18/87 26/40/88
s 5
f 48/67/89 138/175/90 139/178/91 6/12/92
f 132/167/93 133/168/94 62/86/95 4/4/96
s 3
f 139/177/97 140/179/85 26/40/88 6/6/98
f 28/42/36 27/41/35 24/37/99 8/8/100
s 4
f 50/69/101 51/71/49 28/42/52 8/8/102
f 30/45/40 59/81/39 60/82/103 2/10/104
s 1
f 31/46/28 30/44/27 2/2/105 18/30/106
f 32/47/68 131/166/67 132/167/107 4/4/108
s 2
f 62/85/109 63/87/29 32/47/32 4/4/110
f 26/40/60 47/65/59 48/66/111 6/6/112
s 3
f 34/49/82 11/18/87 141/180/86 142/181/83
f 36/51/11 35/50/10 23/36/34 12/19/33
s 4
f 52/72/50 53/73/47 36/51/46 12/19/51
f 38/54/15 57/79/14 58/80/38 9/16/37
s 1
f 39/55/3 38/53/2 9/15/26 19/31/25
f 40/56/71 129/164/70 130/165/66 10/17/65
s 2
f 64/88/30 65/89/7 40/56/6 10/17/31
f 34/49/63 45/63/62 46/64/58 11/18/57
s 6
f 43/60/43 42/58/42 14/22/113 21/33/114
s 21
f 144/182/115 143/183/116 145/157/117 146/184/118
s 2
f 13/21/119 41/57/120 45/63/62 44/62/61
s 22
f 67/90/121 66/91/122 68/92/123 69/29/124
f 70/93/125 67/90/121 69/29/124 71/94/126
s 2
f 48/66/111 47/65/59 33/48/127 17/27/128
s 23
f 153/187/129 152/171/130 154/185/131 155/186/132
s 5
f 25/39/133 16/26/134 50/70/54 49/68/53
s 4
f 16/25/135 29/43/136 51/71/49 50/69/101
f 29/43/136 15/24/137 52/72/50 51/71/49
f 37/52/138 53/73/47 52/72/50 15/24/137
f 42/59/48 53/73/47 37/52/138 14/23/139
s 21
f 146/184/118 145/157/117 147/188/140 148/189/141
s 6
f 21/33/114 14/22/113 56/77/22 55/76/21
s 4
f 14/23/139 37/52/138 57/79/14 56/78/13
f 58/80/38 57/79/14 37/52/138 15/24/137
f 59/81/39 58/80/38 15/24/137 29/43/136
f 60/82/103 59/81/39 29/43/136 16/25/135
s 5
f 61/84/19 60/83/18 16/26/134 25/39/133
s 23
f 157/190/142 156/191/143 152/171/130 153/187/129
s 2
f 17/27/128 33/48/127 63/87/29 62/85/109
s 22
f 71/94/126 69/29/124 72/95/144 73/96/145
f 68/92/123 74/97/146 72/95/144 69/29/124
s 2
f 54/75/8 65/89/7 41/57/120 13/21/119
s 24
f 46/64/147 45/63/148 66/91/149 67/90/150
s 25
f 45/63/151 41/57/152 68/92/153 66/91/154
s 24
f 47/65/155 46/64/147 67/90/150 70/93/156
s 26
f 33/48/157 47/65/158 70/93/159 71/94/160
s 27
f 64/88/161 63/87/162 73/96/163 72/95/164
s 26
f 63/87/165 33/48/157 71/94/160 73/96/166
s 25
f 41/57/152 65/89/167 74/97/168 68/92/153
s 27
f 65/89/169 64/88/161 72/95/164 74/97/170
s off
f 33/65/171 47/99/172 76/48/173 75/98/174
f 41/57/175 45/100/176 78/63/177 77/101/178
f 63/48/179 33/103/180 75/87/181 79/102/182
f 65/57/183 41/105/184 77/89/185 80/104/186
s 6
f 22/34/44 43/60/43 82/108/187 81/106/188
f 83/109/189 82/108/187 43/60/43 21/33/114
f 84/110/190 83/109/189 21/33/114 55/76/21
f 85/111/191 84/110/190 55/76/21 20/32/24
s 1
f 20/32/4 39/55/3 86/112/192 85/111/193
f 87/113/194 86/112/192 39/55/3 19/31/25
f 88/114/195 87/113/194 19/31/25 31/46/28
f 89/115/196 88/114/195 31/46/28 18/30/106
s 5
f 18/30/20 61/84/19 90/116/197 89/115/198
f 91/117/199 90/116/197 61/84/19 25/39/133
f 92/118/200 91/117/199 25/39/133 49/68/53
f 93/120/201 92/118/200 49/68/53 24/38/56
s 3
f 24/37/99 27/41/35 94/121/202 93/119/203
f 27/41/35 23/36/34 95/122/204 94/121/202
f 96/123/205 95/122/204 23/36/34 35/50/10
f 81/107/206 96/123/205 35/50/10 22/35/9
s 28
f 44/61/207 122/154/208 123/155/209 110/137/210
s 29
f 82/108/211 83/109/212 114/142/213 109/136/214
s 2
f 13/20/119 44/61/61 110/137/215 111/139/216
s 29
f 83/117/212 84/118/217 113/141/218 114/143/213
s 30
f 126/160/219 127/162/220 54/67/221 112/140/222
s 2
f 54/67/8 13/28/119 111/138/216 112/140/223
s 31
f 120/151/224 115/144/225 105/132/226 103/126/227
s 32
f 136/172/228 137/174/229 116/145/230 106/133/231
s 2
f 116/145/232 117/146/233 104/127/234 106/133/235
s 33
f 118/148/236 134/169/237 135/170/238 108/134/239
s 31
f 119/149/240 120/150/224 103/128/227 107/135/241
s 2
f 117/147/233 118/148/242 108/134/243 104/131/234
s 28
f 110/137/210 123/155/209 124/156/244 98/124/245
s 2
f 111/139/216 110/137/215 98/124/246 100/127/247
f 112/140/223 111/138/216 100/131/247 102/130/248
s 30
f 125/158/249 126/160/219 112/140/222 102/130/250
s 29
f 114/143/213 113/141/218 101/129/251 99/128/252
f 109/136/214 114/142/213 99/126/252 97/125/253
s 32
f 137/174/229 138/176/254 48/74/255 116/145/230
s 2
f 48/74/111 17/20/128 117/146/233 116/145/232
f 17/28/128 62/86/109 118/148/242 117/147/233
s 33
f 62/86/256 133/168/257 134/169/237 118/148/236
s 31
f 90/116/258 91/117/259 120/150/224 119/149/240
f 91/109/259 92/110/260 115/144/225 120/151/224
s 6
f 81/106/188 82/108/187 161/198/261 162/199/262
s 28
f 186/234/263 161/198/264 82/108/265 109/136/266
f 185/232/267 186/234/263 109/136/266 97/125/268
s 34
f 187/229/269 188/235/270 189/236/271 190/237/272
f 191/239/273 187/229/269 190/237/272 192/238/274
s 30
f 113/141/275 181/224/276 182/225/277 101/129/278
f 84/118/279 180/223/280 181/224/276 113/141/275
s 6
f 179/221/281 180/222/282 84/110/190 85/111/191
s 1
f 85/111/193 86/112/192 178/220/283 179/221/284
f 177/219/285 178/220/283 86/112/192 87/113/194
f 176/218/286 177/219/285 87/113/194 88/114/195
f 175/217/287 176/218/286 88/114/195 89/115/196
s 5
f 89/115/198 90/116/197 174/216/288 175/217/289
s 33
f 173/215/290 174/216/291 90/116/292 119/149/293
f 172/214/294 173/215/290 119/149/293 107/135/295
s 36
f 196/212/296 197/240/297 198/241/298 199/242/299
f 200/244/300 196/212/296 199/242/299 201/243/301
s 32
f 115/144/302 168/208/303 169/209/304 105/132/305
f 92/110/306 167/207/307 168/208/303 115/144/302
s 5
f 166/205/308 167/206/309 92/118/200 93/120/201
s 3
f 93/119/203 94/121/202 165/203/310 166/204/311
f 94/121/202 95/122/204 164/202/312 165/203/310
f 163/201/313 164/202/312 95/122/204 96/123/205
f 162/200/314 163/201/313 96/123/205 81/107/206
s 28
f 98/124/245 124/156/244 143/183/315 144/182/316
s 38
f 100/127/317 98/124/318 144/182/319 146/184/320
s 30
f 125/173/249 102/130/250 148/186/321 147/185/322
s 38
f 102/130/323 100/131/317 146/187/320 148/186/324
s 28
f 184/230/325 185/233/267 97/133/268 149/189/326
s 39
f 97/133/327 99/127/328 150/184/329 149/189/330
f 99/134/328 101/170/331 151/191/332 150/190/329
s 30
f 101/131/278 182/226/277 183/227/333 151/187/334
s 32
f 136/156/228 106/125/231 155/192/335 154/183/336
s 40
f 106/125/337 104/126/338 153/193/339 155/192/340
s 33
f 108/126/239 135/132/238 156/194/341 157/193/342
s 40
f 104/132/338 108/159/343 157/188/344 153/194/339
s 33
f 171/213/345 172/214/294 107/135/295 158/195/346
s 41
f 107/135/347 103/128/348 159/196/349 158/195/350
f 103/128/348 105/129/351 160/197/352 159/196/349
s 32
f 105/129/305 169/210/304 170/211/353 160/197/354
s 6
f 162/199/262 161/198/261 122/154/78 121/152/77
s 3
f 121/153/84 142/181/83 163/201/313 162/200/314
f 142/181/83 141/180/86 164/202/312 163/201/313
f 165/203/310 164/202/312 141/180/86 140/179/85
f 166/204/311 165/203/310 140/179/85 139/177/97
s 5
f 139/178/91 138/175/90 167/206/309 166/205/308
s 32
f 168/208/303 167/207/307 138/176/254 137/174/229
f 169/209/304 168/208/303 137/174/229 136/172/228
f 170/211/353 169/210/304 136/173/228 154/185/355
s 36
f 203/245/356 202/246/357 196/212/296 200/244/300
f 202/246/357 204/247/358 197/240/297 196/212/296
s 33
f 135/170/238 172/214/294 171/213/345 156/191/359
f 135/170/238 134/169/237 173/215/290 172/214/294
f 134/169/237 133/168/257 174/216/291 173/215/290
s 5
f 175/217/289 174/216/288 133/168/94 132/167/93
s 1
f 132/167/107 131/166/67 176/218/286 175/217/287
f 131/166/67 130/165/66 177/219/285 176/218/286
f 130/165/66 129/164/70 178/220/283 177/219/285
f 179/221/284 178/220/283 129/164/70 128/163/69
s 6
f 128/163/75 127/161/74 180/222/282 179/221/281
s 30
f 181/224/276 180/223/280 127/162/220 126/160/219
f 182/225/277 181/224/276 126/160/219 125/158/249
f 183/227/333 182/226/277 125/134/249 147/190/360
s 34
f 194/248/361 193/249/362 187/229/269 191/239/273
f 193/249/362 195/250/363 188/235/270 187/229/269
s 28
f 124/159/244 185/233/267 184/230/325 143/188/364
f 124/156/244 123/155/209 186/234/263 185/232/267
f 123/155/209 122/154/208 161/198/264 186/234/263
f 184/231/325 149/192/326 189/236/365 188/235/366
s 42
f 149/192/367 150/193/368 190/237/369 189/236/370
f 150/193/368 151/194/371 192/238/372 190/237/369
s 30
f 151/194/334 183/228/333 191/239/373 192/238/374
s 21
f 147/213/140 145/195/117 193/241/375 194/240/376
s 30
f 183/195/333 147/196/360 194/242/377 191/241/373
s 21
f 145/196/117 143/197/116 195/243/378 193/242/375
s 28
f 143/197/364 184/211/325 188/244/366 195/243/379
s 33
f 171/185/345 158/171/346 198/246/380 197/245/381
s 43
f 158/211/382 159/185/383 199/245/384 198/244/385
f 159/171/383 160/191/386 201/247/387 199/246/384
s 32
f 160/191/354 170/213/353 200/240/388 201/247/389
s 23
f 154/188/131 152/157/130 202/249/390 203/248/391
s 32
f 170/228/353 154/188/355 203/248/392 200/239/388
s 23
f 152/157/130 156/183/143 204/250/393 202/249/390
s 33
f 156/183/359 171/231/345 197/235/381 204/250/394
